<mxfile host="app.diagrams.net" modified="2024-03-14T14:20:50.475Z" agent="Mozilla/5.0 (Windows NT 10.0; Win64; x64) AppleWebKit/537.36 (KHTML, like Gecko) Chrome/122.0.0.0 Safari/537.36" etag="-oTvA1FyTXxajtJuSOaz" version="24.0.6" type="github">
  <diagram name="Page-1" id="tUJehX6UnpdndCwmrNXN">
    <mxGraphModel dx="794" dy="412" grid="1" gridSize="10" guides="1" tooltips="1" connect="1" arrows="1" fold="1" page="1" pageScale="1" pageWidth="850" pageHeight="1100" math="0" shadow="0">
      <root>
        <mxCell id="0" />
        <mxCell id="1" parent="0" />
        <mxCell id="9I3meZ9U-eRkxAklNnvZ-1" value="" style="rounded=0;whiteSpace=wrap;html=1;strokeColor=none;" vertex="1" parent="1">
          <mxGeometry x="40" y="10" width="1660" height="720" as="geometry" />
        </mxCell>
        <mxCell id="9I3meZ9U-eRkxAklNnvZ-3" value="" style="shape=image;verticalLabelPosition=bottom;labelBackgroundColor=default;verticalAlign=top;aspect=fixed;imageAspect=0;image=data:image/png,iVBORw0KGgoAAAANSUhEUgAAAyAAAAQgCAYAAAAe1zjmAAAACXBIWXMAABYlAAAWJQFJUiTwAAAgAElEQVR4nOzdedQc1Znn+RdJuMszU10+fc509/zRMzWnq6dmek4f1xlPT5XtNhI7mB1jvLfL+25jQ2EMGIFlbMxeyAuLwTYqXJYwGAkDFphFbIWEAAljI7FJLEIykt5X+e5vvMud8wQ8r6+u7o24kRkZmW/G93NOHISUERlx42bk/eW9N6JvbGLasFAG1AHqAHWAOkAdoA5QB6gD1AHqwFgFZdBHRaOiUQeoA9QB6gB1gDpAHaAOUAeoA2MVlQEBhMrGBYc6QB2gDlAHqAPUAeoAdYA6YAggVAIuBNQB6gB1gDpAHaAOUAeoA9QB02tlQA9IF5wEFsqAOkAdoA5QB6gD1AHqAHVgrCZlQADpgpPAQhlQB6gD1AHqAHWAOkAdoA6M1aQMCCBdcBJYKAPqAHWAOkAdoA5QB6gD1IGxmpQBAaQLTgILZUAdoA5QB6gD1AHqAHWAOjBWkzIggHTBSWChDKgD1AHqAHWAOkAdoA5QB8ZqUgYEkC44CSyUAXWAOkAdoA5QB6gD1AHqwFhNyoAA0gUngYUyoA5QB6gD1AHqAHWAOkAdGKtJGRBAuuAksFAG1AHqAHWAOkAdoA5QB6gDYzUpg54PIKPjUyyUAXWAOkAdoA5QB6gD1AHqwJypA2Nd0IYmgBBAOv5BYKEMqAPUAeoAdYA6QB2gDhBAxugBoZeDCwFfBtQB6gB1gDpAHaAOUAfqUwfGuqAHY6zuQ7A6XQlYKAPqAHWAOkAdoA5QB6gD1AFCyHRvBpBmTuzI2CQLZUAdoA5QB6gD1AHqAHWAOjBn6sBoj/eIzJkAQvjo/IeBhTKgDlAHqAPUAeoAdYA6QAgZ6+UAUkYvx/BowkIZUAeoA9QB6gB1gDpAHaAOzJk6MNJC70in2+9zOoC0Ej7yTurQyAQLZUAdoA5QB6gD1AHqAHWAOtCxOjDcQhiZ6yGkKwNIkdDRbMgYHB5noQyoA9QB6gB1gDpAHaAOUAcqrwNDTYaUXgkjXRdAYns6YsLG6yd43IyMJWZ8YtIkk1NmamraTE/PsFAG1AHqAHWAOkAdoA5QB6gDHa0DU9MzZnJyykwkU2ZsfNKMjP7pR/Iyw0in2/ddHUDKCB9ywuTkyYmUkwoAAADMJZOTrwcS+SE9K4zM1RDSN1eGW+WFDlmkl0PSJAAAANALkklpDyf79Ixk9Yh0ewjp64XwIcEDAAAA6OVekZE3goivR2Qu9YR0XQAJDbfy9XhI1xQ9HgAAAKhTj8iwZ66IrzekW0NIVwWQ2PAhhS4pEAAAAKij8YnJORtCOhZAigy5sm9bNjqWGGZ5AAAAoO6SySkzODS2z7Csbg8hHQkgsXM+7PDRGBpjrgcAAABgkekIw567ZXVzCOnr5mFXhA8AAAAg2/TMzF7zQjSMdGsI6ZsL4WOCu1wBAAAAmaQnRNrO3R5C+rp5zgfDrgAAAID44VhDTYaQngsgzc75kAnnAAAAAOJMTc+k7eiiIaSnAkiz4UO6kAAAAAAUM5FMBkNI1sMKeyKANBs+ZJH0BgAAAKC40fFkrxASemp6J0JI5QEkJnzIg1UAAAAANG9w2B9AOj0fpNIAEhM+pKAAAAAAtD4Ua8/gaGYvSCfuitUVAUTDhxSQFBQAAACA1snzQdy5IJ0eitWxAKIHrwFEwscQvR8AAABAaRKnF6Qb7orV1+nwYQcQej8AAACAcsmP/O5QLDeAVBlC+rph7sfrBTJaclEDAAAAmEgmzUBjpGtCSF+3zP0YHZugdgAAAAAlm5mZ8QaQTg3FqiyA2OHDnfshBTI5NV12WQMAAAAwJn3Id1YImdMBJK/ng+FXAAAAQLXGJ5J9AojvCek9HUDs3g9JZAAAAADaY3p6xvTvGY6aC1KLADI+nrSpqAEAAACIPYMjTc0FmfMBxA0fksSY/wEAAAC0/3a8WcOwahVApmdm2lzcAAAAQL2Njk2kbW8NIJ0ahtXX7vCR9eTz18ehDXf6XAAAAAC1mIje38Q8kLJDSF+7w4cdQOyHD2rvBwEEAAAAaL+JFgJImSGk7QEkb/jVHnpAAAAAgLZLJqfM7oGhqOeBtLMXpK+Td7+SANIYGm1/aQMAAAA1Nzk17Q0gvueBtHMuSEcDiBQAAQQAAACorgckdhhWzwUQOXACCAAAAFBdANnVPxgMIFXdDauyAGJPQLcDiDwQBQAAAEB71TKA6P2GCSAAAABAtWobQOwJ6PSAAAB8BoeGzLrHN1A4AFAiAsie4TSBMQQLAGC74LKl5j//3aJ0+btDjja/XfMABQQAJQYQeyJ6T/aAZN2ClwACoI7+/vOn7LP84ZlnO71bXeFXv75jNnzYIeSVV7d3etcAoCcDyJ4CDyScUwHEnYCut+AlgACoI7eBLcvax57o9G51hR9c8xPKBwDaGEB27m4QQAZ4EjqAmiGAhF3/ixu95UMPCAC0jgDyRg8IAQRA3RBAsn3p9LP2KiMZlgUAaB0BhAACoKYIIPlkTowMS6PnAwDKQwAhgACoKQIIAKATCCAEEAA1RQABAHQCAYQAAqCmqg4gd695MH22hnvr3x/8+Cfpv7VChkgt+8WN5kunnz27XfnzLbf9Zq/XyfHJ+9mL75hle+7rZPGRuSFZr5OHGYb2Tf4NAOom4S5YTEIHUE9VBRBpkMszNHzvZy+HnfD+wg/7kwb8mUsuyN2uPt/Ed3td+TuXlINvWz4f/dxXgq+TY8/aNx5wCKCOEgIIAQRAPbU7gEg4kF/684KHu0igiN3+ez7yyaht6kMEqwwgecGIO2wBqKuEAEIAAVBP7Q4gseHAt8gwpbK3nw73qiiAhNbPCkg8hR5AXSQEEAIIgHpqZwAJPUn8/zvkqPTf5H1kuNV3Lvt++ne+18rDAItuXxYJBPLvsmRtv50BRIZ96Z9P/Mgn0vf4xre+m/45tB/y7wBQBwkBhAACoJ7aFUBCjXdpqPsmXcvf+RrmOmzK9/pQuPHtv7xeGvdVBhBZDj3+fd5eDQlevlAkxwsAdZAQQAggAOqpXQHE19iXxnjWHZ/k33yNcl84kJ4R377nTWAPBYV2BZCsIVWhHpx23oUMALpFQgAhgACop3Y1gH3blVvV5pHhUr6hTDENfulBySMBpaoA8qXTz8rcl1AvDgEEQB0kBBACCIB6akcDONRw9w2lil3X7Tnx3dI3a76ILbaXpdUA4ttmzL4QQADUQUIAIYAAqKd2BBDp6Wimd6LIPrWy37FhoYy7YDWzLwQQAHWQEEAIIADqqR0BxDe3QRrasfJ6BUJDl2JvYUsAAYDOSwggBBAA9dSNAcQXEOz5I7HDtIpMkKcHBACqRQAhgACoqW4MIL75HQzBAoDektADQg8IgHqqag6I705WrexTM7fgzXp6Oj0gAFAtAggBBEBNzdW7YMkzRZp5irjsg2/7BBAAqBYBhAACoKbaEUCK3Oo2Zn6G7w5avteFnpqe95wRAggAVI8AQgABUFPtCiChgJA1UVzuYtVqOJDhVaH38A0NI4AAQGcQQAggAGrK1xhf9osbzbrHNxRaYoc6SUDw9VJI+PBNPpeelFCg8N0tS+eb3HLbb9Jtyrqyf2cuuSAYPugBAYDqEUAIIABqKqtRXmQpMtxJFgkEP/jxT9LlS6efHXxd1tPNJcj4hnplLfJ6bsMLAJ2XcBcs7oIFoJ7aGUCyeililphJ5TKsqkgIkdf7bhPMJHQAqBYBhAACoKbaHUBkCJSvxyFvkd6TWDLUyndXLF/4EAQQAOi8hB4QekAA1FO7A4iSZ3TEhATpMWl2Ery8x5dOP2uvXhf5s4QZe94JAQQAOi8hgBBAANSTNPbLWIr0VkgAkF4RCQcaEGSuR8xzQsoQOwdEem9ij1WOy31d1h2/Wl0PAOa6hABCAAGAuvDNS4l5RgkAoDwEEAIIAMxJ0ltw95oHzQWXLU2HYMW83ne73zKefQIAiEcAIYAAwJwiQ5fkmSJ2iJBgIX+fJfQ8EIY9AUC1CCAEEACYc3yT2iWEyLNF7CAic0vkwYTygMJW77gFACgHAYQAAgBzjgybavXuXSd+5BP0fgBABxBACCAAMCcVfRAh4QMAukPCXbC4CxYAzFUy3KrIE9clsHDXKwDoLAIIAQQAeiKIyPNE9GGEMrxKwob9vJGYO2UBANqPAEIAAQAAACpDACGAAAAAAJUhgBBAAAAAgMoQQAggAAAAQGUIIAQQAAAAoDIEEAIIAAAAUBkCCAEEAAAAqAwBhAACAAAAVIYAQgABAAAAKkMAIYAAAAAAlSGAEEAAAACAyhBACCAAAABAZQggBBAAAACgMgQQAggAAABQGQIIAQQAAACoDAGEAAIAAABUhgBCAAEAAAAqQwAhgAAAAACVIYAQQAAAAIDKEEBqGkC2bt1q1qxZ4102btyY/nvIwMDA7GsBdJ9Vq1aZJUuW8BmNvA5mXe+AbqHfvRs2bOj0rqAN6nY9SianzM7dDSPt8P49w2agMWL2DI6axtCYGRweN0MjE2Z4NEmXkbHJdBkdn5pdxiamS1n6ytqQvXO6w7LzciByQLLIwclB1jmASCWXBkrWsnTpUrNp06Z91pUPh74GnTM2Npaeix07dnAasBf9fF544YWllIzUs178UtTrID+mYC7Q797rr7++07uCNqjb9SghgNQ7gFxxxRXeXpCrr756thHj/tpCAOkOfBkhRD6z0kjx/YDQjF79waFuX/iY27jm97a6XY8SAki9A0jWLyn6mosuuij9tV0RQLoDX0aoCgEE6Dyu+b2NADLCEKw6iAkgQntC7F6QIgFEgouMW212eFFRzQ5Hascwpla2GVNmzXwZNXs+9P2qHu7V7L62Qo6xleFGss9563dLPZX6YP+4UGYAaXZfqyy/Tn/ht1JGzb5fzHs2s1+yTrP7lbVebB317U+Zmv1O0nWbKRv3GMoMIK3UoTKOpZ3fVWVqth5pfcmqu+7xdfp6VDV6QOgByawgvg9EXgCRD5y8XnpO7DklMjE268MsH0adPGsvcrHNuvDLv9lDxnT+ytq1a4PrhPZxxYoVLX1xyZAXd1/k/0NDYezylfeVY3WPPfQl5Ft8X0xyrKtXr97rWOXPUtahC7x9fmXdrO3HhFaX/JsOAXTJ8bnlIOcz66Kc10AOXdj1feQ9ZZ/kfYo0tu315RxnrV+0bmSVh9aLUIMk64tMP2e+z6f7ZZk1R8xHbmBhl4HuW+gYi5S/b9utlJ9O6C36hR/z401WGYWuV3J8ZV6v7H2w17X32y5/2Y67X7L9rAaUr07rtcW3Xtb1TtaTa42S67d9vuXfs67pzdS/PHIMvs9KVr2zy929JmSVjcr6HmgmgLjruN8FedfWZs6zku36zkfo+1zruW8dt57r99LKlSu929IyXL58ufff5e/l3311yq17efudVa/ddaQs3fOrnzMCyAg9IHUQ2wOir7M/5FkBRD5E9oVKti+LTIbVi5bvC1P+Ti+K8lpdTxqooQ+y3ZDVLwVdT//O/kLL20f7vZr5wrLDk+6L/T7y76Hy1S8F+9jtC70dFPQCp9u213GPV16rF1L7dXnnwy4/e93Qxdy9eGsZhIQu/vb5lPPhloVs0/eFl9Xgiwkg9k0ZtGxjxK5vh7jYupFXHnLupJ76Pseh45V6lPU5c8vXLX/9f991w1f/7c+UL5DGll/eZ8v3Oc8rP1lfz0tVAcS9XsnnoNnrlf0Z9l0b9fW6v3q+7Wu5vrd+ZrWM7PeT64fvM2efE7tsdb98n1X7eifb1X2y30/nIYbqUSiENFP/stjfSXa5Z82PtMtdP5u+Mg3VHVnH9/nU86z1p9kAovXdt0/SCPZp5jy76+l3h/1+7nesXc991yb3u0qPS+qRS7al7xP6XtBytrcp60k5FD3n7ve4XQftz2Y7rkdzWcIcEOaAZNGGYmwPiH6Y5L/uRUm++PRCYv+b/FkbyfIadz39UPoahfphdy8KclHRC6T7K7/uh2wv1AXq7mMe/bKR93QbA/L/ui/uv9kNL/fY5Rj04uv7lSfm1zC9cLrblj9rOfgu4LpPst9Fv7ilTHV9Xw+L/eXgBqtQI0NeZx9LaH+bDSChupcnZv3YuuF+IdvlGCoP36/aWcer59wtQ9lv32e9aPlKfXUDrf2l6x5/TPlp49hXflJmoc9WTH3S8qsigMixNXO90gZR0euV3QALNdqzwo9dN931tU6HylavW+5xZl3v7HriW9f+/iir/mWxG4ZuuWud9O1L1jHY5eZrgGv9cMsm7/OeRb8ndF33fNnn2f0c2N/17nqyf3qeQz8kyXZD58P93rF/uAq1Hdzj1v1238MuZ19Z63G5PfD2D27uNnX/8r7HffUl73qkn/9mrkdzWUIAIYCE2B8Y3y8P7hes/n3Wr8f2L27ue8mH39cAsRusvvfzDePRf3cvPHpM8mEPNTazumZDNECFvuD04hVqKIaOQS/Wvi+6vAAS82tZqKGQ13DJk9e97duvrAaw2yB3vxxaDSDNjqmOWT+vbuh5cj83obDgK4/YAKIhzrcvsj3ZF9+XZ1b52g2n0JA+3R+3By2m/Hy/VPrqk7vtvPKzr29VBJC866Ncq0LXK/mcFr1exRxbXvmHjlX2RepK6MeJvOtd6Pqb9SND6IeLVupfFv1OCm1Tr53uZykU6Nx66f67Nn5D50KOUxvczQSQrLpghxT3PeUch74HQt8xeUOJZD3385z3vSt/H/ox0V3H/uxnlbX991nfL+5xuZ/hvHptH1/eOSCAjPIckF6X9SUqH0QZS6sXdfeiHQog+mGPGftf5ItA+C4MMRcMV0wXZ2hYS0jsuFzdV/sCZXfd+tjHWPR99YKXNZxMGwruF75vX4sINapDc0TsxkXWe4a+UFoNIM0+2MseQuSjDci8IV2+Y89reNvnOLYBEPoBIE9W+eq5DjX07XrsNnDy9kc/i1nXi9APFHmNUvv9qwggoR90Yq5XWecrdL2K+dU/7/hjflQqsk95ZZe3P75jaqX+tUL3NRRAiv4YpT9UZF2vQz0BWezv66xrq16Xiww/Dn0HZfVm5NX10FCwIvVMh/fptcGtv74fYkI/ZMSE4Lx6HVrPpftFD8gYDyKs+4MI9QPlXkBCAcRuTOiDy9wldPH13QXH90ySrCEcMuZ08+bNmRe8mH2U8JXXoPWVpbx/aJuy+H4Jj5l01mwA0feTMil6Poocf4hvSIk2BNxfimIbOqFf3FoNIM3e3SavwaTlm1c3fF+IMecg9MUXOl57OIqsI/sX0xjO2pfY+p91zcib3Jm3bQ0buh27sR9TflXNAbHH85d1vdI65g5pKRJAQq/JGm7rvk6ORcpGjkuvPUV/GW8mgLRS/2Lpd5KUtbyfPU+gaAAJXbdj9q+VOSB519aYH+fs86zzeHz7Y/fWyGvktXnXWPszqxPj89bx/fig3zEaJLRO6feQ/R1U9Pjt7fnqYOi8lHkOeknCEKx6D8FyF3uycehX4dDF3L1TSNbi6+p1785h71Poom6PXbcX+aD7fjW0A0vM0kpZhpaqAkiRfWpHAPF1j4d6XGJ7kZr98u5UAGm2boSGRBQd6uLbL1nH/kzp+2QNN8kqXz3PsYsdeGIDSLPll1efqg4gVV6vQtfMsgKI/JvdEPdds6sIIK3Uvzy+OzK5x1hlAImt182sEzo3Ul5Fz7OuZ98EQBfZVqiXRfbVXUfDeui8uT39ek3U9ov7/6EeM617eT1AvjoaG0DacT2ayxICSL0DSDNj30NfSvb4Xe29yFpCd7+QC4r8u1wI9CKed1GXhpNcaGRd+wLm/uKgF4+i+xhbljHb9HXdtjOAxOxTaA5IK3T/7F9mQ3MQej2AFK0bWUPvQtuPOV6bnHMJHXYPY95d0XzssetF639sACm6bV/d64YA4rte2WGwzOtVOwOIPclXrrdSB7SXRnsLqgogrdS/LHb40+8k+czoezc7BKuVAFJ0eHDW+7l858Y+/3qe5d/zzrNNrieyjhumsz5zcpzyXu46vh9FNWDosFwNJHqetWdFA4f+u7ut2OGpvmG7BJDmEEAIIIUrTd5wiqK3sLVvARkajhDzZRpzB5fQxacVoV/1Y7QzgGRNOM5TRgARGgb14VV6nl36JRH7i787Tjdvf0MTANsdQJqd82QfU1aDKTQmvGjDWt4ja0JyVvnmzWPKklf+zX62is4pqjqAxF6vmr2mtjuAZE0Wt9ercghWM/UvxL5ZSeiX93YFkKwemmZ+OIztTfVNAte/K3qeQ+xnXeRd2+x1su6Apt8r+mODL8jLd46uq6Mssm4RncX3vZp3XmKHhOZNVO81CT0g9IAUFfpSimks5D2cKrRO6KKe9ZRc3a7d+ItpEBZ98q49wbHIU0/bHUB8d/qI2aes9yzKvqjnXeBDd5WJechh3pe+DqOoOoC0Ujfyvozsu/8UaeiFGjhZX5JZjXldL6+3wbduXvnHTh72lV/MAzFD9SJL3njurGFLWdcW3+e12WtquwNIXmO5maGBzQaQVupfSMxcxdDd7ZoNIDGNT63TzU5CD+1TaJJ03jU5a05KzGRrd7tZ4SvrGOzPuu87xr5BTuj7X3uXsupRaP5ITDDUsgz9mGBfzwkgY0xC72XN/JKS96UUc1cqHUtq/8qi+xL6krUfaGRffPRLInTXDH0v+8NsT44LNUx86+XRL87QA+Wa/UKOCSChC6bdqxA6H3pvefeiWFYAsX+d0i/svFtlhu6cYt9b3v13/QLy1QW7/lQdQGLqRmhYhf05c+uq7+F0efUqLwzZzytxhca7q9DzAPJ6rmLKX18TCq55n63Qg/TsX2KLfNbt61zeefG9X96Tm91zFnpOTNY1td0BJOuOSfZznaoIIK3Uv2ZDZtYzIZoNIPYt133Xa/cGErHsc5j30MDQEMCi5zlvPfemEW5veWxAcuuVb7u+54KE6klePbKHRPreP+u85F2Psr6nelVCDwg9IEVl/cJnf6nrnS/0zhn64ZUvVN+dkfSDp+NLZR35cg1NQrfX0zug6LhUe9Kce8GyL+T2PrrrFZmsaDcU5DjtO0/ZZeJe2FoJIHaYkv3WsvP9qioXZv133/kIPcSsDHaDLOsuIHbjTf5rl6F9cfZ9qblPmNbx3nKMOq+oUwEktm74tuF7groscj5lm0WHYOn+avnad5zL+vXNfnin/LvvYWa6n1IXY89dTPnbD+lzt5312RJan+RLX+5u5+5Ts7e9tMemy7Zkfb2Jhj3J3D0O97ojdT7vemU3dkPXK99QoXYGELvBJ+Uq7y2L/FlvgVplAGm2/oW411b7u0W3V/YkdPv4tVzdep41TDJE308a17LP7rU16zuv2fNsP6jRXk/e177Gh76rfO+Vddz2Z8v3A4r7ZPTQj2B2PbLvqpb3fRkTQOwHN8rx+M4Bt+EdMXt4Dkjva0cPiO8L011CY2rdp+DaS9aTbOXf3Dv62O8V6uXIej9Zr5kx16G7fmQ1MFsJIL7j8P3CZzdi3cX35OC89yzK3se8uTfuL8ix5zN0Nxw9l3kN8nYGkJi6kTVMTvbfXVfPW+hzHDrerPLN2g/76dahumHPYwh9jkPll1f+dgiJ/WzlHa89LLBoANEnU7vb1F+YQ2XU7HUnbz1f+YWumWXdBSt0hy4pg7zngJQdQJqtf1mytiffcWXPARFSd0LlKte3onMu3PcLfY6y6l7oLmNyPciaFJ91d7JQT0zWOvIeWcPo9PoU6uWyf3zJIscUOu+hp5zHtqdC1w2tn81ej+aqhB6QevaA6K8qzUzGlg+R/sKc9Rq5SMsFRT6U8l95r7xx8HrnC1ns24Jm3cFEtln0vXzr6a2Hm334nnt3IT2OrDuv6HnIaiTElLW+JtR1HDofzb5nEXZPVWzZarnovsq+x6yr62lZ6DqhctaLfuydcVy6fmyA0dfH1A2X/lpuB8bQF19evbL3Q+/wk9fjp09Fzvss2vVftu17grG7H7FlUGTbofW0IRf7+YstD/euOFmhqIzrVd56WecptvzzrvWyvpwH+3zI/uh67jUmtl6G/j3vmIrWvzx63dTPq113QmWXt4+hsrHJe9jHoK+NWde3LfsaYX/Pxl5bZRta72TJO8/usWodkffN+3FP64iuE/v5zKs7ut2YHxfdz1reekXbU+24Hs1FCQGkngEEqErMk4rRnLr9YgagmGZ6TYAqEEAIIEBbhe4Wg2w6HCPrl3Qt2zJvKw2gdxBA0K0SekDoAQHKZg/xiRl3i33Zd27RibDCnZjpm3QJAIIAgm6VEEAIIEDZ9I5KGj6K3FEMcTdZ0ImglC2AEAIIulVCACGAAGWTCXyxE/4QNyFSJ2XqxEXKFkCeZiauA1UggBBAAAAAgMoQQAggAAAAQGUIIAQQAAAAoDIEEAIIAAAAUBkCCAEEAAAAqAwBhAACAAAAVIYAQgABAAAAKkMAIYAAAAAAlSGAEEAAAACAyhBACCAAAABAZQggBBAAAACgMgQQAggAAABQGQIIAQQAAACoDAGEAAIAAABUhgBCAAEAAAAqQwAhgAAAAACVIYAQQAAAAIDKEEAIIAAAAEBlCCAEEAAAAKAyBBACCAAAAFAZAggBBAAAAKgMAYQAAgAAAFSGAEIAAQAAACpDACGAAAAAAJUhgBBAAAAAgMoQQAggAAAAQGUIIAQQAAAAoDIEEAIIAAAAUBkCCAEEAAAAqAwBhAACAAAAVIYAQgABAAAAKkMAIYAAAAAAlSGAEEAAAACAyhBACCBA7UzPzJiBPUPmd09vMQ8/+ntz30MbzX0PbZizy9rHnzbDwyOdLlYAAKIQQAggQK1sfWnMXLzcmJO+Z8xff8GYt3zImAUnze3lmG8Zs3P3cKeLFnPQzOiQmXjyHjNyxw/N0A1nm4GlH399ufBks/Mr/8X0n3f47N81fvyV9HXja1eayd3bOr3rAOYwAggBBKiNl1+bNEecNWP+7L3G9B3fI8sJxtzxSH+nixZziG6VXCUAACAASURBVIQHCRIaMppdJJxIaJl8+elOHxKAOSaZnDI7dzeMtMP79wybgcaI2TM4ahpDY2ZweNwMjUyY4dEkXUbGJtNldHxqdhmbmC5l6StrQ/bO6Q7LzsuByAHJIgcnBykHSwAB6mH7rsT89ee6IDCUuMw73piP/mOnSxZzhfR0SE9GK6EjK4xIqJEeFQDIQwChBwToeUPDo+bjl+zqeGAoe/mPnzHmxVcHO1286HITT96dBoR2BI99ljPekQYRAMhCACGAAD3v1ns3mX/70c4HhjIXGUa29HZjpqenO1286OKhVjJvo5Lg4ekRSZ5d1+kiANClEoZgDZld/YNmoMEETqAX7dy9xxz7nc4HhrKXv/2HSfPslu2dLl50ca+H9EZ0InzYy/DN3+t0UQDoQgkBhAAC9LJfPmjMn7+v84GhzGX/9xpz1U3PdLpo0aWk0d/p4GEvMtmduSEAbAQQAgjQs3YOjJn/6wudDwylLicY867TR01jkF5b7E0a+XJXquaDwklmYOnH0jkc7tL48ZfTf2slhHC3LACKAEIAAXrWGdcNdD4wlLy8+eQZs72feR/YV+Hb6p7xdjN4w1npcK0iPRQyt2P45gvM7vMOK/h+7yCEAEgRQAggQE96eOMu828+0vnAUObypvcY89VrjZmZ6XTpotsU6fmQ4DC29lelDIuS7RTpGZHJ6QzHApAwB4Q5IECvGRwaMZ9aasz8EzsfGsp85seB35zhtrvYh/RGxPZ4tOsWudKLEtsjIj01AOotIYAQQIBec8e6cfMXH+x8aChz+avPGvPY0zvNDN0fcO92FdPoX/qx9La87SQ9GzKkK2Z/JDQBqK+EAEIAAXrJ5ORUettd6f2Yy4sMt5L5Hv/zfzfm0DOMeeW1sU4XLbqMBIqYW+1KKKiSDMuKCSESngDUU0IAIYAAvaQxYswZP53byzd+Zsx5Nxpz+e3G3Ll+txkfn+p0saILxTxkUMJAJ8hEdRnyxXwQAD4EEAII0FNkiNLU9PScX6anZxhu1YQnnnjC/OVf/mX6316WNvBzwsfofcs6uo8xPSHtmpMCoLsl9IDQAwKgmOnpaTMxMWGGh4fN4OCQGRoaMsPDI+l/G43BUpexMYZexZLQ8Za3vMX09fWl/+3lEDKw9OOlD7uSORwTT96ThgK5q5a8h/SyyP+Pr13Z1BwSCUF5t+blrlhA/SQEEAIIgDgvvPSa+fV6Y37wa2M+fLkx/+cXps2/+8ig+Q//faf5m89vM//rh18y/9MJr5j/4YSd5n88sWHefNKoefPJ0+lcjmYWmUj/nV8akySTnKIIEjj+4i/+Ig0gvRxC8no/5G5URZ/rETOc6/XJ7B9Pw0gR8hBDekEA2AggBBAAOV7aMWKWLN9l/u4bJn22iEwS3++YITP/sD+YeYc+YeYfutHMP+xpM++IF8z8d79i9jvqNdN39B7Td+yo2e/46abvfPWfv2jMxmf7OT8F1CGE5DXoJVDEkJASGzx8QST2yebyPpnzQc54R4slAmCuSegBoQcEgJ/c8Xb9M9Pm33/MeabIUbvMgoMeNvsf+JCZd/A6M+/QDU4A+aOZV0IA+ccVL/fsPJAtW7aYc889ty3L8ccfPxtAei2EpI35jGAg4SSGhAd5KGAz4cMODrF3spJhXN04WR5AZxBACCAAPHb1N8zpV75g5p3gPBDw2BEz76B/MfsfeI/Z/8AHzbyDH7V6QJ6f7QFpNYBI70djaKJnz8299967V0ho99IrISRvTkXMPA0JHzG3741dYsJDXi9IbHAC0BsSekDoAQGwt6GRSfOJfzTmz9/neSL5Ec+bBQt/YxYsusfMtwLIfoeXF0De8iFjHvpDb5+VqgOIDMvqhQAiDxQMD4v6WFQQkCeRlxU+tCckZjhW3hPbAdRHQgAhgADY22evfP1BgPuEgxOMWbDoLm8AKa0H5ARjvnDN6w9U7GUyBGvx4sVtWY477rieDB+i1Z6IvBDQ7CJzQqJ6XkqYuwJg7ksIIAQQAK+TZ29csuL1EOANB8eOmgX/7Vdm/gF3vDEE6yEngLQ+B+SvPm/Moxue45SUcCveXgsfeXe/yht+lT45vQ3hQ5eY+SBZw7B4JghQHwkBhAAC4HXrn2mY//SFcDjY7+jdZv67brECyIOlTkKf/x5jzrhmhxkbH+eUNKGXw0feg/3k1rstP5Ojgl6QrDt4MQ8EqI+EAEIAAWDM6OiYOeWnzt2u3AByzKDZ/123pEOw5h/oG4L1p9vwNhNA/vfPGLPttRFOR5MGBgbMW9/61p4MH3l3koqZ/5E390O2EXtXq04dA4DekBBACCAAjHn62RfN//Lx7ICw3/EzZv93rWzLJHTp/bjuzviHxyEcQhYuXNhz4SNvAnrM8KWyn5zeDAk4WfsBoB4SAggBBIAxF/0qY+6HHRQOecwsOOA36RCssiahS6/LZ35U77MggWHRokVpgED5ASRv/keRJ6e3cx4LgHpICCAEEKDupqZmzH89LW6Y1Lx3bzcLFq4ubQ6IhI8TvmPM1m17TF3Zczf+5m/+hhDShgCS1fAfuPCkdpzWwvtBAAHqIyGAEECAuhsdnzFvPnkmKoDsd9yY2f/gR3IeRPhH05cXQE4wZt7xxixZYczuxpipq16fON4tASTzCepnvKOyYyCAABAEEAIIUHuPbBqPGn6ly7//0A5z+KkbzDFnP22OO+dZc/ziF8xx571o3vPtP5oTz99lTvruHvPe7w2Z910yaU6+dMa87wJjPnChMR+82JiPXGbM56815ns39pudjaTWZU/4qPYhhFk9DzEPEixD3p24ANRDQg8IPSBA3X1/5WB0AJGJ6P/h49Pmwd+NpQ8L3GuZms5cpt5Y5HkjdeeGD1mOP/54c+6557Zl6QWtBpCsW+D2n3d47nNEysDT0AEIAggBBKi9U6/ujwogEj76jpsyfccl5tglE4YcUV74aPfSC7JuYRszjCrrOSK6jeGbv2cmnrzHJM8+2pYl71bAAOohoQeEHhCg7s756UBuAJHwMS8NHxNmv2PHzLxjR8x9T06YmRl6M5oJIDLXgwBS7vClvGd4yDwQeWBhZgjp8AKgHhICCAEEqLurbx/KDCCv93wkpu+48dcnlh8znD6U8D9+qmFe3jHY6d3vmRBy3HHHmcWLF7dl6QV5E7hjnuWR9xyOTi8A6iEhgBBAgLrb/HLiDSASPPY7bjoNH/sdO276jpHwMWT6jmmY/Y4eMG86Zrc55ye76QUpKYTIsCzugJUtq/Eu8zhiSFDpdNAggAD1lhBACCBA3Y1MGPOWD2WFjzHTd8yIFT76Td9Ru9IHDv71J3eZdRumO30IcxYhpLyJ6LLIPI8ytkMAAdBOBBACCFB7cleqQxY74eP4SSd8DJq+Y/ak4WPeUTtff9igPJTw6G3m1GsHzPQ0IaSMEPLWt76VBxG2OJE89qnmeXekogcEQLsQQAggAIwxP7vv9YcDpg8OPG7K7PfGZHOd7/F6+Nidho++d//RzDvq1fShg/OPfMm85YQXzYZNOynHFkPIwoULCR85Mh8oGPlQQndOSDdNTAdQDwlDsBiCBcCYl7f90fzt6ftONtf5Hn1H7U6HXPW9e4fpO+pV05eGj61m3hEvmP2OeM78P597kWJEJWLmcBR9sKD0rKTbPePtBBAAbUcAIYAAkIthMmm++4vd5s9OmngjfPxpsnnf0btmw8d+R24zC4542exnhY95hz9j5h2+2Vyx/BkmpKPtJFzk9iac8Y6mHywo25c7bpW5SMBJh3zlBBwA9ZDQA0IPCIDXbd222/ztP+w72TwdcvXu7Wb+G+Fj3hFbzLwjnjcL0vCx2cw/7Gkz79CnzH/9/HNm8/PbKU60XcwkcnnoX+x8kKrI/gxceBIBBKi5hABCAAHwJz+5fYfZ79jB2cnm6ZCrN8KHzPfQ8DH/iGfNAit8zD90o3nzkRvM+T97wSRJQpGiraR3I2ZORbeGkFBPCIB6IIAQQAA4Dj9nyMw7+o3wMTvZfKuZf+QWM/9wHXK1ycw/7A9m3mG/M/MO2WjmHfqEmX/IevN/fGSjefFlekHQfjLZPGpytwzHKjgnpN0aP/4yAQSosYQeEHpAAOxt4+bXzL/74Gvpna7mvfvlvSabS/jY7/CnzbzDfm/2O/R3Zt6hG8z8Qx5Pw8e8g9eZeQevNd/9p1coUlQiaziTG0KK3B2r3UK3AAZQDwkBhAACwLkwJpNm8bJB86ajdb7Hn8JHOuQqDR9PmnmHvB4+5h38aBo85h30L2b+gQ+av/rgOjOR8FwQVDQUq8Cdq+Rp6XLr3U6ToWEEEKC+EgIIAQTAvh773fPm//6UBJAXzPzDdb6HDLl6Kg0fCw6RIVePmfmHPGrmH7TWLDjwX8z+Bz5oFiy637zpoHvN4OgUxYruuSuWZ27I6H3/1PSdslohAYi7YAH1lhBACCAA/M7/8Xqz4Mhnrfker082n2eFjwUHPZKGjwWLHjALDlxj9j/wXjP/wHvM9p0jFCu65wnpGUvjx19Jh2clzz7a1rkiMvk8b94KgHpICCAEEAB+r+0aN//pI8/vNdncnu8x/6BHzPwDH5oNHwsW3WMWLPqt+ddH/tYM0wOCToSQkh4kKEO1BpZ+fJ+hUvL/6d8XXGR7Me8LoB4SAggBBEDY5lfGzf6HS/iwJ5vrfA8JH/ebBQfeZxYsujsNHwsWrjb/7yceNpNTMxQrOjMcq8NPM29lAVAPCQGEAAIgbGZmxnz4u1vNgkMlfOw92Xzv8HGXWbDwN+ZfHbTa/NOvf0+RorMP+4t4UGE3LgDqISGAEEAAZFv7u1fMX3/0d2b/g3W+x4Oz8z2k12P/hXeaBQf8xrxp4e3m4C8/bHbv7qdI0VNDsgggAMpEACGAAMgxPjFhvrj0ObP/IQ+b+QfJfI/7zP6L9g4f+x9wm3nLYbebH9/xgpme5ha86A6zE7/nSBABUA8JPSD0gADI98JLu81ffXD9G0Ou7nljyNVqs2DhHWb/A35tFhxwqzn2tIfN0PAoxYmuDCKj9y0zu887rOMhI7TIsDEA9ZAQQAggAOLmgnz/ppfeGHal4eP2N8LHKvOvFq40t63ZQlFiTkxUl16RbponIsGoE88kAdAZBBACCIBIo6Nj5sjTHt8rfOz/rpVm/3f9ynzl0g1mcoqHD2LukYZ/8uy69AGBEkyqXuR9pYcGQH0k9IDQAwIg3gMbd5p/fejqdMjVggMkfNxs/u2Rq8zA0ATFCABABAIIAQRAAUPDI+aLl2wwf7ZoVRo+/vygm82VK59Lh2gBAIB8BBACCICCHnj0efO/vecOs/9/W2EWfe4es+WVnZQhAACRCCAEEAAFyW12/+GSu82fH3ijWXbLOno/AAAogABCAAHQhFdf22NO+If7zCC33QUAoBACCAEEQJP693DnHgAAiiKAEEAAAACAyhBACCAAAABAZQggBBAAAACgMgQQAggAAABQGQIIAQQAAACoDAGEAAIAAABUhgBCAAEAAAAqQwAhgAAAAACVIYAQQAAAAIDKEEAIIAAAAEBlCCAEEAAAAKAyBBACCAAAAFAZAggBBAAAAKgMAYQAAgAAAFSGAEIAAQAAACpDACGAAAAAAJUhgBBAAAAAgMoQQAggAAAAQGUIIAQQAAAAoDIEEAIIAAAAUBkCCAEEAAAAqAwBhAACAAAAVIYAQgABAAAAKkMAIYAAAAAAlSGAEEAAAACAyhBACCAAAABAZQggBBAAAACgMgQQAggAAABQGQIIAQQAAACoDAHECiDbt283r7zyCgtlQB2gDlAHqAPUAeoAdYA6QB14pT1lsPXFF82TT20y0g7v3zNsBhojZs/gqGkMjZnB4XEzNDJhhkeTdBkZm0yX0fGp2WVsYrqUpa+sDdk7pzssOy8HIgckixycHKQvgKxfv56FMqAOUAeoA9QB6gB1gDpAHaAOrG9PGTyydp3Z+LunCSASQGZmZlgoA+oAdYA6QB2gDlAHqAPUAerATPvKYCKZNK/t2kMAkQACAAAAoL2YA8IkdAAAAKAyBBACCAAAAFAZAggBBAAAAKgMAYQAAgAAAFSGAEIAAQAAACpDACGAAAAAAJUhgBBAAAAAgMoQQAggAAAAQGUIIAQQAAAAoDIEEAIIAAAAUBkCCAEEAAAAqAwBhAACAAAAVIYAQgABAAAAKkMAIYAAAAAAlSGAEEAAAACAyhBACCAAAABAZQggBBAAAACgMgQQAggAAABQGQIIAQQAAACoDAGEAAIAAABUhgBCAAEAAAAqQwAhgAAAAACVIYAQQAAAAIDKEEAIIAAAAEBlCCAEEAAAAKAyBBACCAAAAFAZAggBBAAAAKgMAYQAAgAAAFSGAEIAAQAAACpDACGAAAAAAJUhgBBAUFO7du0yzz33nPnDH/5gnnnmGbNjx45O7xIAAKiBZHLK7NzdMNIO798zbAYaI2bP4KhpDI2ZweFxMzQyYYZHk3QZGZtMl9HxqdllbGK6lKWvrA3ZO6c7LDsvByIHJIscnBykHCwBBHWydu1ac/nll5v3v//95j3veY855phjzJFHHmmOOOII8973vteccMIJ5lvf+pa59957zcTERKd3FwAA9KCEADJkdvUPmoHGcKfPBdA2a9asMZ/5zGfMIYccYt72trflLocddpg5+eSTza233spZAQAApSKAEEDQ48OszjnnnLSXww0YRx99dBoyvvjFL5oPfehD5thjj017Qt7xjnfMvm7RokXpvz/77LOdPhQAANAjEnpA6AFBb5LQ8NGPftS8853vTMPE29/+9nSI1Q033GCef/557zqvvPKKuf3229P1Fi5cOBtEZD0ZvgUAANAqAggBBD1o69at5n3ve99sgDj88MPNsmXLTJIk0dtYvXp12iOi25Aek/Xr17d1vwEAQO9L6AGhBwS9RULGl7/85dngcOihhzYdHKSn5MMf/vDstk466STz6quvlr7PAACgPhICCAFEGqfawPzUpz4V9bqrrrqq0oqKeNdcc83sPA6Z6/Hkk0+2VHwSOGSuiJ57uUsWAABAswggBBACSA954YUXzIknnpgGhYMOOii9nW6WjRs3mp/97Ge5PSRPPfVUGmZku3LrXuaDAACAZhFACCAEkB5y6aWXzvZUnHnmmblDtT75yU+mr5VngPT392e+/sorr5ztWfnqV79a8p4DAIC6SBiCxRCsModgDQ4Omsceeyxd5M8xNm/enL5e/htL3ydrnaL7ovshSxG6nu89ihzXtm3bCpeDbXR0NL2Vrs772LRpU+brR0ZGzKc//en09TJh/bXXXst8vQQUvZ2v9IJs2bKlqf0EAAD1lhBACCBlBBBpNGtj1l7k70INatmGNGTt18v/+4YNyX7p/sn25PkU9v7a+yZ/XrVq1exr9HkW8neh/bBfq8u55567T6hw98Pef/s9fO8fGg4lf++Wg7y+6DybdevWpcFD1v/Yxz4WtY7MD5EhWLJuDJn/ocO7eEghAABoBgGEANJyAJFf7u3Gttyu9QMf+MBejWk3hEjjPutJ3PKsCl/DX7ZrN9Z9AeTiiy8ObtcNAe5r7WdfaIDy7Yf81z5Ge5GyCb2/Ww5ynFnlIOUUa/ny5bPrXXfddaYd7r777vR5IkX3DQAAQBFACCAtBxC7wW0HB2lsa4N+8eLFs38vIUBf/7WvfW22l0GCjN2ol/93G/4aEqSHQfZHG/T2vun+yfry7/Ie+veyfSX/bv+9vp/sj/1+dmiw/17WkX+T9eT47PeX/9f3t9dxg1vo/e3txd5C9zvf+c7sOvfdd1/UOhJUPve5z6VPOw89nNAmw7r02SCyHgAAQFEEEAJIywEkq7GsDXSbBgIJEu4QJ7tRbr+H3Yj3NcizjkHeww4H7r/Juu5+2D0T9tAtez/c4wq9h5SBb9/s3hd3W0LDm5RXDC1XGYb1+OOPR60jTzyXdQ455JCoACK35NVhXnaYAwAAiEUAIYC0HECkgW4Pt7rkkkvSX+B9jWph/+qvk77txZ3f4Tb8i+xb7PpC31/Wt3tiQkEodFy+MvT9mz2szFcOug8y5KxIAHn3u99tnnjiiah1PvOZz8w+KT0mgGzfvn02gLz//e+Peg8AAAAbAYQAUsokdHcIkh0yfv7znwd7I7KWKgKIrHfqqadm7ke7AkhsOWSFJtv5558/+/oHHnigLQHk2WefTV8r68i6AAAARRFACCB7hYJWbsMrQ41kWJHdSNdF/l7Zk9VlO6ElNPSpmX3zre/OG5HX6PvavTrtCiA6xCqvHGLvhmUPG1u2bFlbAsj9998/20P19a9/Peo9AAAAbAQQAkjKboiHnplh93K4d6nysRvxdoNdG95ZYcfVjgBiH497d6oqAohuK3aIVZ6HHnpo9mnlX/jCF9oSQC644IL09fJAwptuuqmEvQYAAHWT8BwQngPiNsZl2JQbQtwwYf+7NNDldrUylMllz6WIafjLdnVb9i1z2xFAsrZpD8tqVwCxeyzcQCflIPsgS+j5Ja6BgQFz4oknpts76qijzIsvvlhqABkfH5+9BfLxxx+f+6BDAAAAHwIIASQlE8Z9z8CQxX1IXtb8D2kw6yRqmYzua3jbt+fVB+7J62WuiP1e9t2u2hFA7LtQ2fvtPqOkXQFEQoYMv9J/k/KS95cH/NnBLTaAuLfiveyyy0oNICtWrEh7PuT1n//856P3CQAAwEYAIYDsFQzsBrFv8TXupSEdeiifznFwezqkd8MNPDEPIiwzgPhCly52OGlXANEyzyoH+/kpMZ566ilz7LHHpuseeeSRaaDJoudN9iErgEhvivSq6F227rnnnkL7BQAAoAggBJB9woT84i63dJXGsi7SIA/dVlfJevY6sg0JEqE5JbI9ady77+N7zodObg/NG9EH/sni6zEIrS/7Zv+b7LM+4NC3vaz9sI+hyL/JPkg52eUgwSP2AYSuCy+8cLanQoZKvfTSS8HXPvzww+bmm29Ol+npae9rRkdHzSc+8YnZUPTlL3+5qf0CAAAQBBACCHrM7t2702d0aGD48Ic/bF544YWmtrVnz540lL3zne9MtyW9K25vFgAAQBEEEAIIetDGjRtnh2LpcCx7Un8MeZihhBfdhmzv7rvvbts+AwCAeki4CxZ3wUJvWrdunTnuuONmA8QBBxxgvvrVr5oHH3wwHVblMzMzkwaPM888c/aJ5zqP54477qj8GAAAQO9JCCAEEPQuuVWuzN848MADZ8OETDiXHpHPfvaz5uyzzzbnnXeeOeecc9JwIhPMDz744NnXylySk08+2TzyyCOdPhQAANAjEgIIAQS9bXJy0ixfvjztxdDJ6XmLvE6eKfLDH/4wnVMCAABQFgIIAQQ1IUHilltuSZ/hIfM5pBdE54kcccQRae+HhJS///u/T5/JknX3LAAAgGYRQAggqGkYkYnqa9asMXfddVc6Qf3xxx8327dv7/SuAQCAHpcwBIshWAAAAEBVCCAEEAAAAKAyBBACCAAAAFAZAggBBAAAAKgMAYQAAgAAAFSGAEIAAQAAACpDACGAAAAAAJUhgBBAAAAAgMoQQAggAAAAQGUIIASQXBMTE+bZZ581jzzySPrkbBbKgDpAHaAOUAeoA9QB6oC/DjzwwANmw4YNZvv27VW05eekhCeh8yT0EPnwXH311eaUU05hoQyoA9QB6gB1gDpAHaAOFKwD5513nlm5cqXZtWtXpQ38bpcQQAggri1btpgrrrgi/eAsXrzY3HzzzWbjxo1pkt+zZw8LZUAdoA5QB6gD1AHqAHUgUAd2796dtqXuv//+vX7Ive222zrS2O9GCQGEAGJ7+OGH0w/JmWeemXYhAgAAoHnyA+6yZcvS9tX3v/9902g0al+cCQGEAKIkcMiH40c/+lGa4AEAAFAOmUsr7ayLLrrIDA8P17pYEwIIAUQ8/fTT6YdCugoBAABQvieffDJtb1111VW1Lt6EAEIAEd/97nfNt7/9bTM6OtrpOgkAANCzZG6IhJB7773X1FVCACGA3HPPPekHQSaaAwAAoL2uvPJK841vfMMkSVLLok4IIASQ888/P73rFQAAANpv8+bN6Y+/db3hT0IAqXcAkdvEyQfgoYce6vSuAAAA1Gr4+w9+8ANTRwkBpN4BRIdf8YAcAACA6vzyl780p556ai2LPCGA1DuA/OIXv0jHIAIAAKA6MvpEfgR+7bXXalfsCQGk3gHkuuuuS+9+BQAAgOrIzX8kgGzdurV2xZ4QQOodQK699tp0EjoAAACqfyaIzMetm4QAQgAhgAAAAFSLANIwuweGTP+eYTPQGDF7BkdNY2jMDA6Pm6GRCTM8mqTLyNhkuoyOT80uYxPTpSx9ZW3I3jndYdl5ORA5IFnk4OQg5WDlwOkBoQcEAACAAFINekAIIPSAAAAAVIwekAY9IMwBAQAAAAGk/egBoQeEHhAAAICK0QPSoAeEHhB00ssvv2xOO+008/jjj3MiAACoAQJIgwBCAEGnA4jcio8AAgBAPRBAGgQQAgg6iQACAEC9EEAaBBACCDqJAAIAQL0QQBoEEAIIOokAAgBAvRBAGgQQAgg6iQACAEC9EEAaBBACCDqJAAIAQL0QQBoEEAIIOokAAgBAvRBAGgQQAgg6iQACAEC9EEAaBBACCDqJAAIAQL0QQBoEEAIIOokAAgBAvRBAGgQQAgg6iQACAEC9EEAaBBACCDqJAAIAQL0QQBoEEAIIOokAAgBAvRBAGgQQAkh3e/75581Tv/+9eXT9+vTPebZt25a+Lmvp7+8vbb1uDiBr1qyJWjZs2GDqZGxszGzcuNGsWLHCXH/99emyevVqs2PHjtLfS7a5atWq2feRP8t7t5OeV/eYly5dapYsWWI2bdpUyvsMDAyYiy66KF3aUXbdRMtUjrmZMvKVu+88IdvWrVvTMpP/AnMZAaRBACGAdKffPfWUOf+7F5jTTv/6MXWsNQAAIABJREFUXss3F59r7n/gweB67ut9y+o77yptvW4OINLoiVmkYVwWaehK46BbG6SyX9oQ9y0SRMoi2wq9z9VXX52WVTvoe9jknJR9jGvXrp3dpvx5LtWDovQ4izZ87XJ3w4bvPCGblKGvLIG5hgDSIIAQQLozfOSFgZWrVnnXJYD8id04lIZQaCmzkagNrjJDTVnsXgAJAPKLtPydHL82bHyN6WbY25MGv5a19DZdccUVs/vQDqGGrRzXypUrSw0+cpxyfO42u7keVBlAtIx85U4AKY4Agl5BAGkQQAgg1RgdHZ0dyiTDnbLYPR920Lj/gQf2ChjukCj5f/23XyxfYZ57/nnv4q4n+9PMenOlB6TK4Qrd3PCUxr/smwQAXyNcf9GXkNIKGXajZe8b3ibvLeGjrLDj6oaGbTfXg275LHXDeZprCCDoFQSQBgGEAFINacBrI/+HV14VfJ0dBiSIuCQg6L8/+uj64HsUGS7V7Hp1CiDSSxDTW9JMw1N7B4r+Mi8N/SI9ODokKmv4hpZZ0bH+vkbS8uXLc8up1bDjK7tWG7bNno92BhCtf6HzovvcTP2JOde+z1Kr5RR7nvKOvZPnuczyjjmHvgDSbPnoMMFmro/tOieoDwJIgwBCAOmuAJL3OgkIobBgD92S7cRqdr1eDSD2l7xvzoT8v7tNe6x7zBwT+eKWCdm+14YChb5GGg72urGN3CIBpJVGmQSPmHHqzYYd9/jdOQahhq2UU6g+hLap80VC67rvVbQe5IUXKRt9b3s7en6kB0knedv7nHX+ZB23Tss2YuqFDqNz3zOm3uaVXcz5kPdppsFsv5eUj7v/8l6+MovpcfAdh30OZbtZ59BXnqFz6F6btCfRvjbl3WRB9s3dn6wysI9F3tNel7koaBYBpEEAIYB0VwCRoVr6uksv/8d9/l2GZIXCgh1O9N9ke3maXa/XA4iMW5eGgQxZkka1fPFeeOGFs9u1G1z6xawNAnmdfYcpm7xWGxzyOtm2LDo3InRXJX1f2S/5r7yXb/t5Q7BCDWFtaMh+tEIbKHnDq5o5P/ZdlbSMpTy07OyJ4aH9ct/PHhKm5SPb1L/Tu3jFNKKL1IMQu8EnDUrZhuyP3fCTP+uxynvZ+6t1xMcNrr7t+tgNY60jWm/1M5FXb2MDiJxjt/zscyxL0TvX2Q3mIsdeRgCRY4k5h1KWeedQ90dDlF0+9rqh/dVrgJ5D3Sf7HGbNZ9LgqnW6bncQRHkIIA0CCAGkuwKI+MlPfzb72jvvusu7Dd/wLDtI/PRn16d3zLLvnmVvK3Y9eZ/Qer0eQHyNALux6msgxAy9yVpfw4VvaJLukzQWmh1WZjeq7YaGbC90u9SitJGa1eC254kUmQeiDTjfXbTs8FEkgMjtiHWbbm+M3WAr0ohuZQiW3YsijVL7OKWBb++P2wC09zdUPr76I8etjVBf49V+T99nIqbexpadniffxHU9Pl9DOYv92XFDkl1m7j62GkB8dVXe3/4hI+scuvXRvjb5PgNZx2KHd/c97V4at866x8KwK5SBANIggBBA2sN9robcOtfu2XCfsWH3OMifL73s8r3Cgz0x/exzFnsnskuwybsLlgSMstabKwFEGttZzwEJfcmHegKkga6NoKINz7xeCKENAbeR0Oyvv6HGojYotFEixxsKH3nPUgmVT6ixoo3+vMadTRvf0ngLNT7tY4sJIHYQCu2r3eirOoD4jlOHuIXuIqY9Be6+5gXMrPfN6iVw3zdUb2PKTutOVi+cHn+R4JpX17TeuP9eRgDx1Su7FzPrh4JQIIqpr+4crNAxKjnnGozskJZ3LEAzCCANAggBpD1iGvX24g6nkv+3eyLsxZ187hueJX/Wu1fZf+9bv9n1euU5IEV/9ZQv6mYbntp4yupl0JDi/tKc1SiNJftnN/598wB8288rw1ADSv5rl689tj/rF/e8oXFZx1ckgGivQNaEeTukVBlAQuvaw3B8fMcZO7xOz1sz4TdUlkXKThvJWe+jIaVI2ep7heaphOpWqwEkFDDy6nKot84eQhZTX30BNOv6oeVvh7u8YwGaQQBpEEAIIN0XQKShb/d2yJ2vJAzYvSC/WLEi+N6+3hH7Fr6+uSWtrDfXnwPifiE32+iIaTzqGGppPIZ6E7SB7m4j9J6x7OE70tDQxpgcv/18DgkovuPKWrLG8Wu4cce3aznH9uiEeoZcRQJI7G1NuzGAhPY56zizwlvWtkPHH7PfRcpO9z2r11I/H0XuoJb32Qk17MuYA1LWOYzdH+H2ZNg/mmT1ZOr72tvvtVtKozsQQBoEEAJIe0iIkLkVuti3z5UgYf+bLPqMDftZHvI6d2iWHWyK3rHKDjxVrDfX54C0I4Dk9STYS9kBRMNPaOiKNFJCw2iaIduToGWPd5ft67az7krlE/v6IgEk9o5dsZPQuz2A5B1nqHdFjzPr13Pdb3doYjMBJHaJVbcA4q6fdXc230IAQbsRQBoEEAJId01CtyeES+9D1nZksnoR9rySKtaLUdcAIsNI8noV3OEirQQQu/cjS8yQpLJoj0jskDJtVOVNki8SQOrWAxIbQFrpAXGH6jQTQPJ6LUM9byF1CyD6Y4Our59/CYcx5WrP9aAHBO1AAGkQQAgg3RVAsm6z6/aQ2NuRv5e7VckS6hmx55S0ul5Z6hZAiv7qH/OeMWIbEWU0NmIecKfj1IuMK9fx6Vl318oKWr02B6RI4zV23kRogrcdnENCN1goUnYxc6Sa0a4AEppz1O4AklVf7eFWZTygkwCCdiCANAggBJDu7QGRMJL10EB7O/YT1H/k2b47tKvV9cpStwASe4varIngzci7s5K7f60EEPvZBkUmu+bRRnTW2H/7LkFz/S5YZTZe7UZp6DjlNTpR2X2Nrps1hyT0/JciZRdzlzjZz6J3Y2o1gIQa/KH61u4AknUbYi1D9/MX04Pom6RPAEE7EEAaBBACSPc+CV16HuxeCQkDMhE8NETLnqQut/3d67a+1npusIldz33yehl6NYD4btGb92u6+5yR0J2ImqXzO2QSr4/9gMRW5oDYx+jbjjaQsm6nm3ebUF9wsfc/NoC4t7V1G7b2szOaCSChepClXY1XDX2h7YZufmAfpyy+Rqp9TkPhJabs7HMcqoO+idLtCiAaen0NdzmeUH1rdwAJfY7tEOmWX97tse3PD0Ow0G4EkAYBhABSDQkPOuE873a27h20JAT8yP27yy7f52nldu+I9li467kT21tZr1eeA1LWvf/dBpQ0ImQbeY0IHXe9cePG2bHbEhZCz2Jolt2YkveR/di8eXPayLafkF3G7TbthwLKtuX/3fdpZpiNfQyyLdl/KTs5Fmk8aZho9Uno9lOf7bsDxQaQmHoQ0q7Gq71PcmxS37Te6Tq+AGEfp4QYKWfpKdN6a59T3z4V7T0KnWPZT/sJ6UV6QZoNIMKuG3ot0VtZd6oHxH5ooJaPfL40QIQ+wxpC9Zbbeg718+PbZ3pA0A4EkAYBhADSfaSh7z6Dw14koITCgIQJuXWvbz0JLXq3rSLryfuF1uuF54C4jYdWAoh+Ydt3fvI1QuTXSfs19iKvz2oEtkL2TXtCfIs0LFt5zojNbpzZixx3K2P8Q2WnT4YuGkCErCf7a29X/qx1oGgAEXKMefXAp12NVyH1KnSnKakXoedk2McZWj+0P0UDSN7nI2s/2xFA5L18nxkdjtaJACL/tZ967l4/YoZZ+hYJ8O66BBC0AwGkQQAhgHQvafTLMCv7dr2+Z3WEAoW9Xuwte931Yt+vGwNIzN1efHfTiZlEnXcXHvkSl18kpaEQamzr8zfsnpishlXRO/9kkfex31f2o6zgESqHMt/Ht928cpJjlr+PeX/3NaEnU+edE6lDefXA996+u6DF1s+Y49RfvXXJ2zf3OOX19voxnxVfwzavPrufj2aDa8x5yipzd1/cIUq+3qZ2nEN3PfmvXT6x1we7Xsoifw7ta96xAM0ggDQIIAQQdFI7AwhQFv2FuB0hDQDqhgBCACGAoKMIIOg0HTsf+oVXh73IMBwAQOsIIA16QOgBQScRQNBp9sRce3K1O8G67GdTAEBdEUAaBBACCDqJAIJukDUxVyZDt3JbYgDA3gggDQIIAQSdRABBt7An5srdgNo5OR8A6owA0iCAEEDQSQQQAADqhQDSIIAQQNBJBBAAAOqFANIggBBA0EkEEAAA6oUA0iCAEEDQSQQQAADqhQDSIIAQQNBJBBAAAOqFANIggBBA0En9/f2zCwAA6H0EkAYBhAACAAAAAkj7JZNTZicBZJAAAgAAgMrQA9KgB4QeEAAAABBA2o8ekIEhs4sekAqqGgAAABQ9IA16QOgBAQAAQFUIIA0CSF0DyHXXXWe+/e1vd3o3AAAAamXjxo3mlFNOMVu2bDF1kzAJvd5DsH7+85+bs846q9O7AQAAUCuPPPJIGkB27Nhh6iYhgNQ7gNx5551p5W80Gp3eFQAAgNpYuXJl2gabnJw0dZMQQOodQJ555pm08q9fv77TuwIAAFAbl1xyibnssstMHSUEkHoHEPHNb37TXHPNNZ3eDQAAgFp48cUX0x+A77rrLlNHCQGEAHLbbbelH4Lnnnuu0/URAACg511//fW1HgKfEEAIIKOjo+lE9Msvv7zT9REAAKCnPfHEE2n4+PWvf23qKiGAEEDEunXr0g/D8uXLO10nAQAAenbo1de//nVz8cUXmzpLCCAEECVJXELIP//zP3e0UgIAAPSazZs3m7PPPjtdXn31VVNnCQGEAOKbDyLJ/Omnn+5YxQQAAOgFSZLMtq+WLFmS9oLUXUIAIYC4HnvsMXPuueemH5SlS5eaBx54IE3q09PTHamkAAAAc8nw8LDZtGmTufnmm803vvGNtE21bNmy9O9hCCC7CSBeU1NT5re//a05//zz0w+NLjJukYUyoA5QB6gD1AHqAHWAOuCvA6eddtpebadrr702DSP4E3pACCC5XnnlFfPwww+bW2+91dx4440slAF1gDpAHaAOUAeoA9SBQB246aabzJ133mmefPJJMzIykt/QqqGEIVgMwQIAAACqQgAhgAAAAACVIYAQQAAAAIDKEEAIIAAAAEBlCCAEEAAAAKAyBBACCAAAAFAZAggBBAAAAKgMAYQAAgAAAFSGAEIAAQAAACpDACGAAAAAAJUhgBBAAAAAgMoQQAggAAAAQGUIIAQQAAAAgAAyNjHd1DI6PjW7jIxNpsvwaGKGRibM4PB4ujSGxsyewVEz0BgxBBAAAACgOvSA0AMCAAAAVIYAQgABAAAAKkMAIYAAAAAAlSGAEEAAAACAyhBACCAAAABAZQggBBAAAACgMgQQAggAAABQGQIIAQQAAACoDAGEAAIAAABUhgBCAAEAAAAqQwAhgAAAAACVIYAQQAAAAIDKEEAIIAAAAEBlCCAEEAAAAKAyBBACCAAAAFAZAggBBAAAAKgMAYQAAgAAAFSGAEIAAQAAACpDACGAAAAAAJUhgBBAAAAAgMoQQAggAAAAQGUIIAQQAAAAoDIEEAKI2bx5s/n0pz8dXC655JL0NWifiy++eLa8AQAAelkyOWV27m4YaYf37xk2A40Rs2dw1DSGxszg8LgZGpkww6NJuoyMTabL6PjU7DI2MV3K0lfWhuyd0x2WnZcDkQOSRQ5ODlIOlgBizPr1683b3va23EWCCNrjU5/61Gw5AwAA9LKEADJkdvUPmoHGsKkrO4AcffTR5qqrrkqXxYsXmw984AN7hZAbbrih07vbkwggAACgLhICCAHEDiDSEHatWrVq9t+POeaYjlTUXkcAAQAAdZEQQAggeQFE2D0h7nyQW2+9da9/l5By7rnnmm3btnm3Ja+XuQ6xr//5z3++1/blz9JDY79ejkHnUEhgssn/h/7t3nvvnf03+bP7b6eeeqpZtGjR7PvKMDTfftpzOAYHB9Pj8Q2pso9FtqvD2gggAACgLhICCAEkJoDYDWR5vbKDhLtIA9sNK3bDPOb17hAwe5HgIo19If/Vv//a17621zbk/0PHJ8PM9N/sYFF0P+3ysbdpB5DQNuXvCSAAAKAuEgIIAaTZHhDphbAb/bIdWdy/V7Ke3Yuh25GehoULF87+vW/ol2xHXi9BQ+ah2I19dx8lINi0B0MXDS1CQozOfVH29mWbsn/ucdnhR9gBQstR59K4xyLHKn/vbpNJ6AAAoA4SAggBJC+AyLAhe5K6kkAgjXVtZNvkdW6D2m6Eu5PZpZGvjXJlN87tv9dtyTbsnggZBuWGJDv06KJDraTHQ/9O1nVDiQQFO2S4+2Qfgx1AfOVhBzj3WOzAw12wAABAr0sIIAQQO4BIb4H9DBBtjLuN9xBpsN9333179TqE3kfmgoTmffh6ImS7biCw2dvXcKCBQdbXkKBhww5Eelx2YLF7V5QdWuywZgcQ3z76Apzv3wkgAACg1yUEEAJIzHNApDfAncCt68ochqy5GqH5GHYYkW24PQPSkPdtVyet+x6OqEO5dOiXBgMJIhpodJiXPVfDPp6sngxhhyKVNYfDDjUxc2wAAAB6WUIAIYCEngOiiwQP36/6dg+ChhRpSEsPgx0cfOu5cyZ8Q6GEzvkIBRw3FGnA0Xkg9rAnOwjIdrV3x56nQgABAABoLwIIASRqErqPDrOS0OL2XsT+oq8TsbXnwp6/EXq93XPhTjh355loMFL6PvbwLnsuh10WviFY9t22QkOwYntNfP9ODwgAAOh1CT0g9IA0E0Ds3gTfUCXfHBBZR3tV3B4VewK5hhkNJzIJ3hWac2HP0dB9sHs4NLzY++fOQ9GQIq9pZhK6T9YkdLcnCQAAoJclBBACSLM9IPacDG3Euw/hsxvUdq+DvEYb9xJM7Mnuui27p8MOIbK/du+Lyx2uZQcFt7HvW98OGbKtxx57LN0n+25gElLs4JIXQOz31Qn4sl35r3ubYAAAgF6WEEAIIM0GELvXwp0L4rsNb2hSeSgsSDCxh2b5Ft9dudz9soOCPYTKN+dEheao6PG57xsz5Cx07LIuk9ABAEBdJAQQAkizAUQa89KAt0OCBA8JDqEGtazjzvnQngZfmJDw4D5ZXIdVuUOZQpPqs4JA1m2FJQzZQUrf1zdHJSZA+I5djk3+ngACAADqIiGAEEDKkPV8jjLXa/Z9AAAA0B0SAggBBAAAAKgKAYQAAgAAAFSGAEIAAQAAACpDACGAAAAAAJUhgBBAAAAAgMoQQAggAAAAQGUIIAQQAAAAoDIEEAIIAAAAUBkCCAEEAAAAqAwBhAACAAAAVIYAQgABAAAAKkMAIYAAAAAAlSGAEEAAAACAyhBACCAAAABAZQggBBAAAACgMgQQAki0/v5+s337dhbKgDpAHaAOUAeoA9QB6kCgDvzxj380IyMj7Wy/z3nJ5JTZubthpB3ev2fYDDRGzJ7BUdMYGjODw+NmaGTCDI8m6TIyNpkuo+NTs8vYxHQpS19ZG7J3TndYdl4ORA5IFjk4OUg5WAJI2ODgoLnnnnvM0qVLzWmnnWZOOeUUFsqAOkAdoA5QB6gD1AHqQEQdOO+888wNN9xgfv/731fYtJ8bEgLIkNnVP2gGGsOdPhdd5dZbb539AF144YXml7/8pVmzZo1Zt24dC2VAHaAOUAeoA9QB6gB1IFAHHnnkEbN69Wpz3XXXmdNPPz1tS1166aUEEQsBhACyl5deeikNHPJhuf76683WrVv3fgEAAACiTE9Pm4ceesh861vfSttWq1atouQMAYQhWJbnn3/enHHGGebMM880Gzdu5AMCAABQgqmpKbNixYo0hMiwrLpLGILFECyxe/du881vfjMdr7ht27ZO10sAAICe85vf/CYNIbfccoups4QAQgAR11xzTfqB2LJlS6frJAAAQM+68cYb0zbXk08+aeoqIYAQQJ544on0g3D33Xd3uj4CAAD0tJmZGXP++eebiy66yNRVQgAhgMhtdpcsWdLpuggAAFALa9euTX/83bBhg6mjhABS7wDy2muvpR8AuV0cAAAAqnHWWWeZn/70p7Us7oQAUu8A8vDDD6cB5OWXX+70rgAAANTGsmXL0hBSRwkBpN4B5KabbjKnnnpqp3cDAACgVu677770R+D+/n5TNwkBpN4BRLr+5OE4AAAAqP4mQC+++GLtij0hgNQ7gFx77bXpnRgAAABQHbkNb10fgZAQQAggBBAAAIBqEUAaZvfAkOnfM2wGGiNmz+CoaQyNmcHhcTM0MmGGR5N0GRmbTJfR8anZZWxiupSlr6wN2TunOyw7LwciBySLHJwcpBysHDg9IPSAAAAAEECqQQ8IAYQeEAAAgIrRA9KgB4Q5IAAAACCAtB89IPSA0AMCAABQMXpAGvSA0AMCAAAAAkj70QNCDwg9IAAAABWjB6RBDwg9IAAAACCAtB89IPSA0AMCAABQMXpAGvSA0AMCAAAAAkj70QNCDwg9IAAAABWjB6RBDwg9IAAAACCAtB89IPSA0AMCAABQMXpAGvSA0AMCAAAAAkj70QNCDwg9IAAAABWjB6RBDwg9IAAAACCAtB89IPSA0AMCAABQMXpAGvSA0AMCAAAAAkj70QNCD0ilPSA7duww119/fdSyYcOGyvYLyCP1kXoJACgLPSANekDoAanG1q1bzZIlS6KWNWvWlPq+sj35L9AMqT9l10sAQH0RQBoEEAJItQFEfkmuEo1HUIcAAN2EANIggBBAqkEAwVxFiAUAlIkA0iCAEEC6P4DIuvYQKh1WJcvGjRvN2NjYPusMDAykr1u1alX6vvJf3Y7v9bqObE+3nTVsS7Yh/y5zW3RdXU/+nMddX/4/9r2z9jlUHi55X11n7dq1Ufu8efPmvd7Ht46We2h78r72cTezfux+u9vKO0fyd7JNd9sEEABAmQggDQIIAaT7A4jODZGGtazvzhm56KKL9mnQaqPRt/ga96tXr/a+dunSpd7Gsn08Mkk5b/tZ68v25X1i31tIWaxYscK7z1IeoYn8sr2rr77au56UQWgd3/751pGGu/z98uXLvdvS7cg++Oi+ufuvNzHw7YOES1/osoND1jkKlaWWIwEEAFAmAkiDAEIAmTsBRBqaF154Ydro1V4Q+X9tLNqNUP13bbTKf0O/fmsviW5706ZNaUNa1/UFHD0eu0FdpAdE15f1ZLHfW7ZxxRVXzL63b3vaULfXk8ayNPy1vNx9lvKR7dnBSfZDjlXfzw0U8t66jmxb3sctezssyOv1/V32v8niHpfsnx02ffug5Sz7Ifuq++ALNBocNFyE6oCvLO26o+szCR0AUAYCSIMAQgCZOwFEGsnuL93y/76GsMr79Voam6Fti5UrV3r3276rV6jnIIu9fui9NUy47y37LMcsi6+HRPdZ/uvrnfCdA2mQy/akMW7vi5afr0dD3tv3b9qgl/20aS9E6HzpuXDDhAYB93iE7Ku+n3uO7V6w0Pm39ymrLAkgAICyEEAaBBACSDW0wS2/ZOc9B8SlDcDQsCIdPuVroOYFEG28hoZN2QHH/tVcj0fCQzPsABI6LrvHIDRnIWvbbllqWYQCU1YIKvLrv54P9310Wxo03POljX0JSm7IkXMQmtti1y3f8Wado9CQL9/5pwcEAFAGAkiDAEIA6b7ngLh84/Z9v2L7wktWANEGfl6I0F/g7UZqq3f1sssjizba7UZ5nlBPh5aTNNRjJ7nrtmSoWew6GhpkHZu8r5a1NOrdwKDD2exgpefPFy5tOoTM3kddN3SO7CFfWZoJYQAAhBBAGgQQAsjcGYIVagBnbTsrgMT2ymjD2N5GWQEkb/28ACV3o5KeBtmOO7nct217Irccl8x/ybpzlj3EKXYdOxBomNDj1V4R7e3QYU8aWtwwqK/La/zrcdnDvvICSBnnAACAogggDQIIAaQa3RxAYpduCiC+u3ZJr4JsLzR3RNmTzmPuJiV/Z0+MtxfZj6y5M9pzo/urAUF7Y/S4tKfFHbblCxaxvRQEEABANyKANAggBJBqdHMAafbZJGUEkNDtaJU23H0Na22wu+USu2/SOyFBQMJC1t2kbNJT4d5tS+4S5dJ5HjpBXXtRNKzo8CfdRw0a7rFU0QPiDhVz0QMCACgTAaRBACGA1DeA6BwQdy5CjDLngGQNZfJNkvbNSWl13yRYaAgpOtfDnbehdJ6HGzbcY9PzIK935T1XROlteu07WRWZA5J162Qtb4ZgAQDKQABpEEAIIPUNIHYjOGuSt/xbs70MMQEktG+hkOKbcG0LNbz1+R2hwOO7I5g+/byZc6O9JL67W9n7GbptcMydwOzhXO78kbwAEhMu7PcngAAAykAAaRBACCD1CCB5w3BCd4ayn6DtPuiwrADie9ChPfk7dDtb3+107e26+6bryVyP2N4MDTu+gGY/Q8MXatynj7vHaL9n1jwP3W/3GSW6De39CAWcrHOkQ8V89cudgE8AAQCUgQDSIIAQQLrvOSDu0KJWAoj9C7aM9ZfXuA1he0K3/URzu/Hp7lOZk9C1gS1zKeR9JSDYT/52G91uyND9tZ/47ds3e5iVfZz6JHhfqLEb6PZ72XfTynqGhr4mdKtj3Z+soWh2EJBykf21jzfUexITQNyHDeox6jnQp6MTQAAAZSGANAggBJBqFLnjlPtLcysBxH5yeNYv2fIa312e5O98v8yXGUCkgW1P6rYb1aFGuXtMdoDI2jcJIe7terUXI+tp8UXKxqbvFXqOhzb+8+Z4SDnYQSFmv2MDiL7WLU85PikvJqEDAMpEAGkQQAgg9SENc1myJn3ra2Rxe0rK3he3cSy9NfreWZOi3e1ICMg7Lpccm32sse9VRdlkkWMsut/dsG0AABQBpEEAIYCgE1rtQQEAAHMTAaRBACGAoBMIIAAA1BMBpEEAIYCgEwggAADUEwGkQQAhgKATCCAAANQTAaRBACGAAAAAgADSfsnklNlJABkJDObXAAAgAElEQVQkgAAAAKAy9IA06AGhBwQAAAAEkPajB2RgyOyiB6SCqgYAAID/v727DZYlq+t832/nlb5zFG/ojTs6L+5MaOgodAs2OiFzYyauqKFOxDyIOj6MTzRGeLHtbuhGELDB2w2NV8AWGpBRhkAQEVTGARyHEWwebG0baGzopp/P2Q+1d+1d59Q5p/PGv85Zm7VzZ1Zl7V2VWbvy841Ycc6uh6yVq36Vtb611sosrmAEZGAExAgIAAAA2oKADAgIAQEAAAABWT6mYJmCVfzar5mCBQAA0CZGQAZGQIyAAAAAgIAsHyMgRkCMgAAAALSMEZCBERAjIAAAACAgy8cIiBEQIyAAAAAtYwRkYATECAgAAAAIyPIxAmIExAgIAABAyxgBGRgBMQICAAAAArJ8jID0fATkbW97W3HzzTd3XQ0AAIBecffddxcveMELiocffrjoG+MLF4szRkD6KyDve9/7JuE/f/5811UBAADoDX/yJ38y6YPt7e0VfWNMQPo9AvLpT396Ev777ruv66oAAAD0hte//vW9XYc7JiD9FpDRaDQRkHe84x1dVwUAAKAXbG9vT/pff/AHf1D0kTEB6beABG9/+9snH4LNzc2uqwIAANCbKfAPPfRQ0UfGBISAxOKn+BCEiAAAAGB5PPLII5N+11ve8pbeNvOYgBCQ3MQ/8pGPdJ1JAACAteTChQvFbbfdVrzwhS8szpw5U/SVMQEhIInf/u3fnkjIX/7lX3YaSgAAgHVjf3+/+K3f+q1JX+sTn/hE0WfGBISAJC5evFi84Q1vmHww3vnOd04WqAMAAOBk3HvvvZMzXkUf66Mf/Wjvm5OAEJAjvPvd7558QG644Ybi/e9/f/HYY4/1/oMCAAAw7w+799xzz8EMk5e+9KXF3//932vEwghIQUCquf/++4s3vvGNkw9MlLha+ute97rizjvvVLSBDMiADMiADMiADNRkIPpPr371q4tf/MVfnPShbrzxxuIDH/jAREhwGSMgRkCm8sQTTxQf+tCHJmdq+I3f+I3i5S9/uaINZEAGZEAGZEAGZKAmA6985SuL3/zN3yze9a53FX/zN38zvaPVU8bWgFgDAgAAALQFASEgAAAAQGsQEAICAAAAtAYBISAAAABAaxAQAgIAAAC0BgEhIAAAAEBrEBACAgAAALQGASEgAAAAQGsQEAICAAAAtAYBISAAAABAaxAQAgIAAAC0BgEhIAAAAEBrEBACAgAAALQGASEgAAAAQGsQEAICAAAAtAYBISAAAABAaxAQAgIAAAC0BgEhIAAAAEBrEBACAgAAALQGASEgAAAAQGsQEAICAAAAtAYBISAAAABAaxAQAgIAAAC0BgEhIAAAAEBrEBACAgAAALQGASEgAAAAQGsQEAICAAAAtAYBISAAAABAaxAQAgIAwEpyYeORYnz/X88s8bi+Mq2NsHye2t+dmcO479zH/rA4f89/Ly586T5vS0FACgICAMBqsveB/684c90/n1nicX1lVhttvuRfTTq/WA7j+z9em8Pz9/x5ceb6a468J1u3/nDvRWR84WJxZmMw6Ydvbg+LrcFesb2zXwx2R8XO8Fyxu3e+GO6PJ2VvdGFS9s9dPCij85cWUq5a1IbyyqUKR+VjR2KHosTOxU7GzhIQAABWk74JSL6/0bGd9znTyu7bb1p6/ftInYBM5CNr/42XPOfwe3L9Nb0euRsTkN3i7OZOsTUYdv1eAACAms71/offNunsVZV16cidVEDKbTS57/qr594mTi4gMfJU1e47b7/x4PbhH7yyt009JiAEBACAdemQJ2Kufcy53//w705dDxGPy9dMhMzElKV4Xpl4TNwe2425/1XPryJ/Xt0agHhMjFJ8WSYu13vWmoFZbRRSku4f3Pn82jUMsZ14zSZrFNL+RDvNWmuSb79u/6e14XHvS/WMOkap26+qNRzx2KhvuT3jsbEPcV/aXp2AHEy3uuPHDtd545Ha+/rEmIAQEAAA1kVAomO4dcePH52GdP01lVIRncD0mPK0mXyb+S/aB1NoJq/15eeXGX3s3Y3XANRNnZrVSZ3VRtFprtvW5RGSo/WLfa3qsNftT93jh3/w69X7VNr/fFTgSLtkr1fev4P35Pqrj9TzyPtVU8+yQOQSmAtFZOfoe/PjhzLTZCpgvP40IewLYwJCQAAAWAcBmfy6nHVYY959LghVncT8/nKntWqb+Xz+eHx0pqsEJB95SJ3/Q+sArghMXo/8/q1bf3By26xpOscVkENrR66/enJfvGbdGoVDcpYeH22XpniVHl+5/fy9uP6ag1Gkidhk08iqOuvl9y4fSQiBSeTbOmjH8n5l7Z4LSFlc0+uV38vJPl/Z7/w5swQk9jfPS9S1r4wJCAEBAGAVyTux8ct0/F0ueScuflGu7MhOJOLLayHyjnLeKY6OaurEp85x/ut8/P9g6tXGI4c7tvmISS4t1199qMObd5Cj87rINSDzTME66EDf+oMH+1TeXt6GeTvl+5NLQv74fHQi336+/3lbV9WxSuKqtpMyMNlOk3a/9YcrBSS9xykfqd65gOZ5K4+YTROQ8ihan0c/AgJCQAAAWEmanOEpdUoPza2/9QePbCvvgOajCnnHuqoDn3do8450Vee1quNc9Sv3oc58zajB8RahX143kkp5ilXVNssL+OvWNNQJSB1JcKLTXW63Kg5k7vprjghlPjKUyMUwbT9v9yoZqNqHfH/jdcrkkpGPtFTVo05AyqNo63LWtpNAQAgIAAArSd65TlOSyiXJxLTrMUybijRtDUf+637dWowqAakTjKr9ygVlmafhreo8p31MC6tjzUb+K33ejuXXGdx53ZWF2tULwPOOeXS+YwRr2iL3fPvpMenvXAJSu6R65rI5bS1J3VSvw1Owfqzxe5VosgYkr1efp13lEBACAgDASjJPh3zWr9/BvAIyS2qCvMPeZJvTtrsMAYkOelWnN7ZftVA7L+V9DtmrfOz11xx57GS9Q2n9zbSLI5ancuVtlLdp1CEf7aobpWna7vMISNV70iQjqV5VI3N9ZWwNiDUgAACsIvN0yJt0BLsYAamafpTLUr5uYpHXAZk2TSrvwKfRkfTcWb/ox3PjsTE9qnxxvcrHXzml7WQ6VbYOJ41sHGrLK/fHY9N+pXZPbRbrN/KRjHw/8zVAVSNPVfs2j4CU69s0dyFNTU4o0CfGBISAAACwiszTIZ91etO6ufyzfjXPf+VvugYkHymo6rTWTRVaxiL0Wc8p169Jh7ru8fni7iavXX6fDtrl+msO3pckaOX3t+r0u7OmS+XvS2qrWQJSt3aoapvWdjSHgBAQAABWknk71/lZqcojAPnpT/NtzRKQ/Ff1WMdw+CxYX95m/vxDIye3/vAhccnvKy96zju7TTuzi5aWug715HSzEzH48fq1NVemGE3a5srjy2tPpoli+RS65fexPOIybdvlxe+T+7ITCiRmCUi+f+VT+B7a5pT3LCQvXTMElyEgBAQAgJVk3s51eUQinbp32ulPZwlI+RS+qSOaBCKXnrpRjnj9WOA9uchd1mEtd0jL172ITuusRcvHEZB8NCjqlq5qHgvL833NO9S5iEW90mmQ6xat57KQn0I5f3x538pTw8qCdmhhe4NRjibtPktAytu8nKHrrrTVNbXtVbdPTc4I1gfGpmCZggUAwCpynM715at1l4Qhk49yB3CWgASTK56XrvkRneNpV0KP1yl3mGd1noPyc056JfQ66upWNwpz+SJ6h9tg1mhEecQiL7ULtrPXKG+zPEJS15mfp92bCEjte3n91TNHrQ4JSMWpnPvKmIAQEAAAVpHoHKZfzqsWFdcRnbxYOxCdxrSgua5zHh3I9BqziE51eYF3fsG9uuekRdhpsfesfUl1isfPGgE5bhul14nXSAukUxul7dWd9SntT2rbaQve077EazTZ/xidqHv9eF/Tffni/ZO0e9xWdVHLKvJ9j+1FffLn12Us7dM8grjujAkIAQEAAPVcvlbGnze+tgiA6RAQAgIAAGooX+n60CL0WGjtDEjA3BAQAgIAAGqoXIReKrFuwdx+oDkEhIAAAIAppEXI5UXVIR6u/QDMDwEhIAAAAEBrEBACAgAAALQGASEgAAAAQGsQEAICAAAAtAYBISAAAABAaxAQAgIAAAC0BgEhIAAAAEBrEBACAgAAALQGASEgAAAAQGsQEAICAAAAtAYBISAAAABAaxAQAgIAAAC0BgEhIAAAAEBrEBACAgAAALQGASEgAAAAQGsQEAICAAAAtAYBISAAAABAaxAQAgIAAAC0BgEhIAAAAEBrEBACAgAAALQGASEgAAAAQGsQEAICAAAAtAYBISAAAABAaxAQAgIAAAC0BgEhIAAAAEBrEBACAgAAALQGASEgAAAAQGsQEAICAAAAtAYBISAAAABAaxAQAgIAAAC0BgEhIAAAAEBrEBACAgAAALQGASEgAAAAQGsQEAICAAAAtAYBISAHDPfPF09sDIt/eHizuP+hDUUbyIAMyIAMyIAMyMAJM/DwEzvF5s654tKlp9rr4a844wsXizMbgyL64Zvbw2JrsFds7+wXg91RsTM8V+zunS+G++NJ2RtdmJT9cxcPyuj8pYWUqxa1obxyqcJR+diR2KEosXOxk7GzBCRCcGny4YgPScjHo2d2i7Pb+4o2kAEZkAEZkAEZkIETZODM1l7x0GPbB32sEBEUBKTvAnJufHHygfChAAAAWF5/6+EnBhMRidkmfWdsBKS/ApLkI8w8RkEAAACwPB7fGE4kJEZG+syYgPRXQEI8QkDMSQQAAGhXQmLtbV8ZE5B+Csj28Fzvww8AANA28cPvFx7dKr746FZvG39MQPopIBH6GAEBAABANz8Ex799ZExA+icgsfajz6EHAADompgGH9Ox+siYgPRPQOK0cCEgFp4DAAB0Q8hHSEgfGROQ/glIWvwEAACAbn8Q7iNjAtI/AYnzUEcBAABAt+tA9s+Ne/cWjAkIAQEAAEC7hHgQkN1ic3tYbA32iu2d/WKwOyp2hueK3b3zxXB/PCl7owuTsn/u4kEZnb+0kHLVojaUVy5VOCofOxI7FCV2Lnayr1dCNwICAADQLQRkMOmHE5CeQEAAAAC6hYAMCIgREAAAABCQ5WMNiClYAAAAJ2Zzc7P4v/7zncW1P/W7M8rbi2t/4h3Fs37yXZPy9H/3luJfPveXi5/8hVcUv/Li1xZ//IE/78W7YQRkYATECAgAAMDJ+KuPf7J45i9/rviuXxs2Ls94wReKr/n2NxVPe/pdxdc8463F057xu8VX/4s7iuc894bife9fXxkhIAMCQkAAAABOzkfnlJBn/OIDEwH56qffVTzt6ZcF5GuvfnvxtVf/l+Jrr/694p8984aZoyKbm1un7q0jIAMCQkAAAAAWw//82N3Fs375/jkE5M7iq5/+5uJpT39L8bRnvG0iIV9zRUCeds3vT8pPX3dr5Wu9+jV3FT/1/Or7VhkCMiAgBAQAAGAxvPKO3yuuvWWzuYB8251HpmGVBSRKjIbkox0hH197zTsIyClj7EKErgMCAACwSPmYaw3IHAIS5f/49lsmEpLkg4CcPsYEhIAAAAAsgr/46N3FM3/lC8V3v2z3UJktIL99ZB3IZQE5KiEhHP/bt7zkQD4IyOljTEAICAAAwEnZ2Ngsrv75jxyRj7pSJSBNRkBy8SAgp5MxASEgAAAAJ+XnX/SG4rtetlNb6kTk237mr4qnffOLCUiPGBMQAgIAAHASPnf/P0wk49kvHdSWOiGJixOmEZRbb3tT8b9/601GQNacMQEhIAAAACfh51/0+iuisT2lDIpn/PR/K+5823uK73jhZw4kJAlIzvUvem3l+g9TsNaDMQEhIAAAACfhmv/n74vv+tXNSbn2VzeOlLj96T/1weLs2Y3J4z/6V39dfMcL77s8avKTRwUkePPb3lW5AN0akNPPmIAQEAAAgJNcdDAk49kvOXulnLlcbnny4P/XvPBzxX2f+dyh5/2vj909kZA6AQme89wbi6dd82UJISDrwZiAEBAAAIDj8nM3/daBcFybys1PfLnc8mTxsze8rvK5H/34J4t/9dNvrLzvVbffdUU+UqkfCXEl9NPFmIAQkLbY3NwsHnrooeKBBx5YmRL1iXoBAIDj8dyfueNAOp794seL73zxY8W1L3r0oMTfZ8+erX3+RsX38Ktuf3NJPo6uBcllhICcLsYEhIC0waOPPtq5bEwrjz32WCvtAADAuvGdP/amiXhMZONFjxTPuunh4lk3femgfPtPvX+u7YV8fO0z3n5lEXpe6iXkp37h14vTxv65cXH/QxuTf/vGmIAQkGWzsbHRuWA0KUZCAACYn2f92J1XxONLxTNvfLB41g1fLJ51wxcOynf8yOsbb+uvPnZ38X9+x/UV5VeulBsm5Z8983B59WvuOnVvHQEZFBtbu8Xm9rDYGuwV2zv7xWB3VOwMzxW7e+eL4f54UvZGFyZl/9zFgzI6f2kh5apFbSivXKpwVD52JHYoSuxc7GTsbOz42c2dYmswLPrCw08MJqUtHnzwwYNO/tbWVnHp0qWVKSEd+XQsAAAwHze97I7ine9851zllltumfxA2WcIyICAEJDlEJ38fJThqaeeKlaJVa8fAACrzg1zCgj5uAwBGRAQAtLPDv6q1w8AgFXnxl99Nfk4BgRkQEAISD87+KtePwAAVp0bb35545GPaWfDqmKd12cSkAEBISD97OCvev0AAFh1brzpxY0E5G1vf8fc277pppsmZR0hIAMCQkD62cFf9foBALDq3HDDDY0E5I1vemvxlx/9q8bb/Z3f+Z2D566jhBCQAQEhIP3s4K96/QAAWHVuvPHGxmtAQkJe9/o3H2ub6yYhBGRAQAhIPzv4q14/AADWSUBSufXWW4vbbrut+NM//dOD7XzsYx8rbr/99sl9dc9bJwkhIAMCQkD62cFf9foBALCOAnKSsi4SQkAGBISA9LODv+r1AwBg1WlbQNZFQgjIgIAQkH528Fe9flhd/viPPlA8/z8/f1IAoM/kAnLLLS8pfvXXf3PpAvLa1762OO0QkAEBISD97OAvo36pUxod1Krb/+t/+a9FX3jzG988KZ+8+1PFuvGmN765+M5vu3ZS2iIyFe1ZzhYArIKApCucf/aznyvufNNbliYf8XrrAAEZEBACshz6KCCpUxod1MT9n73/4PZ17IzP0xbrQhcC8vyf/oXJ68W/ALAqhBAk+UjEBQeXMRISr7MuEJABASEgy4GAHO6s9q3jSEAWCwEBsIqEFFRdsTyE5MUvbnaRwlnlDW94Q/HBD36wWCcIyICAEJDlQEAOdxzrpmXF7TFK8oqXvPzgtvj/Y48+dvDY3Z3d4p2/986D+2/8pRuK979vvqk46bnxWjESM+31qig/J9Uh6pYT24/7k4D82+/9t7VT0+qoao80evTa37hjclv8O+9ajahvXT3+4sN/OdmnfP/itiYjINF25baZNdoV+3jH/3t5X1KJ97iuPf/Nd/+byevFv/O2JwB0RZxq97gL1UM8XvGKV1QKzmmHgAwICAFZDgTkMtFp/KHv/eEj7ZM6sD/+7//Twf/LJclJdOKr7p9nEXR6TnSUp71emegQR4e67jlR/6hjIjredY9tMh0r1jnUPX/SYZ9jKlIuCvl+5/WI/cuFqaqNy1KQbzfarO658Zrz7mMIxkc+/D8W1p4AsAp8/OMfL26++ebiVa96VaN1Hq95zWsOTetaNwjIgIAQkOVAQC7/Mh6dxKpfw/OOZAhKPC46nvHL/r/+rn99RFDi9rg/FrL/p3/343N3Qpu+XnkkJJeP6PRHhzue9/JbXn6o05w66fFv3mmOx8XfUWaNssS+pedFnVLbxe1R50NiMKeApG2mfUjkAhh1jX2L+/P9i8fM2m5dXcvvT/7ceB/j8fG88vuQpC61Z3rP49+m7QkAq8jnP//54s/+7M8mFyOMEY4oIR5xW18gIAMCQkCWAwGZTt55Lf/CXv7Vu2pkInVIo/PfhKavl09tis74NNHJ748Oe9XrNRWkqFOaZhQd+HId4+9cvOYVkBt+6YYj28yFp6qN6+7Pt9ukrkkU4t+8PmVCOpKElEe3rAEBgPWBgAwICAFZDgRkOrM66HkHtoq8c1zuAJ/k9fKOfXSSk7TUkUYKyiI0r4DkU5nyKUg5+RnF5hWQqtGCNPoR+15Hapd8FCTfbpO6ptMv5+9Z3ehF3WMICACsDwRkQEAIyHIgINOZ1UGf1eHMRy2anN532i/9da/XpNNbJ0LzCkjTU9seV0CmbWtaHau2MW9d0/aTrE0Tnrr3lYAAwPpAQAYEhIAsBwKymgJS99iq10trGcrTq+qmYeXbXpaApAX5p0FAUl1T+zWRiPx9zUdXCAgArA8EZEBACMhyICCnX0CadHrrOuMnEZC66UkxwrKMEZBpp/RNoxb5NLR565raoIm41AkdAQGA9YGADAgIAVkOBOT0C8isjnZ0stOv/OVpRfMKSL5mok4I8uleixCQtMYlP4tX3cL4fBQo327d/uV1TW3eZJ1LOutY+WQBBAQA1gcCMiAgBGQ5EJDTLyAhHemsTLEIu3xxxPwUveUOdZPpW3V1iBIX5cuJznuSgUUJSN6GsS95hz/2NT9Fb77v5dPwVtU13VcWs9QusS/l96LuWiV525RPCQwAbfLFL3yheO3ttxcvu+WWyb9bW1tHHvORD31ocn/5vre8+c2T21N573vec/CY9JyqEveVt12+PeoVt8W/5deMUqb8/LYhIAMCQkCWAwE5/QISlC+0Fx3g8oX7qiQjjS7kV0OfdeXuXHjy56VRlrgvdeAXISBBjLbk+5KuMp7fVq53vt1U33Jd0335RRrLp9rNn5fLVdUi9XxEpWl7AsAi+ZtPfar4x1/5lcU3ft3XFd9z7bWTf//p13/9EdH4oec+t/hHV111pOMfz/mqr/iKyb/p+bG92G48Nt0ej8kfl7bzS9ddN9luuj3+H7cFIRPxd1kq0mNz/vDd75489unf/M2dBYSADAgIAVkOBGQ9BCS9VvlCgFHitnSK2SqZyEc0mk7Hqnpe6pRH5/24V0KfRnTk6/avaqpUvt2oU37K5HJ9q8j3Iy8hJk3Wo8w7vQ0A6viLD394MmqQ/s1vj5LLxXOe/eyJNKTb4t8QhSQBQWwjOvfxuHIHvywD8fx4XAjLtMcFISmx3Ttuu+3gtvh/3BavOY+A/MTznjd53Xh8bLcLCMiAgBCQ5dBHAZnnCtWzHhud1Li/rhObrpAdpcl1QGY9dtbrpcekK4U3kZ5yPee5cnf+WnmdmtQzEa+XXrsJ8bh0pfdp26/abl19Z9Vv3vZM9XQldACLIDrhMQoR/7705psnUhDikEYhYoQjiUl6zLQpTiEF8bw0ypBLTZUMNL0tXje2lxPbjtvnEZDYvzQ6ExKSy1ObEJABASEgy6GPAgIAwGkiOuPf/k3fdCAKaXQgOupphCJuSx38EItphLDE44Py6EiIQMhNGl156113HZpGNa+A5KT6xfZjpCaVkKt8WyEe8bjYt9hm3N8FBGRAQAhIPzv4q14/AACWTXlUIzrwUdJC7/h/dOBTB79qQXd5mlQahQixCCFJpHUbqYSghKyU15CcREBie/HYVNJ6lXz/0pSvNF1sllQtAwIyICAEpJ8d/FWvHwAAbQtIjIZEyTvxSTpmTcGKzn8uGKmkDn6VWFRR9bi03iOXlfzMV02mYCVBKpfyGpQ2ICADAkJA+tnBX/X6AQCwbMpSERKRn9kqOu1poXZ01Mv35QvDYzpTmq6VSprCdVIBSaMVP/mjP3pwW/w/RlGiPk0EJEZk4vF5/dKZtcqn7102BGRAQAhIPzv4q14/AADaFpDoiKfT48Z0pXzaVXT0Y3QkrbVIp8TN11aUzyqVOvjx3JMISP4aUbcoIROpbk0EJAlSldjkZ9dqAwIyICAEpJ8d/FWvHwAAyyY67OVf/9OIQnTuq0YG4r6YVpXLRpoGVSZtK/7NR1OmMe1x8Trx2uV6569Tta10f93+tH06XgIyICAEpJ8d/FWvHwAAWE8IyICAEJB+dvBXvX4AAGA9ISADAkJA+tnBX/X6AQCA9YSADAgIAVkeX/ziFw86+Nvb28UqEfVJdXvwwQe7rg4AAOgJBGRAQAjI8jh79uyhUYZVLRsbG0tsBQAAgC9DQAYEhIAsd5rTww8/3LlgTCuPPPKI6VcAAKA1CMiAgBCQ5UtIjITk07FWoUR9ol7WfgAAgDYhIAMCQkDa4+LFiytTAAAAuoCADAgIAQEAAOtIXHjvLz784YMyi3TRvlUg6pHXPS9VFxQ8TRCQAQEhIAAAYB156c03F1/1FV9RfM+1105K/P85z352rWR8+zd9U3HHbbcVq0DIUKr3N37d101K+juu0n6aISADAkJAAADAugpIdNhzfui5z52U07YfUdYFAjIgIAQEAAD0RUA+8qEPHdz2j666qvjJH/3R4h9/5Vce3B7//tJ11xU/8bznHTwnRhyStLzsllsmj4/n5qMp8W9sK26P++NxQYy6xDYT//Trv774w3e/eyEC8ksveMHktfLXi9eKOsR98W/57/T6eV1TffJ9iJK2uWgIyICAEBAAALCOVAlIdLCTTEQnO0QjralIAhJ/R8c8EY8PCYlpUTEVKklH3B6yEsR20nbj/nhcbCtuT4+J54eQHGc/ygIS9Yn6xmtFielj8XpJOGIqWdye/k6SEbfH32kaV/z99G/+5oP/p/bK92HREJABASEgAABgHYlOe4hEjFREiY52dLCTcKQRgkQSkCA69NFpj454SEO+biQtBg+ZSR32NIqSiNeIEtIRow6pg5+PrATxnBhpiFLX2a8SkHjdGNXI6xKPScKRb7/p3yElUdf3vuc9S12MT0AGBISAAACAdSQ65PnIQLlTPZGENzEAACAASURBVE1AkixEpzxJQzw/JCb+TqMr+XSukI0qYiQh7ovnlqdfhaSk+tWd3apOQGLfUh0mQnLddScSkCDqFyM5IV0hNcsQEQIyICAEBAAA9GUKVlMBiY53jAZEZzyfvpRvL99+GjFJxP/TtuJxsZ0QkePuR5WAVJ0N66QjIPn+xz4t44xbBGRAQAgIAABYR04iIEEaCUjEfTHVKqYovfWuuyb/T9uPjnqMcMR0qLg/ZCONaMS/k4XgV9aCLEJA8rrEa/7Q933fgUAcV0DiNfJ9iO3XjeqcBAIyICAEBAAArCPRuZ72C350uPNpT/HY/O94fnnKVFr8naY75dtP05diila54x6jKcftzKcpWlW3x2vloyFR/1xW5v077V/sxzIWoAcEZEBACAgAAMDySGfPAgEZX7hYnCEgOwQEAABgScRISX6tDRgBOUNACAgAAMAyRz/qzm7VV0zBGpiCZQoWAAAACMjyMQVra7c4awQEAAAALWIEZGAExAgIAAAACMjyMQJiBAQAAAAtsz08V9z/0MZkJKRvjJ0Fq39TsB7fGE4CDwAAgG44u73f2/7YmID0T0A2dy4b9/jCpa6rAgAA0EsePbNbfOHRraKPjAlI/wTk3PjiREBi6A8AAADt8w8Pb05mpfSRMQHpn4AEYdxf7Kl1AwAAdEmf138EBKSnApKCH9OxAAAA0A6XLj01+RG4r9OvAgLSUwEJHn5iMBn+iylZAAAAaGftR59HPwIC0mMBiUXoISAkBAAAYPk8ceVMpHEGrD4ztgakvwISxOhHCEh8GDYGo8mwIAAAABbHcP988dBj25P+1pmtvd437ZiA9FtAgpCONBwY5eEndiaGHkKiaAMZkAEZkAEZkAEZOF4Gok8V6z2ifxVrPkJEUBCQPk/BqhoNCStPa0OSkCjaQAZkQAZkQAZkQAbmz0CMesSPvHHyH7NMvowREAICAAAAtAYBISAAAABAaxAQAgIAAAC0BgEhIAAAAEBrEBACAgAAALQGASEgAAAAQGsQEAICAAAAtAYBISAAAABAaxAQAgIAAAC0BgEhIAAAAEBrEBACAgAAALQGASEgAAAAQGsQEAICAAAAtAYBISAAAABAaxAQAgIAAAC0BgEhIAAAAEBrEBACAgAAALQGASEgAAAAQGsQEAICAAAAtAYBISAAAABAaxAQAgIAAAC0BgEhIAAAAEBrEBACAgAAALQGASEgAAAAQGsQEAICAAAAtAYBISAAAABAaxAQAgIAAAC0BgEhIAAAAEBrEBACAgAAABCQ0flLxyr75y4elL3RhUkZ7o+L3b3zxc7w3KQMdkfF9s5+sTXYKwgIAAAA0B5GQIyAAAAAAK1BQAgIAAAA0BoEhIAAAAAArUFACEhjzp07V+zv7yvaQAZkQAZkQAZkQAamZODChQvL7L+fesYXLhZnNgaTtdib28PJuuxYnx3rtGO9dqzdjjXcUdKa7nyd93HXipfLVYvakEXoCwzHeFw89thjxX333VfcfffdxV//9V8r2kAGZEAGZEAGZEAGGmTg05/+dPHAAw8UW1tbC+ydrQdjArJbnN3cKbYGw67fi5XhqaeeKr70pS85uPiCkQEZkAEZkAEZkIEFZODee+8lIhkEhIAcYjgcFn/3d3/nYOMLRwZkQAZkQAZkQAYWnIGHHnrocMerp4yNgBgBSezs7BSf+MQnHGx84ciADMiADMiADMjAkjIQ07L6zpiAEJC0wPxTn/qUg40vHBmQARmQARmQARlYcgb6PhIyJiAEJPjc5z7nYOMLRwZkQAZkQAZkQAZaysDm5mbRV8YEhIBsbGw42PjCkQEZkAEZkAEZkIEWMxBrbvvKmIAQkM985jMOOL50ZEAGZEAGZEAGZKDlDPR1FGRMQPotIKPRyMHGF44MyIAMyIAMyIAMdJCBz3/+80UfGROQfgvIk08+6YDjS0cGZEAGZEAGZEAGOshAnACoj4wJSL8F5MEHH3TA8aUjAzIgAzIgAzIgAx1l4Pz580XfGBOQfgtIDP056DroyoAMyIAMyIAMyEA3GYiLQPeNMQHpt4Dcf//9Dji+dGRABmRABmRABmSgowzs7u4WfWNMQAiIg66DrgzIgAzIgAzIgAwQkLYgIATEAceXjgzIgAzIgAzIgAwQkNYgIATEAceXjgzIgAzIgAzIgAwQkNYgIATEAceXjgzIgAzIgAzIgAwQkNYgIATEAceXjgzIgAzIgAzIgAwQkNYgIATEAceXjgzIgAzIgAzIgAwQkNYgIATEAceXjgzIgAzIgAzIgAwQkNYgIATEAceXjgzIgAzIgAzIgAwQkNYgIATEAceXjgzIgAzIgAzIgAwQkNYgIATEAceXjgzIgAzIgAzIgAwQkNYgIATEAceXjgzIgAzIgAzIgAwQkNYgIATEAceXjgzIgAzIgAzIgAwQkNYgIATEAceXjgzIgAzIgAzIgAwQkNYgIATEAceXjgzIgAzIgAzIgAwQkNYgIATEAceXjgzIgAzIgAzIgAwQkNYgIATEAceXjgzIgAzIgAzIgAwQkNYgIATEAceXjgzIgAzIgAzIgAwQkNYgIATEAceXjgzIgAzIgAzIgAwQkNYgIATEAceXjgzIgAzIgAzIgAwQkNYgIATEAceXjgzIgAzIgAzIgAwQkNYgIATEAceXjgzIgAzIgAzIgAwQkNYgIATEAceXjgzIgAzIgAzIgAwQkNYgIATEAceXjgzIgAzIgAzIgAwQEAIyOn/pWGX/3MWDsje6MCnD/XGxu3e+2Bmem5TB7qjY3tkvtgZ7BQEhIL50fOnIgAzIgAzIgAwQkPYwAmIExEHXQVcGepiBT37yk53XYdnloYceKi5evDgpX/jCFzqvj6INZEAGqjKwu7tb9I3xhYvFmY3BZCBgc3s4GRSIwYEYJIjBghg4iAGEKGlAIR9kOO5ARblctagNGQGZj/uNgPhC8IXQiww88MADxc7OzpFjwLlz54ozZ84U99xzT+d1XGS59957j+xrH6RL0QYycPoyQECGBKRvEJDuDzyKNlhmBj7zmc9MRgCa8Pjjj5+KTvojjzxyqFTJU+x3mXWTLEUbyMB6ZICADAlI3yAg3R94FG2wrAzEtKN52dvbW3kJKROyUfW4s2fPHjwm/t91vRVtIAMyUJUBAjIkIH2DgDgY+kJczwxUTUEKYjQkpmJFCdmoGwnpuv7TSlMBSe1g5KP790zRBjJQnwECMiQgfYOA+FLwpbCeGYi1HWViUXZ5dCM66FUissqd9nkERNEGMiADq54BAjIkIH2DgHR/4FG0QRtTr0I+6h4fslFeJzLt8bGgfWtr65DkxIhK3XqMJDpp5CVKGmWJx8ci+LStqEf8HY8vbyM9t0wIVLovPa/8elHKbZTfl86SVV6sH9uua4vyNupGjuL2qteqa9t4TP5+xN9V8qhoAxlYjwwQkCEB6RsEpPsDj6INFp2Bcif9/PnzM58TneSccoc9yULdtK1E3Slvy4vCkyxMWyBfPj41IY2GVC1Cz7cVspQTf4f4zLM2pryNqjarej/ieeXH1I1E5URbVYmZog1k4HRngIAMCUjfICDdH3gUbbDoDJSZNpqRy0V02lMpd3Sj8930bFpBWULKQpBGLaYRr5ePqCxTQGbVJSiPcCxKQOZpWxLieOE7Y/0yQECGBKRvEJDuDzyKNlj24vNFrJGIKVfljnB0pGPbcRwp/3pflocqIQjiebGd6NxXdcJzeUpyVPWYdF8apZhXQPKzZcV9VUIS9VuGgJTvjzaJNo33MvajfH/d6yjaQAZOZwYIyJCA9A0C0v2BR9EGi8zAMq5/Ec+fNaoSHf+Y6lXX0a6qV0hNeRtlCanqbDcRrOMISHk7sY/THrMIASm3bbRh1VqP8jZMxXLc8N2xPhkgIEMC0jcISPcHHkUbLDIDVR3vky5eLnfE69aUlNeRxMLyafWqEocmnfom2znOFKyqfVq2gFStRWlyYoEm0+oUbSADpyMDBGRIQPoGAen+wKNog0VmoGlHf55SFou6i/pN6/TPEoKuBaSu479sASlPbQtpK5+9q+qaLXX1VbSBDJy+DBCQIQHpGwSk+wOPog0WnYFFf86bnMUpCgGZX0CaLH6vojx9TdEGMnB6M0BAhgSkbxCQ7g88ijZYdAbKazHqRizK8hAd41Tys1gRkOWNgFQtQK8aASmXVb9avaINZICATGN84WJxZmNQbGztFpsEpH8QEF8SviTWLwPlKVNNFqKXO8L5L+xNO9pxPCmTC07dfesyBStf8zKtbfPXCjlsUg9FG8jA+mbACMjQCEjfICDdH3gUbbDoDFSdtarqQnrTzvaUHxuqxKJqW+XOdC4x6yggTc44VvVe5K9VXlxeN7Uqv06LK6I7ZvjeWK8MEJAhAekbBKT7A4+iDZaRgarTzObX7ojywAMPVK5BqOr0l0+PGx3lvCNc7kgH+TSuRQrItNP9tikgVddcSdfwiPurro9Sfq1ow2ntlh5T3k7V1eYVbSADpzMDBGRIQPoGAen+wKNog2VloKrze9wrbVeNksRjq87QVCUOixSQuoXbUY82BaRKhurqNe21qmQxXaDxzJkzR+Sv7lohijaQgdOZAQIyJCB9g4B0f+BRtMGyMhCd1PJpXqcRHdtpF7grT7Gatp3yVKRFCkjVlLDEca+EflwBqbvCe17/Jq/VtG3rBFHRBjJwejNAQIYEpG8QkO4PPIo2WHYGYrrOtNGQ6NTGwvUmv6rHtqb96h8d6artLFJAqh5XFoS2BCS1SXmUItU92qLpa8XtVdvJt0c+HC98Z6xfBgjIkID0DQLS/YFH0QZtZSA6r9FZzk+3e9xjQDyvfNreaQIT96W1J6nMWmwdZVqHOx6b70/UKdVh1uuVX6fuLGHlbdTtY9ye2iTqlNe76WvVtW1Mf5v1HEUbyMDpzQABGRKQvkFAuj/wKNpABmRABmRABvqbAQIyJCB9g4B0f+BRtIEMyIAMyIAM9DcDBGRIQPoGAen+wKNoAxmQARmQARnobwYIyJCA9A0C0v2BR9EGMiADMiADMtDfDBCQIQHpGwSk+wOPog1kQAZkQAZkoL8ZICBDAtI3CEj3Bx5FG8iADMiADMhAfzNAQIYEpG8QkO4PPIo2kAEZkAEZkIH+ZoCADAlI3yAg3R94FG0gAzIgAzIgA/3NAAEZEpC+QUC6P/Ao2kAGZEAGZEAG+psBAjIkIH2DgHR/4FG0gQzIgAzIgAz0NwMEZEhA+gYB6f7Ao2gDGZABGZABGehvBgjIkID0DQLS/YFH0QYyIAMyIAMy0N8MEJAhAekbBKT7A4+iDWRABmRABmSgvxkgIEMC0jcISPcHHkUbyIAMyIAMyEB/M0BAhgSkbxCQ7g88ijaQARmQARmQgf5mgIAMCUjfICDdH3gUbSADMiADMiAD/c0AARkSkL5BQLo/8CjaQAZkQAZkQAb6mwECMiQgfYOAdH/gUbSBDMiADMiADPQ3AwRkSED6BgHp/sCjaAMZkAEZkAEZ6G8GCMiQgPQNAtL9gUfRBjIgAzIgAzLQ3wwQkCEB6RsEpPsDj6INZEAGZEAGZKC/GSAgQwLSNwhI9wceRRvIgAzIgAzIQH8zQECGBKRvEJDuDzyKNpABGZABGZCB/maAgAwJSN8gIN0feBRtIAMyIAMyIAP9zQABGRKQvvH5z3++8w+eog1kQAZkQAZkQAb6moHhcFj0jfGFi8WZjUGxsbVbbBKQ/vHggw92/sFTtIEMyIAMyIAMyEBfM3D+/Pmib4wJyG5xdnOn2Br0zz6DJ598svMPnqINZEAGZEAGZEAG+piBT37yk0UfGROQfgvI/v5+5x8+RRvIgAzIgAzIgAz0MQMxFb6PjAlIvwUkuO+++zr/ACraQAZkQAZkQAZkoG8Z2NjYKPrImIAQkLNnz3b+AVS0gQzIgAzIgAzIQJ8y8Ld/+7dFXxkTEAISfPazn+38g6hoAxmQARmQARmQgb5koK+jHwEBISATRqPRZCFU1x9GRRvIgAzIgAzIgAysewbiLKR9ZmwExAhIYjAYFHfffXfnH0pFG8iADMiADMiADKxrBvq68DyHgBCQQ+zs7BT33HNP5x9ORRvIgAzIgAzIgAysWwb6PvKRICAE5AiXLl1ygcIVOEgp2kAGZEAGZEAG1mfBeZ/XfJQhIASklnPnzhWPPPJIce+993b+wVW0gQzIgAzIgAzIwGnKQKytjelWxOMoBISANB4ViYsW7u7uKtpABmRABmRABmRABmoyMBwOi/PnzzfrYPWUsUXoFqEDAAAAbUFACAgAAADQGgSEgAAAAACtQUAICAAAANAaBISAAAAAAK1BQAgIAAAA0BoEhIAAAAAArUFACAgAAADQGgSEgAAAAACtQUAICAAAANAaBISAAAAAAK1BQAgIAAAA0BoEhIAAAAAArUFACAgAAADQGgSEgAAAAACtQUAICAAAANAaBISAAAAAAK1BQAgIAAAA0BoEhIAAAAAArUFACAgAAADQGgSEgAAAAACtQUAICAAAANAaBISAAAAAAK1BQAgIAAAA0BoEhIAAAAAArUFACAgAAADQGgSEgAAAAACtQUAICAAAANAaBISAAAAAAK1BQAgIAAAA0BoEhIAAAAAArUFACAgAAADQGgSEgAAAAACtQUCuCMjuzrB4an93UorRUNEGMiADMiADMiADMiADMjBaXBukvvZTo2FxZmNQRD98c3tYbA32iu2d/WKwOyp2hueK3b3zxXB/PCl7owuTsn/u4kEZnb+0kHLVojaUVy5VOCofOxI7FCV2LnayTkAUbSADMiADMiADMiADMiADu8tpAwJCQHy4HGBlQAZkQAZkQAZkQAaeaqsNCAgBccBxwJEBGZABGZABGZABGXiKgJiC5UDgQCADMiADMiADMiADMrB2GRhZA2INSNchVLSBDMiADMiADMiADPQnAyMCQkC6DqGiDWRABmRABmRABmSgPxkYERAC0nUIFW0gAzIgAzIgAzIgA/3JwIiAEJCuQ6hoAxmQARmQARmQARnoTwZGBISAdB1CRRvIgAzIgAzIgAzIQH8yMCIgBKTrECraQAZkQAZkQAZkQAb6k4ERASEgXYdQ0QYyIAMyIAMyIAMy0J8MjAgIAek6hIo2kAEZkAEZkAEZkIH+ZGBEQAhI1yFUtIEMyIAMyIAMyIAM9CcDIwJCQLoOoaINZEAGZEAGZEAGZKA/GRgREALSdQgVbSADMiADMiADMiAD/cnAiIAQkK5DqGgDGZABGZABGZABGehPBkYEhIB0HUJFG8iADMiADMiADMhAfzIwIiAEpOsQKtpABmRABmRABmRABvqTgREBISBdh1DRBjIgAzIgAzIgAzLQnwyMCAgB6TqEijaQARmQARmQARmQgf5kYERACEjXIVS0gQzIgAzIgAzIgAz0JwMjAkJAug6hog1kQAZkQAZkQAZkoD8ZGBEQAtJ1CBVtIAMyIAMyIAMyIAP9ycCIgBCQrkOoaAMZkAEZkAEZkAEZ6E8GRgSEgHQdQkUbyIAMyIAMyIAMyEB/MjAiIASk6xAq2kAGZEAGZEAGZEAG+pOBEQEhIF2HUNEGMiADMiADMiADMtCfDIwICAHpOoSKNpABGZABGZABGZCB/mRgREAISNchVLSBDMiADMiADMiADPQnAyMCQkC6DqGiDWRABmRABmRABmSgPxkYERAC0nUIFW0gAzIgAzIgAzIgA/3JwIiAEJCuQ6hoAxmQARmQARmQARnoTwZGBISAdB1CRRvIgAzIgAzIgAzIQH8yMCIgBKTrECraQAZkQAZkQAZkQAb6k4ERASEgXYdQ0QYyIAMyIAMyIAMy0J8MjAgIAek6hIo2kAEZkAEZkAEZkIH+ZGBEQAhI1yFUtMECM3DT9S8svv+531tZnvcf/0PxjrfdVWw//qWVaPO/vftjk3pFnRexvd9/612T7cV2u943RRucNAPxOX3VK36t+MZv+Ibiq77qqyblX3zrt0w+w/IlXzJwyjMwIiAEpOsQKtpggRn4vu/9vw86K3UlOjTRWe86e//zv39wUp+o8yJE4lUvf9lke7HdrvdN0QZNfyyoynnIx7/8rmdP8vwN/+SfFD/yH/79oc/2L/zcz8iYjMnAac7AiIAQkK5DqGiDBWYgdVKqOuHR0fn5n/2Zg07MokYejlve/553TeoR4rAIkSAgPkvr8lmNz2bc993PvvbQiGV8hkNI4j4jfd2/h4o2eOq4bUBACIgDiANIXzo1qcR9qRPT5WhBkqFyHQhI9zlSuv2sxlSrOslIn4+yuCvaQAZOUQZGRkCMgHQdQkUbtNSpycsbXvfayeNimkfdY2KueawbSWtIXvQrv1w89Ln7Kh+bT5tKc9fT82K6SLkjlaZfxdSS8jZS5yvqlrbRZN9zcamqw7Q2iceX97fqOWndyrQpMOkxIVjl+6L94rlN6zWtRJ3f+Jt3NH6P8vU28Zr582I7x1kbVFeHWft0nHaI+4/znPJ7OivDddMT6+6f1a5120lrO6pyHtup27d4PgHxvXGcY4ayQm0wIiAEpOsQKtqgAwGJkkZByh2y6FRGZ6huDUlVBy11/mNaVRKIcon78teITlve6U3bqCpN9j2vQ5o/36Tusf91dY4Sstak3cojO+XnRWe07jXmndMfkpMvTm6yn2m9TerAlss0Ga2rw7R2q+vIhxjO2w5xe91zQnjKj49cTXtOlRjMGlmouz+1a5L6We160pzX5UvRBjJwijIwIiAEpOsQKtqgIwGpmwIVv+CmTlXeyY4OZd3UrdSpik5xbDc9LzqC6XXivib7cNIpWNEpjpGVvO55p6/8S3+SlfL+5lPV8tvT/Py6DmASg/w5ab1LbC/fr/h/zPOf5xftqH/q+Jf3M3WCow7l/Uy3Rx1yOcj3s2mndlod0r5W1SHJT1Ud6tohvXdxf7ntUr3LspOvochH3/IM50J8UgFJ7Zpvc1a7zvNZrWq/OgFWtIEMnIIMjAgIAek6hIo2WGAG5unUVHWo0tSob/2Wb6mckpPuj85n1baiw1f1WrG9eet1XAGpq0Nqm7yzGvsYf1dNl6qTjejQ1o0YpM53+cxeqYNa1WmM2+K+qg57VZlV5xCCqvabNjKROrblei+6DknOqtY2pHbNsxWvM63DXXUmtbSdWRkuC/FJBKRKaGa16zyf1fKIziqcxU7RBjKwe/w2ICAExAfIQXSdMnBSAUmjFdM6OOmX6rwTOavzlrZb1UlbtIDM24E8zjaTUJU70lXtl6SkrrM+b/s0rXP5V/dp03xSR7/pKNVx2i21Q77uZ1ZJIzrznLFt1ghVnuG8vU8qIFXPCWmqk9V5PqtpSmR5REfRBjJwSjMwMgJiBKTrECraYIUEJD1/2vSO1MHLO9n5+oumr7UsATlJHT76of82WYwe6xTiF+f0i335OXUd4zTSUbW2JTqRsd2qkjqYxzmzUdM6z1pnMM86hOPU4TgCmLI2j5g1+QxU1eUkAlI36jatXZt+VtOITTlXijaQgVOcgREBISBdh1DRBiu0BiR1HKc9b1rnre512xSQeeuQzsiUOop5SSMdVc8pTxeqG+mYtui4XJp2zuNX8LRWp2mdFy0g89bhOO/rcdZJpOdM66wngVyUgEybunZSAUmv2/V1exRtIAO7i2sDAkJAfKAcVNcpA/N02KoWS6epKU06RPkUl9MqINFJTe0Q+x73xfPTNJdp9U7rHNJj66ZRpW3E/en0qnWlycLieEyqczr7UpM6L1JAynVo0m51U8Omlbq1JKs2ArJMATnOKJCiDWRgxTMwMgJiBKTrECraoMPrgJSnjjR5flWn8LQKSGqHunUJ0+qdFhin0wmnX/7r2npRv2CnOs1b50UKyHHqcJx2OIm0TFvHVLVWp+k6prYFJKQuXdtmEflRtIEMrEAGRgSEgHQdQkUbLDADTTo1+TUkyo9Lneq6BdNp6lHMR89vP60CctxOZyrRDjENK5eR8mOSnMTj6jqR8fymi4tn/SJet55kkQJynDqk7NSd7Stdfya/IF/VmbHKeSxf9DG9F3UXsMxHvfJ6THte/py2BUTRBjKwhhkYERAC0nUIFW2wwAxM69REZy0u2pY6RHWd5TR/v/wLctyXrplR7oQtQ0CmnTVq2vPmqUPqdMZahvLj8wv2zRKUdE2MuilUqcMea03Kne+0yHja8/OSRhKq6pxf7HCZAnLcOqTRiap2SOtwyu97ynTVRQrTGpTy66SphOULDuansy3nPwlS+XlJjNI1PRYlILPkNs9tfO6cetd3xTzHQ2XF22BEQAhI1yFUtMECM5A6a9FhSb8mV12tetqUlvjVOXW2YjshLdHRy+f8V3WSFiUgeUcw7UeTfT9uHVJnNdopnZUqidasiwTm8jDtTEjRiU3binaMTnC8Tr6Iu2kHM7aVvz/lOqcMLFNA8jpUtVtdHaraIfKVMlp1vY/4O0lxPK78nNheWWaqMpyfnavqObkopvrlp79d9BqQPDtRx7qrwDfJl6INZOCUZWBEQAhI1yFUtMECM5A6fuUSt6cFy03mkkcHLv1anUp06GYt0F2EgESJqT2p0xmlyfSk49Yh2qNqX0MImtS7bsSoXOJ1YjupY5x3LOddYBztUX6vox6xnTbWgBy3DqkdoqNfbocYEagbAYrnpBGD/D2K2+ryHPWrek7UadpnoFy39BqLFpCqnFc9JmVzntMXK9pABlY8AyMCQkC6DqGiDVY8A9GR68MC2NjH/ExObbzWSds1Ouxt1XkZ7Rb1n/d5x3lOPL7J9DZFG8iADDzVRhsQEALiYONgIwMyIAMyIAMyIAMy8FRbbUBACIgDjgOODMiADMiADMiADMjAUwTkUjE6Rtk/d/Gg7I0uTMpwf1zs7p0vdobnJmWwOyq2d/aLrcFesUFAHHAccGRABmRABmRABmRABgoCQkAcCBwIZEAGZEAGK4am1gAAEyJJREFUZEAGZEAG1i8DI4vQLULvOoSKNpABGZABGZABGZCB/mRgREAISNchVLSBDMiADMiADMiADPQnAyMCQkC6DqGiDWRABmRABmRABmSgPxkYERAC0nUIFW0gAzIgAzIgAzIgA/3JwIiAEJCuQ6hoAxmQARmQARmQARnoTwZGBISAdB1CRRvIgAzIgAzIgAzIQH8yMCIgBKTrECraQAZkQAZkQAZkQAb6k4ERASEgXYdQ0QYyIAMyIAMyIAMy0J8MjAgIAek6hIo2kAEZkAEZkAEZkIH+ZGBEQAhI1yFUtIEMyIAMyIAMyIAM9CcDIwJCQLoOoaINZEAGZEAGZEAGZKA/GRgREALSdQgVbSADMiADMiADMiAD/cnAiIAQkK5DqGgDGZABGZABGZABGehPBkYEhIB0HUJFG8iADMiADMiADMhAfzIwIiAEpOsQKtpABmRABmRABmRABvqTgREBISBdh1DRBjIgAzIgAzIgAzLQnwyMCAgB6TqEijY4aQY2Hy3G935EO3bwWbr4yGeLC//wibmft/dHtx+U8d+d7vcu9j/aYdpjzv2PdxS7b/3lYvs1PzIp8f/9D/72sdruOCXaOG/zrttsFTKoaAMZ2O2uDQgIAfEBdBBepQxERyI6SKmjljpr5+/+44loVD3+zPVXF2eu++fF5it/oPIxXZcmne3oRJ22TvnoL35/0u5RBm/4ubmem54XZe+9ty20jaNebbVxZDPtRwhFVT43b3nOof09VK6/up0Mvve2Q6+7qDbtuuT7tfeOl3ZeH0UbyMBuszYgIATEh8UBcyUysPnooc5cVYmOXPmXznLHahU77k0621HvRXfKl122b/+PtZ3a6OzHqFQqx2mT47Zx1KutNp71ulPlY0pdV0FAuqjnvGXj5u+Ze78UbSADK5CBkSlYpmB1HUJFG0RH7ZU/MLWjlv9inEvI+bvfd/jX5BUcAVlXAck7tZuv/P7a+6o6husiILmElX+Bz0eIUhtFXqMe8W88vq2RhXUVkGjDL4/C/Wzn9VG0gQzsNmsDAkJAfFgcMLvOQF1HLWRiMiWr1HmKaVlHfm2PkY8VlI91FpAo8f5UtX1fBCRtt2rk7UgbdJjPdRWQae2vaAMZWOEMjIyAGAHpOoRK79ugSUdt5y0vPFFnLp8SdJKF7lFmLThuQ0AO7c8KitexBCRr41URkOO+51HiF/m6EaLjZq/pYutyvbsSkImgzpnTE39Wm9ZniflXtIEMzMgAASEgPiQOlKs0jaJOLiZn8XnvbQcldazKncqqDkeMmJSnccWoSz7tK/8FNX/s5HXf8bIjU8HitrYEpDzNJxZ8H6lPwzMb5Z3ikLq696H8i3L+WmnaUFWntnxbuaTtlve1so3nOFvTSQXkUBtHff7o9oOTGxwaeStlM39eet1ZbZBet/yaVdmteq9jXclkhLBiHydTEivqfeQztqA2rf1M/9Htletfoi51EhWf6brPal1bVbV/+T1Ia8eOTPO8su1lHdcUbSADu/VtQEAIiA+Ig+TqTcH6gca/OE8TkNhGuTM2q2Nc7nhNW5vSdArPIgWkScd2WokzNeX7lt+Xdxjz9QyTM41lrzPtV/XjCMi096jqzFLLFpBp9SlL27IEJD+7W10pd54PrYeaURbVplVl1skkyuu4JmXz0en7m903r4DMek+PM7qlaAMZ2D1ZGxAQAuJD5EC6ChmIKSrljkH8+js5/e4xBaT8a2qcMSc61lUd+joBudxR//7J88rTwJqeQnXRAjLZj/fedmg0o2lnqiwTdbfncpILYrx2XScv7UfcXq5zeeRqmW18YgHJsjKpT6nzmo+CVHWAUxvkZ2hK71mUlLVaAdl89PDowfVXT+oR9Tl01qfSSRfK9Yx8xHarPluLatNpgpu345Gslupeft9rn3dcAcnao3zmrNOy3krRBmuVgZE1INaAdB1CRRtcGa2o6iilzkr8qlrVua4TkMnox5QOVLmjVCcg5TPrNJkutkwByQWgavSoyYhB3lFN+11uj1xm8n3ORwCmrSuYZw3IkTY+xuLtRQrIZL1G9prlNs6zUtcBnnVf+f68LtOyWR4pSO/3rBxMO2XySdq0XHJxmtWOB3WMfSrJ6LTnHUdAyqNFuYSs8gJ7RRusbQZGBISAdB1CRRtkGZh0HOqmS1TM2a4TkGmdxqrn1QlIWRimPa8NAanqLM3bmcp/VU6dwKpRodTW+X15+y9KQBbdxotYA5I/ryyzyxaQWc/L378kb7PEuI1F6OVRtKr1FVVZLb8vVc87qYBMa3sC4juoyedB2V1sGxAQAuJD5cCyihmITkjV9Iso+QLcOgGZ1QFZJwGZtzOV/8I+GdHIfoHOpxylzm1er3wUqi8CUt7+sgXk0CjCLc+ZTCXMS35/2u6s12pDQJq8b4fODHbLc47kMUrVInUC0v0xWdEGTy2yDQgIAXFQcVBZ6QxsPnrk193Ucanq9PRRQPJO3by/VMdaj3zxcvz/YD7+lcXCddO/CMhyBKQs3NPKKglIk9docuKCeT5DRkBW4BitaIP9Y7QBASEgDh4OHl1mIH5Rj1N2plLXoS8vUk2/kp42AWn663w+DWXRIyCTOmXT3HKBKU9fy9u9fKVvArJ8AZkszs9OP10uVdPkVnkE5Mham4rpklVrvQiI7yl9lTXLwMgaEGtAug6h0vs2mHaa07oOVOrc1AlI+ZSkXa4Byee956M3Tfav3Gmr6giWZaLJZ6pqetvBc0uLglMpX3tilQTkUMe2po2bLibvegrW4U764VMl15VZC/dXZQ1IPn0s5c0aEN8B+gE9zMCIgBCQrkOo9L4Nygugj3Q447SkpetxpA5W7Wl4j5xZ5wcOdcqangVrEZ3j8hSy8kUMj1zzoXTq2SOd6yn70fS6GVVnvaobdTlOp3ZWh3jRbVzenzhr2sw2rjmdbtcCUt6XIxe93Hx0sn/5+1UW7kMXcaz6/CxBQCple0pW8/rn7035eYs4C9a0trcI3XeQfshu+21AQAiID56Db9cZKHc4kzCkRbdV1zeoe+60aVtpQW/VxQWXKSCVF1m7/uraupRf84gMXH/15BopVVeNbnLK2qpfq8tTX8qdxTRdJi/TOnlHLi55pe3T1LlVbuOuBST2pXytinwxetVplKMcec6Vz1DVWeWaZKT8nGkl1aMsQofqPSVP5SzVPY+A+L7q+vtK2V1MGxAQAuLD5ICyChmYdFgbXLW8fI2AaQJy+ZffmmuLtCkgDa9sXTcFremV0KumvDT+tbrUISyfera8/qOq01hu+6r9rboS+qq1cecCcmVfykIx67NQJZX5Y9sQkChHLibZ8EroTT+rRkC6P14r2uCpk7YBASEgDiQOJKt2xquqjlfcNpleVPqFf6qAXNlmuUMUHb82p2A12b8Y1anbVrkjW75WSmyvvD6jSTm0wLyi053Xs2r7s6a5xHPK+7pMAWnSxnXttGoCcrAvFVfuTldVrxrtirqVO/LRHjM/JwsUkPTeHxGKK1d0r1pknr935X09zhniTMFageO5og32p7QBASEgDhIOEquagfiVtOqaACfZXuq0zVqk3kaJ16ztjGWlrpOV789Kl81HO2nfedp47dqwwzZfxHsQ2U7POZGQKtpABlYzAyOL0C1C7zqEijZYYgZise6hBblVi3LnWDvRRbFgtvv3QFl+G8Tox+TkAflncfPRI+tA1kIoFW3Q9wyMCAgB6TqEijZYUgYOLYS+siC5alFu3cUBV6UQkO7fA2W5bXBolGPaZ7ViLZKiDWTgFGZgREAISNchVLTBMjs1MxYl1113ZJUKAen+PVCW2wZNTiDgdLly6HO4RhkYERAC0nUIFW2wzAzULEqetiB51QoB6f49UFpogyuL7suL1+OzOu8Z3hRtIAMrnoERASEgXYdQ0QYyIAMyIAMyIAMy0J8MjAgIAek6hIo2kAEZkAEZkAEZkIH+ZGBEQAhI1yFUtIEMyIAMyIAMyIAM9CcDIwJCQLoOoaINZEAGZEAGZEAGZKA/GRgRkImADLZ3un8zFG0gAzIgAzIgAzIgAzKw5hm4REAuC8jm1qDzN0PRBjIgAzIgAzIgAzIgA+uegYujveLMxqDY2NotNreHxdZgr9je2S8Gu6NiZ3iu2N07Xwz3x5OyN7owKfvnLh6U0flLCylXLWpDeeVShaPysSOxQ1Fi52InY2eTgDx5drvzN0PRBjIgAzIgAzIgAzIgA+uegfE+AZkISFhYMRp2/oYo2kAGZEAGZEAGZEAGZGCdMzDa69EakDQKko+AxE4nAbk02uv8DVG0gQzIgAzIgAzIgAzIwDpnYHfncv977QUkn4ZVFpDY+RCQ83sEpOtAKtpABmRABmRABmRABtY7A2c2BpfXYNfIR68EJGys6zdE0QYyIAMyIAMyIAMyIAPrfgass30UkCQhuYDEQnTrQLoPpqINZEAGZEAGZEAGZGA9M3B+b6+xgKS+/FoISD4KUhaQC/tGQboOpqINZEAGZEAGZEAGZGA9M7C9NZgpIGX5OPUCUp6GlQQkLUTf3en+jVG0gQzIgAzIgAzIgAzIwNplYDSc/ODfewHJrwUSjfHEmc1J43T+BinaQAZkQAZkQAZkQAZkYM1Ov/vkFQGZdQasUz8CMs+peKNRonG6foMUbSADMiADMiADMiADMrBOGXjizObB6EcISFk+6gQk79+fKgEpXxF9moBE41iM3n1IFW0gAzIgAzIgAzIgA+uRgfPZ6EedgMw6+9Ui5WNpAlI3CpIvRM9PxZtLyP7QKEjXQVW0gQzIgAzIgAzIgAyc/gwUsfbjzGbj6VfLPv3uwgVkmoTUXQ+kSkCsBek+rIo2kAEZkAEZkAEZkIHTn4H94XDSt44+9ipcAX0pAnKSCxLmi9F3nBGr88Aq2kAGZEAGZEAGZEAGTveFB5/IRj9W4QKEKysg0UiPP7kxma/W9RunaAMZkAEZkAEZkAEZkIHTmIGtzcsziwjIlLNhJQlJ07BCQsLcun7zFG0gAzIgAzIgAzIgAzJwmjKwt3v5zFflxefHmX61FiMgTadhhYCcOeusWF0HWNEGMiADMiADMiADMnB6MnB+bzjpR9cJSJKPJCBty8fSBWTaNKymoyDbW9tOzbsCYVa0gQzIgAzIgAzIgAysdgYu7E+Xj1UY/ViKgMwjIbPWghxIyPaAhKxAqBVtIAMyIAMyIAMyIAMrLB9PbBCQk4yC5AvSozG3trY7f2MVbSADMiADMiADMiADMrCu8rG37iMg846CRKOePbtpYfoKhFzRBjIgAzIgAzIgAzKwGhk4N5xfPqrWfpx6AVmmhDz2+JlivO/sWF2HXdEGMiADMiADMiADMtDtVc53BzvHko8uRz+WKiBNJaQsIE0lZGd7UDzlNL0++A7+MiADMiADMiADMtDDKVdPnLncLz7O1KuuFp+vjICcREKixLBT1yFQtIEMyIAMyIAMyIAMyMCyM3BpNJz8CB994GXKR28EZNZUrCoJSSLyxJNni/N7l4eifPh9+GVABmRABmRABmRABtZNPHYHOwc/wM8rH/OcdvfUC8giJaRyJCQbDXn0sScnZbizY6H6CnxQFG0gAzIgAzIgAzIgAyfLwHh/WGxubk/6uGXxWIR8dDH60YqALEpCytOx6qZkJRF5/ImzE1OMOXLWijgAOgDKgAzIgAzIgAzIwCpnoBgNJz+inxvuFlub28Ujj17u0x6Sj5J41MnHtIXnXZz1aiUE5DgSMs+UrFxEUok3MU7jO9gaTMQkRkr2FW0gAzIgAzIgAzIgAzLQQQaGOzvF7mAwkY0nntw4JBxHxOOJavGoG/lYtbNerYyAzCshs6ZkVU3LykuVkCjaQAZkQAZkQAZkQAZkoKsMPFohHHmZJR6zpl2tylmvOhGQWaMgTSRk2pSs8rSssoxUCUmVlCjaQAZkQAZkQAZkQAZkoI0MPFYWjbxkU63ydR5l8ViUfKytgFRJSHkO2jQJqZuSVR4RaSIjeakSE0UbyIAMyIAMyIAMyIAMLCsDj9cIR1k6ZonHouRjrQWkyWhIUwmZR0QqZaRpqZAWRRvIgAzIgAzIgAzIgAzUZmDO/uYTJeloKh5Vi81XeeRj5QRkXgmZR0TqRkaalLmFRdEGMiADMiADMiADMtDrDMzT13yyJBzziEfVqXZXeeSjUwGpE5Em07HmEZFcRqqEpDxKomgDGZABGZABGZABGZCBZWfgTI1slKWjqXiUz3S1qiMfKy8gVRIy74hI3chIuVSJiaINZEAGZEAGZEAGZEAGFp2Bs1NkIxeOecRjXvnotYDUiUjVdKwqGZklIrOERNEGMiADMiADMiADMiADXWZgc4ZwzBKPumt8rOLIx8oLSFMJmSYidUJSJSWKNpABGZABGZABGZABGWgzA1sVfdSycEwTj3nlg4DMORJynBGROiGZJiaKNpABGZABGZABGZABGVh2BrZr+qdl4Zg24nHaRj5WagSk6UjIvCMidUIyS0wUbSADMiADMiADMiADMrDMDAxq+qfTxOO48rFqAvL/A1HFI9NSBkSdAAAAAElFTkSuQmCC;imageBorder=none;" vertex="1" parent="1">
          <mxGeometry x="40" y="30" width="439.4" height="580" as="geometry" />
        </mxCell>
        <mxCell id="9I3meZ9U-eRkxAklNnvZ-5" value="" style="shape=image;verticalLabelPosition=bottom;labelBackgroundColor=default;verticalAlign=top;aspect=fixed;imageAspect=0;image=data:image/png,iVBORw0KGgoAAAANSUhEUgAAAzQAAAKwCAYAAABOJDoNAAAACXBIWXMAABYlAAAWJQFJUiTwAAAgAElEQVR4nOzda4wl533feb7NK/tdLjJgAwskQBDARrDRxbFMOUi8RmxEWS+0XmwQORdfkqxtaRFBXpKSRVuU5Ui2JYu2rDtlKbZ18Y2ylKwkr2VJtkJZV1KyKJKiSFO8jMiZnjndPdMzNdOsxf+QT/OZh1V16nTXOX2q6/MFHvTMuVTVeep3qp7veZ566pq9S/u1og5kQAZkQAZkQAZkQAZkQAb2RlgH1xz3BijqQAZkQAZkQAZkQAZkQAZkYI/QCIEDgQzIgAzIgAzIgAzIgAzsTawO9NBswE5Q1IEMyIAMyIAMyIAMyIAM7BMaIXAgkAEZkAEZkAEZkAEZkIH9SdWBHpoN2AmKOpABGZABGZABGZABGZCBfUIjBA4EMiADMiADMiADMiADMrA/qTrQQ7MBO0FRBzIgAzIgAzIgAzIgAzKwT2iEwIFABmRABmRABmRABmRABvYnVQd6aDZgJyjqQAZkQAZkQAZkQAZkQAb2CY0QOBDIgAzIgAzIgAzIgAzIwP6k6kAPzQbsBEUdyIAMyIAMyIAMyIAMyMA+oRECBwIZkAEZkAEZkAEZkAEZ2J9UHeih2YCdoKgDGZABGZABGZABGZABGdgnNELgQCADMiADMiADMiADMiAD+5OqAz00G7ATFHUgAzIgAzIgAzIgAzIgA/uERggcCGRABmRABmRABmRABmRgf1J1oIdmA3aCog5kQAZkQAZkQAZkQAZkYJ/QCIEDgQzIgAzIgAzIgAzIgAzsT6oO9NBswE5Q1IEMyIAMyIAMyIAMyIAM7BMaIXAgkAEZkAEZkAEZkAEZkIH9SdWBHpoN2AmKOpABGZABGZABGZABGZCBfUIjBA4EMiADMiADMiADMiADMrA/qTrQQ7MBO0FRBzIgAzIgAzIgAzIgAzKwT2iEwIFABmRABmRABmRABmRABvYnVQd6aDZgJyjqQAZkQAZkQAZkQAZkQAb2CY0QOBDIgAzIgAzIgAzIgAzIwP6k6kAPzQbsBEUdyIAMyIAMyIAMyIAMyMA+oRECBwIZkAEZkAEZkAEZkAEZ2J9UHeih2YCdoKgDGZABGZABGZABGZABGdgnNELgQCADMiADMiADMiADMiAD+5OqAz00G7ATFHUgAzIgAzIgAzIgAzIgA/uERggcCGRABmRABmRABmRABmRgf1J1oIdmA3aCog5kQAZkQAZkQAZkQAZkYJ/QCIEDgQzIgAzIgAzIgAzIgAzsT6oO9NBswE5Q1IEMyIAMyIAMyIAMyIAM7BMaIXAgkAEZkAEZkAEZkAEZkIH9SdWBHpoN2AmKOpABGZABGZABGZABGZCBfUIjBA4EMiADMiADMiADMiADMrA/qTrQQ7MBO0FRBzIgAzIgAzIgAzIgAzKwT2iEwIFABmRABmRABmRABmRABvYnVQd6aDZgJyjqQAZkQAZkQAZkQAZkQAb2CY0QOBDIgAzIgAzIgAzIgAzIwP6k6kAPzQbsBEUdyIAMyIAMyIAMyIAMyMA+oRECBwIZkAEZkAEZkAEZkAEZ2J9UHeih2YCdoKgDGZABGZABGZABGZABGdgnNELgQCADMiADMiADMiADMiAD+5OqAz00G7ATFHUgAzIgAzIgAzIgAzIgA/uERggcCGRABmRABmRABmRABmRgf1J1oIdmA3aCog5kQAZkQAZkQAZkQAZkYJ/QCIEDgQzIgAzIgAzIgAzIgAzsT6oO9NBswE5Q1IEMyIAMyIAMyIAMyIAM7BMaIXAgkAEZkAEZkAEZkAEZkIH9SdXB5HpoLly8oqgDGZABGZABGZABGZCB0WTguNvPexteCM0GhFRRBzIgAzIgAzIgAzIgA4Rmn9DohXEgcDKQARmQARmQARmQgSllYG8DekiOu5y4HprjDpWiDmRABmRABmRABmRABkjNPqFZlbyc37usqAMZkAEZkAEZkAEZkIHRZECPzf7J7KEhM8f/5VLUgQzIgAzIgAzIgAyQmr1j9oJRCs1RemF2L1SKOpABGZABGZABGZABGdj4DAzRe7O3AW13QrNGmdk5f0lRBzIgAzIgAzIgAzIgA2vPwFHk5sLEpeaakyoxh5WW7d2LijqQARmQARmQARmQARlYWwYOKzvkZn8cQtNXYvrKS4Tm/IVL9d7Fy/Wl6kpdXb5SX7myX1/Zf1xRBzIgAzIgAzIgAzIgA8eTgSv783ZplIuXon0bbdl22TmK3OxtQBt/MkJzGJlpEpjdEJhLl+dBAQAAAMbC/v7jc8kJwWnr0dmduNRcM2aZ6ZKYKNELQ2IAAABwUuQmRhjFj/Wl3Ox29NicdKm5Zuw9M00yEyITOxwAAAA4icx7bZ4Um52GHpsp9dRsnNAcZnhZMtQLe9V8DCIAAAAwBS5Vl+udhgkGptRTc81JkZmwVAAAAGBq7O8/Pv9hv0lqptBTszFC0zXErEtkYgyh4WUAAACYOpeqy53X1pxUqblmDNfM5DKTdtJsZ29uogAAAACe4PLlK/PpnqckNdeMZZhZKTMxPzcAAACAq4nRS0lquq6rOSlSc6xCQ2YAAACA1UnNbGfvKrE5iVJzzRiumdEzAwAAAKxPavY2QFQ2WmhcMwMAAACs55qa2c7e0lJz3JIySqFZdM1M2CUAAACA5Wc/m2VS0/c+NcctKqMSmkUyEyXsEgAAAMDynL9wqVFqFt2n5rhlZSOFpmsigDaZ2btoemYAAADgKNfTzHYuXCU0J+V6mms2SWZyoXnKIPckFwAAABhg6Nm57WapGfOsZxshNLnM5EITFR4VDwAAAODo7Ow+fYKApuFnhOYQQtMkM9EtBgAAAGA1vTTbJ2DWs7X10Cy6bqa8dkbvDAAAADA820/20iya9awUm0kLzWGGmp2bnZdfAAAAYGD2LlYHvTQnYSrnjRWa83uXhBcAAABYwYxnZ2fnWycIGNvQs2MTmi6ZiQquTAYAAAAArISd8xcbpYbQLBCarp6Zq4abbRtuBgAAAKyKi5cqQnOYHpo+Q83CFHfPX5ReAAAAYEVcubJfb53bnbe9lxl2NskhZ8teOxOVGhcqAQAAAFgd57bPXyU0Y5WaYxeafLhZVGiYYnX5iuwCAAAAx3AdzQ6hWV5o8t6ZEJqYeQEAAADA6riwd4nQ9O2ZaRKatuFmW2d35BYAAABYw8QAW09eR7PMbGeTGXLWR2jK2c2iMs/OdoUXAAAAIDT1RgnNouFmUcIQZ6ZsBgAAAFZOdflKfebsTuews9SG3+SbbF6zSbObzYVm54L4AgAAAMckNNvZsLNcaDZ16NlGCU1UKKEBAAAAVs/lK/vz9nfXdTSEZgmhiYokNAAAAMB6e2i2CM2wQhM3+AEAAACweqE5vbXde6YzQ84IDQAAADAaodkZyfTNx3YNTdOEAHpoAAAAAEKzR2gAAAAA9Omhya+j0UPTo4ema8rmqFDX0AAAAADHIzTnFlxHY8hZNtysacpmQgMAAACsh4rQrEZozs52ZRgAAABYg9A8dmamh4bQAAAAAOOjIjR6aAAAAICxUhEaQhO88Y1vrHd2do47jwAAAMBSEBpCU7/0pS+tr7322vpHfuRHSA0AAABGRaWHZto9NCEzz3ve8+rnPOc580JqAAAAMCYqQjNdoSllJpXrrrvuuDcNAAAA6AWhmajQtMmMHhoAeII//OB/r7//f/0/6p9+6cvqBx9+RLUAA7G9szP/XsX3613veb96xZGp9NBMT2imLjOf/twX6r//7Od1lv/tX/9Y/e73vH9+0C35jbfecvC6+DeAcXzXl+XZ//SHDt573S+8unG5P/ofXzTwVp988n0SdYnpkZ9HozSda4FlIDQTE5qpy0xfocnFpvxlltBsFr/4ul+v/81/evG8xC/qwFBC88P/+t8fvDf/FZnQTFNovnL3PQfHmig4/HH5Tz7+yYMMPPOf/qCqxJGp9NBMR2jITHMjJ35hzcs/+5c/8jSpySE0m0XsMz1mWIXQxK/GITJlg4zQTFNojpqnKdHnuBxSE88ZzokhqAjNNISGzCx3Uiq7w+PA2/ScIWfHD6HBuhughOZoEJqTj+My1k1FaE6+0JCZwzVy8uEm+fj5vkLzRx/6f+vrX/lLB93uv/G2fr9Ele/7pdfdXP9/H//zhb8kx/viIst8fX1+/YzXxDry9R3lV9O0LX0/e6wrns+3N/6m98dniuW1vS8uKk37I62rbX2xbXFtVKqn+Nt2rVQQv8zny4vXxb/7DDmJX/bLz9U0hCW9Jsqiuozt7arLeLxreeVnyrcrf2/qkYjnU10tGs7X9v607fG3rIc8s/G+qI8umuoj9l9Xtsrveiwjz3tXfbbVVV+hie/tUb9bTfWaHlv0GYbOQzyWPk/T9zLfN12ftRSa9L3M66nPsbKsh1h307EiUdZFvD9tbwyRWrSeeG2+7Yu+3+X+73tM7iId95Y5P+SfIX3f4n1dddWUi1jPouNyel/bcblPNsvjbnmsaDqWdL23qR7yXK/jvIjVUxGaky00ZObwQpOLS95oWSQ00SjLLyYuS1vDIt6XnwT6XM8TxEG5a31tDe9oRMQy294XJ49lL9SMuu3almi0dNVz/LtsNOSfP9+eshetLOXJJ+qp7bWxzXkvXNOvjPF8WV9dRANpUaM3f81Pv/SGpeoyTrBN9b9o+9p+OS0b6WV9LeqNXPT+VOLxruy1NTKi/pf9XpX1Ed+ftmU0rbdvXZXEerq+W5Hxvt+tcl1tx5d4rBTCIfOQX/OQlyQCcbxo3C8Nucmfb/pede3TRNtxIh0rmuQ4f01Zj11iuui6y/IzLtr/cUxe9ti66HjdtcyuumrKTVMu2pZRnl/y9zWVtjptW0ZXPpqOgfl7mwRk0Xd3FedFrIeK0JxcoWmTme/93u+tX/CCF9QvfOELV1Y++MEP1mMXmrYGaZfQxIkhX3Zc7BjvzXt7opTTVMYBMj+5pveVJ4fyep44cebPx/U/0TCO98UyykZHvr5SnprWFwfvw9ZrbEvTZy8bjnl9xsmx62SYf45YTvk50zpTwy8R9d20beX1UuUJMK+Ppm3rosxC00kw3wd5vTQ1oJq2NxoZXfvgsA3YyFmZj2WEJt7fJR9tjd9USnEvG9Pp+1HWR5nzsj7yfVi+d9H+7ys05Xe57btV7ru+9dr1o0est+vzD5mH8rN07c+yXvPn8uU27ZOmKX3L/MQxpjwWRF2U37m2LDTtx/K73HQsS/s1/+427f94X/ne8geaLpoa2VFXi673bKqrdOwr67mUmvw1Xfu+zE18B7uOy8sKTZdcRCl/iDqK0KzivIj1URGakyk0bTKzrvK2t72t3lT6nOTLA1veUOoSmvzgmw9TKxtl5ck2l6c48eXPlQ3j/MTT1ouU3pefVJZZX36i7NvNntdX+dnzX+vLz172tMR70/PRsM0bAmWDrc9Y7fJX+bKBlK8/PkPbsp84kd1wUP99hsTk9ViKXJfw5HUZ25A/V8pZ21CoozRgo0R2Yl35vlh2so303nguz2L5nSo/U76PygZino9l66Ncdvkd6dr/fYUmtm/I71bTDwX5+/LvctnAGzIP8VlSBsp6K7/z5XvL72XXPln0nS9nx8rr4ol7m9zQehwq15tfkN7n+9ynPvP9H9uXL7f8HvS9BjPfx+VnLpeZH2fKHwJK8crruZSh8tiXf+9i/+fvLb835fubPmdfoSnzEZ8p/7xlz/ZRhGYV50Wsj4rQnDyheeMb31hfe+21xyYzYxeaOAGVv2q1SUR+oM4bqHEwbCI/YJYN61hvGk9ekh+k85NSvi3lyTttU9NwgryB2LS+/ERYnjCayF/f9ktnfqJv+wxxwugzbGiZE2fe4G2qo3IZeX3ljx/mfiNd+6ftubLB1rR/8rrM98+QDdhlp8Au319ud9lY6LtduQy31Uf+3mUa1k2vadv/fYQmtm3Rtuafpy2PXdvX1JDKG1pd+/QoeSiPI3l+m6bdbctoUDaUS8qe51zScmFpymjUeWrwljK0KAuLWFSf+f5v21fljzt9yI/XTZ85P8bldd0ld0313Jb9pu9rKUurEpqm7c6PJV0itqzQDH1exHqpCM3JE5q4n0zcV4bQNNM0DCWV/PE+DdH8QJ0/HkMw/vLzX3xaiWtIljkgxnviYsj8QJuvs/x1OtYbF252DWUoh5I0bWeUZU66fT57jIdvqtNFUhZ0NRIWnTjz56P+m7YtHzKTi+ZRZ+rJGwxlPea9eW2z6LVlpK0xMWQDdlny9zc1gLp6E7u2a1GjrGwk5r8WL2qUNwlBn/3f1iha9rvV9Mt2V7227ZdcHlYlNF3b1bQ/u/Z3vtyma9e6tit/b1v95t+tfJ93HUf6sEydtN1bpY/0LLPOLvqsp62eFx37ys/RNWTtKELTlI++711GaFZxXsR6qQjNyROaRVLzAz/wA/UP//APr6z80A/90Kh6aLpKObylS2jyRkWf0jR+N8300/W+8uRQjs3OG0tx0WR5oum6OL6tLGLRhaBdn73PrHFdJ+ZFJ85FY7C76neIqUfz/ZNOzrnolA2fPussf1ndNKFZtoHbtV196qNt2/t+pmXX3fZZF01UcZjvVp/P0PYdGoPQtDW0m8S+bET3Kfny+6y3i0V1sijjiXzI1KLtyH+8aOv5X+YY0bXN+TDQPt+7oxyXh5KSo7w330erOC9ivVSE5mQKTZfUxLU1cY3NVGka61+WOLC3/Zrb1ng4SqO+beaipoufy5PDfCrht97SeEFt03tW0ejaZKEpx/qvW2jyXrTUYOgaBtdnnWXDLkFolq+PrjonNJshNOn95XVnYxWa/EeWRduRN7SXGfbaN/ttPcJTE5pVnBexXipCc3KFJiA1T+eov0T3GXK2bOO3vAg8fpXLe4b6NqzjhB8nwGgklw35JGiLGiKHoW3ISx9WLTSLTnBdDCE0+S+laYhRPoyqFOd8fHjbEKuj9EicxB6avkPw2i78zhuYRxGawzY+u5hqD03+HWkbcrYsfdbbxaI6aRv6eJTtyNe57DCnPtlvq+epCc0qzotYLxWhOdlCE5Ca9QhNfjJb5oLB8tf2putf2hpci5bb1LPTdV3HYelz4f1xCU0uW01TwK5aaMpGQ56/pkkQ+jSK8jrLh6GUv2A3NWJyeR6D0OTZapqWtut+Pn0mOiiH5uT5WlZo8vof6rt1FKFZZR6GEpqmG1qWM9vl39v8mLboRqxHEYkmFtVJn/peNHnGYa65icfSdaB5fXbNspiW3TbhwEkQmqZstd2OYRXnRayXitCcfKEJSM3qhaY88TRdzJhmT4tGRH737WVOkm2/ojWdsHIRyhsF+XUdTTcnS43IOLB33UG7T6Ow67N31WdO17IXXTReTpddNjLyKbqjvvo0aJcll5R8n7Q15vLPW0pYOTyxfL7rJnBPu9P5CISmzFbT9NdtjbLyMzXdmySf0bDv9Uxdn7VreOhhvltHEZpV5mEooWm6sWO5Xfl3Nm+QNt1MMj9els8vOkYtoo+M5MfW8n4l5f1k+v7wlR/jyvvXlMtsGzXQlP1yOuhlRwV01ecisViV0OR1VWar7Mktczn0eRHrpSI00xCagNSsVmjK56LEiTku9I8ZvsqL/fOTdN4IipNgzFSWZgYrr63pOmHFQTjNjJavr+l+CPky47WxrtjWsjHRd/revp+93JajCk253vRLZddJLuop6ii2rbyxX85QQtN2MXPbMJDyM0UmYltju/M8lPdKKD9r+rxRH+l9+Ul7DELTdK+VyFZbfbRtU8pevD69v7yJXimHhxGaZb5bbTN8dS2via7v0KryMJTQpKGxaZ+Uk3g03RQ4P17GPoz3xfe5zEPXfWgOIzTl9zjWHXWZL6ust/g8sX1l3uJz9+1hKn/USp+5aZn5MaWsq3Tsazof9c1+3/osJ8mJ9eU3k12V0DRd3B/rTrnK6+Mo391lp7XH6qkIzXSEJiA1qxWavrOdlQfDrhlWosGRN+jKdfa5IL/p4NtnVpdlh48t+uxxwi235ahCEyfwpgv/yxN722xwXQ2MoYSmqW4WzVi0qC7j/U0Norb6SPvzKNdbHJfQxP7rUx+l3JWfqfyFdlHWDyM0Q3+3jio0q8rDUEITDem27Wvap2039uzz3q7jSF9KuW6SrkX7P7a9j8yWy1z0mZuO833qqqm34ahC05a7/Ga7qxCa8v1lvS+6zm0V50Wsh4rQTEtogqlLTRzg8xnNliUOeOm9bb/SxMmqPKjGwTQOhG2/ysd7ykZ3mjZ60TrjsfK9i9aX6qKpoRi/6h72hJ+2te+29KnPfH+1NeLzX6Lbfv1sqqf4xS5O6E0Np3h80bb1pWxM97mepylHsb3RwOgaex/1ke/X9J5UB02f6ajfi/z9TQ2kfL1tY9sX1XXb/ou6bGv4lp8p6jT/lTb+3ba+tm1a9FmD+P4M8d3qs18WfYfK7/kQeTjK/i6/z2lZ+fd3UcbbZneMfLR9txYdR/pSrrftpsbl/u9zTO6i/F7ny+z6PKmuSsHoymKf7+Oi+ozH2o7LXfnK19223EXfiXwfpTqKeujz3V3FeRGrpyI00xOaRVJz0003HffmASeOPhcMAwCA5SE0ExWaNqn5wR/8wfruu+8+7k0DThz5xefLzIIHAAC6ITQTFppSasgMMCwxVCMuLC0vPjdsAQCA4agMOZu20CSpeeELX6hnBhiYcoaptgtwAQDA4SE0hAbAiogLS+Mi5SghN8vObAQAABZDaAgNAAAAMFoqQ84MOQMAAADGSkVoCA0AAAAwVipCQ2gAAACAsVIRGkIDAAAAjJWK0BAaAAAAYKxUhIbQAAAAAGOlIjSEBgAAABgrFaEhNAAAAMBYqQgNoQEAAADGSkVoCA0AAAAwVipCQ2gAAACAsVIRGkIDAAAAjJWK0BAaAAAAYKxUhIbQAAAAAGOlIjSEBgAAABgrFaEhNAAAAMBYqQgNoQEAAADGSkVoCA0AAAAwVipCQ2gAAACAsVIRGkIDAAAAjJWK0BAaAAAAYKxUhIbQAAAAAGOlIjSEBgAAABgrFaEhNAAAAMBYqQgNoQEAAADGSkVoCA0AAAAwVipCQ2gAAACAsVIRGkIDAAAAjJWK0BAaAAAAYKxUhIbQAAAAAGOlIjSEBgAAABgrFaEhNAAAAMBYqQgNoQEAAADGSkVoCA0AAAAwVipCQ2gAAACAsVIRGkIDAAAAjJWK0BAaAAAAYKxUhIbQAAAAAGOlIjSEBgAAABgrFaFZndA88sgj9V133aWoAxmQARmQARmQARmQARlYUQa+/FdfqW//0p3zdvjWud15mzza5tFGj7Z6tNuj/R4ltefzNn6XC6yzXLOpQnPnnXcq6kAGZEAGZEAGZEAGZEAGVpSBL335y4RmVUIDAAAAwJCzvbH20AAAAAAgNHuEBgAAAEATJgXQQwMAAACMlsosZ4acAQAAAGOlIjSEBgAAABgrFaEhNAAAAMBYqQgNoQEAAADGSkVoCA0AAAAwVipCQ2gAAACAsVIRGkIDAAAAjJWK0BAaAAAAYKxUhIbQAAAAAGOlIjSEBgAAABgrFaEhNAAAAMBYqQgNoQEAAADGSkVoCA0AAAAwVipCQ2gAAACAsVIRGkIDAAAAjJWK0BAaAAAAYKxUhIbQAAAAAGOlIjSEBgAAABgrFaEhNAAAAMBYqQgNoQEAAADGSkVoCA0AAAAwVipCQ2gAAACAsVIRGkIDAAAAjJWK0BAaAAAAYKxUhIbQAAAAAGOlIjSEBgAAABgrFaEhNAAAAMBYqQgNoQEAAADGSkVoCA0AAAAwVipCQ2gAAACAsVIRGkIDAAAAjJWK0BAaAAAAYKxUhIbQAAAAAGOlIjSEBgAAABgrFaEhNAAAAMBYqQgNoQEAAADGSkVoCA0AAAAwVipCQ2gAAACAsVIRGkIDAAAAjJWK0BAaAAAAYKxUhIbQAAAAAGOlIjSEBgAAABgrFaEhNAAAAMBYqQgNoQEAAADGSkVoCA0AAAAwVipCQ2gAAACAsVIRGkIDAAAAjJWK0BAaAAAAYKxUhIbQAAAAAGOlIjSEBgAAABgrFaEhNAAAAMBYqQgNoQEAAADGSkVoCA0AAAAwVipCQ2gAAACAsVIRGkIDAAAAjJWK0BAaAAAAYKxUhIbQrJtLly7V99xzT33bbbfVH//4xxV1IAMyIAMyIAMyIAMtGfjkJz9Zf/GLX6wfeeSRtbfZxkJFaAjNuogv41ve8pb6xS9+saIOZEAGZEAGZEAGZGDJDPz8z/98feutt9anT59eW/ttDFSEhtCsmvvuu69+wxveMP8ivuIVr6j/4A/+oL799tvnvzScO3dOUQcyIAMyIAMyIAMy0JKBM2fOzNtSn/jEJ676YfhDH/rQyttwY6EiNIRmlXzqU5+af+muv/76eZcpAAAADk/8IPzud7973r769V//9Xo2m02+OitCQ2hWRQhMfNl+8zd/c/4LAwAAAIYhrkWOdtZrX/vaend3d9LVWhEaQrMK7rzzzvmXLLpGAQAAMDx33HHHvL315je/edLVWxEaQrMKXv3qV9c33XRTfeHChZUsHwAAAPX82pqQmo997GOTrY6K0BCaofnTP/3T+RcrLvwHAADAannTm95UX3fddXVVVZOs6orQEJqhedWrXjWf1QwAAACr56677pr/mDzVCZgqQkNohiSmFYwv1F/8xV8MulwAAAB0D/f/jd/4jUlWUUVoCM0qhpu54RMAAMD6+L3f+736P//n/zzJKq8IDaEZkve85z3zMZwAAABYHzE6Jn5UfvTRRydX7RWhITRD8o53vGM+uxkAAADWR0zGFEJz//33T67aK0JDaIbk7W9/+3xSAAAAAKz/njRxPfPUqAgNoRkSQgMAALB+CM2sPnN2p946t1ufnZ2vz21fqGc7e/X27sV65/ylevdCNS/n9y7Py4WLVw7K3gIfWFe5ZlULzj9sqoCojKiYqKAoUVlRaVF5UZGnt7brs7PdSaKbeBwAACAASURBVH6XCQ0AAMD6ITQzQkNohoHQAAAArB9CMyM0hGYYCA0AAMD6ITQzQkNohoHQAAAArB9CMyM0hGYYCM1m8I1vfOOgAACAkw+hmREaQjMMhGYzCJGJqRs///nPH/emAACANUBoZoSG0AwDodkMCA0AANOC0MwIDaEZBkKzGRAaAACmBaGZERpCMwyEZjMgNAAATAtCMyM0hGYYCM1mQGgAAJgWhGZGaAjNMBCazYDQAAAwLQjNjNAQmmEgNJsBoQEAYFoQmhmhITTDQGg2A0IDAMC0IDQzQkNohoHQbAaEBgCAaUFoZoSG0AwDodkMCA0AANOC0MwIDaEZBkKzGRAaAACmBaGZERpCMwyEZjMgNAAATAtCMyM0hGYYCM1mQGgAAJgWhGZGaAjNNIVma2ur/sQn/7z+zTe9+aDc+oE/nj/exZe+/OX6Ix/96MLStJx4rM97v3bvvRspNB//+Md7lS9+8Yv1lNjb26tvv/32+n3ve1/9rne9a14+/OEP16dOnRp8XbHMD3zgAwfriX/HuldJ2q/lZ7755pvrV77ylfVXv/rVQdZz9uzZ+rWvfe28rKLuNolUp/GZD1NHTfXetJ/Qzf333z+vs/gLjBlCMyM0hGZ6QvOZz3y2fvkrbqxf8tKfbSwhFW288U1vbn1fXpqk5MMf+Wiv98brNlFoohHVp0RDeyii4RyNjU1t4MZ2pYZ9UwmxGYpYVtt63vKWt8zrahWkdeTEPhn6M376058+WGb8e0w5WJb0OZdtSOf1XspL035CN1GHTXUJjA1CMyM0hGZaQhM9LEkcXvZzr6hv/cAH5gIRf+P/i6QiCU28Nv7dVh566KFOoel6bwjXJgtNNDajYdVWhmx0pgbckJI0FHkvRQhF/GIej8XnTw2lpsb5YciXFwKR6jp6w97whjccbMMqaGsox+e69dZbBxWp+Jzx+cplbnIO1ik0qY6a6p3QLA+hwUmB0MwIDaEZt9BET0j0qPSVgFe9+pcOhKSUjgsXLhw8Hz04TSQhCQFallve+Vvz9/7q615fr4p1CM06h2dsckM2ZCK2LYSiqVGfehxCeo5CDDNKdd80nC/WHTIzlDyVbEJDeZNzsCnfpU3YT2OD0OCkQGhmhIbQjFtoUq9H9GwsIoRlkZDkvShNw8aOMiws9e702daTLjTRi9GnN+cwDdnUe7Fsz0GIwzI9TGkIWNdwlVRny14r0dToeu9737uwno4qT011d9SG8mH3xyqFJuWvbb+kbT5Mfvrs66bv0lHrqe9+WvTZj3M/D1nfffZhk9Actn7SsMjDHB9XtU8wHQjNjNAQmukITR8h+cQnP9kqNNGjk56LoWvLknp/3vPe99VTEpq80dB0zUn8v1xmfq1An2t0oiEQF8g3vbZNUNJroiGSv7dvo3kZoTlKIy9Eps84/8PKU/n5y2s02hrKUU9teWhbZrrepu295bqWzcEiGYq6SevOl5P2T/RwpYvu823u2n/xnjLTsYw+uUjDBst19sntorrrsz9iPYdpgOfrivoptz/W1VRnfXpEmj5Hvg9juV37sKk+2/ZheWxKPZ35sWnRpBexbeX2dNVB/llinfl7XcuDw0JoZoSG0ExLaJJU/Orrf63x+ZjtLA1JKwnByWUnenzuvffe+Wxp9z75/2VkKn/votnVToLQxLj/aGjEEK1opMeJ/DWvec3BcvMGXDrRpwZGvC6fQSwnXpsaMPG6WHaUdG1J26xZab2xXfE31tW0/EVDztoa1qnhEttxFFKDZ9FwssPsn3zWrFTHUR+p7vIL9du2q1xfPgQu1U8sMz2WZmnr0yhfJgdt5A3IaKDGMmJ78oZk/Dt91lhXvr0pI02UIty03CbyhnbKSMpt+k4sym1foYl9XNZfvo+jLDszYd4AX+azDyE08Vn67MOoy0X7MG1PkrK8fvL3tm1vOgakfZi2Kd+HXdeDJRFOmZ7aDJEYDkIzIzSEZlpCk08K8J73ve9AJOJv/D8913RNTjz21JC1P37aTGnx/3h80XC3d/7Wuw7EKi/x+CIpGrPQNDUq8sZvU4Ojz1CjrvcnWWkaipW2KRofhx1GlzfS84ZLLK9tet1lSY3ergZ8fp3NMtfRpAZh0yxpucwsIzQxfXVaZtlblDcAl2mUH2XIWd7LE43c/HOGMOTbUzYo8+1tq5+m/MTnTo3apsZwvs6m70Sf3Patu7SfmiYSSJ+vqeHdRf7dKaUrr7NyG48qNE1ZjfXnP4x07cMyj/mxqek70PVZ8h8DynXmvUhlZsvPYpgZhoDQzAgNoRmP0MSQr/y+MVHyi/jL59omCgipaRKKKPF423CypmmX4wL/fHa0JEpdvTv5usrtiJ6jo0jNOoQmGu9d96FpazS09VREgz81qpZtyC7qJQlSw6JsdBz21+m2xmdqoKRGTnzeNplZdC+ftvppa/wkiVjUWMxJjfloDLY1ZvPP1kdocrFq29a8EbluoWn6nGlIX9sscakno9zWRcLatd6uXoxyvW257VN3KTtdvYTp8y8jwouylnJTPj+E0DTlKu9l7frhoU2w+uS1vIat7TMmYp8n0cqlb9FnAQ4DoZkRGkIzHqFpkoLD3M8lZkXrEpp4vkkqYv1x/Uv0BsW1Nvlr4rmQm7YenugBiokI4r3xNx9iFv9OM6Ad9RqbTbgPzbK/ysaJ/7AN2dQY6+oFSdJT/hLe1cjtS2xfLhNN11E0LX9RHbY1yOJvXr/5tRFdPQKLhgJ2fb5lhCb1WnRNYJBLzzqFpu29+bCjJpo+Z9/hhGm/HUam2+pymbpLje6u9STpWaZu07rarvNpy9ZRhaZNWBZlua03MR8y1yevTULbdfxI9Z/L4qLPAhwGQjMjNIRmPEITDf+QlLykmcNCRMrnmmYpy4eVxXujNyZeF39zqWi7xmbR9qXemsO8Pxeiw/bSbMJ9aMoT/GEbMX0ao2kMejRG23o7UoO/XEbbOvuSD1eKhktq3MXnz+8PE8LT9Lm6Std1EEmWyusDUj337XFq67kqWUZo+k6Du4lC07bNXZ+zSwa7lt32+fts9zJ1l7a9q1c1fT+WmSFv0XenTRSGuIZmqH3Yd3uCsqcl/xGmq6c1rTdf/kmbghybAaGZERpCM51raK66fqalFyQfVha9MMsSy03vX5b8Gp0mGRv7NTSrEJpFPR15GVpokky1DdWJRk/bsKHDEMsLccuvF4jlp2V3zTrWRN/XLyM0fWdk6zspwKYLzaLP2db7kz5n16/7abvLoZiHEZq+pS9TE5ry/V2z7zUVQoNVQ2hmhIbQTEdo8h6Yrh6QvAfnsNtzmF6WfEhd3xuFlkxVaGLYzKJej3J4zFGEJu+d6aLPEKyhSD02fYfQpUbaokkLlhGaqfXQ9BWao/TQlEOTDiM0i3pV23oG25ia0KQfL9L70/c/ZLNPvebXyuihwSogNDNCQ2imIzRpeNqi3pO218WkBDHFcvxtI66PaXpvDEeL90bp04Okh6bfyX/ZXomhhKZvo2SIxkufGzamcf7LjMtP4/u7Zk/rEreTdg3NMo3hvtedtF1wn4t4G20TXixTd32uMTsMqxKatmu2Vi00XXnNh5cNccNZQoNVQGhmhIbQTFNo2u77kk+vXC4zvT9mVGvqfYnH0lTOcT1M03Z2yUpM27xo+xYxtR6avlMad12YfxgWzZxVbt9RhCa/t8YyFx8vIjXKu66dyGeBGvssZ0M2hvNGbtvnjNekC8fL16T3dl2D03b/oWXqrs8sgLGdy862dVShaROItrytWmi6pq1OdVh+//r0cDZNmkBosAoIzYzQEJpxC000/L+2oNek6RqVuGi/lIYQkni8bZa0/P0xuUAuNfHvdFPOtlnO8pnUynXHzGrp+Rgad1hOqtA0Tem86Nf+8j43bTNNHZZ0fUxcVN1EfsPPo1xDk3/GpuWkBlfX9MuLppVtEqF8+/sKTTkNctlQzu/dchihactBF6tqDCeJbFtu22QU+eeM0tTozfdpmwz1qbt8H7dlsOnC9VUJTZLoJhGIz9OWt1ULTdv3OJfSsv4WTaeef38MOcOqITQzQkNoxi00R7loP0p+35ry/jJNvTD5TGT5vW/y97YJST4cLV93PoV0/Hvs96EZ6t4TZYMsGiWxjEWNkjRu/fbbbz8Y+x7y0XYvkMOSN85iPbEdd91117zRnt9BfojpWfObXMay4//leg4zrCj/DLGs2P6ou/gs0RhLcrKM0OQSmfZbflf0fPanvkLTJwdtrKoxnG9TfLbIW8pdek+TkOSfM6Qo6jl68lJu833atE3L9m617ePYzrSf2rZzaKEJ8mykY0ma+vy4emjym2Cm+onvVxKStu9wkto0RXvah+n707TNemiwCgjNjNAQmmkJTRA9L+XNMPMS4tEmFfF4KUXle7uImdPa1h1D2o4iM5tyH5qyMXIUoUkNgHxmr6ZGTfx6mr8mL/H6rkblUYhtSz01TSUaqke5z01O3tjLS3zuo1wj0VZ36c7pywpNEO+L7c2XG/9OGVhWaIL4jIty0MSqGsNB5KptJrHIRdt9WvLP2fb+tu1ZVmgWfT+6tnMVQhPravrOpOF3xyE08Tf1ijUdP/oMK20q8YNA+V5Cg1VAaGaEhtBMT2iCEIe4CD+/b00ME+srFDFkLOQkvbe80eaidce68nUf9pqZdQpNn9l8mmZL6nNR+6JZlqJREL+YRsOjrfGe7v+S9xR1NdSWndmpi1hPvt7YjqFEpq0ehlxP03IX1VN85ni8z/rL17TduX3RPokMLcpB07qbZrnrm88+nzP9Kp/Kom0rP2e8Pn9/n+9KU0N5UZ7L78dhRbjPfuqq83JbyiFZTb1hq9iH5fvib14/fY8PeS6jxL/btnXRZwEOA6GZERpCM02hOamsUmiAoUi/YK9C+gBgahCaGaEhNMNAaDYDQoPjJl170PYLdBrmE8OOAABHh9DMCA2hGQZCsxkQGhw3+YXS+cXu5QXvQ98bBQCmCqGZERpCMwyEZjMgNNgEui6UjovTjzKNNQDgagjNjNAQmmEgNJsBocGmkF8oHbM9rXKyBACYMoRmRmgIzTAQms2A0AAAMC0IzYzQEJphIDSbAaEBAGBaEJoZoSE0w0BoNgNCAwDAtCA0M0JDaIaB0GwGhAYAgGlBaGaEhtAMA6HZDAgNAADTgtDMCA2hGQZCszlCc+ONN9af//znj3tTAADAGiA0M0JDaIaB0AAAAKwfQjMjNIRmGAgNAADA+iE0M0JDaIaB0AAAAKwfQjMjNIRmGAgNAADA+iE0M0JDaIaB0AAAAKwfQjMjNIRmGN7xjnfUN91000BLAwAAQB9uv/32+sUvfnF93333Ta7CqstX6scIzT6hGYjf+Z3fqW+44YahFgcAAIAe3HbbbXOhOXXq1OTqqyI03eXCxSsH5fze5XnZvVDVO+cv1du7F+dltrNXn9u+UJ+dnZ93dZ3e2q7PznbrKfKRj3xk/mWazWbHvSkAAACT4dZbb523wS5fvlxPjYrQEJohufvuu+dfps9+9rODLhcAAADt/Mqv/Er9ute9bpJVVBEaQjM0L3/5y+u3vvWtgy8XAAAAT+ev//qv5z8of/SjH51k9VSEhtAMzYc+9KH5l+prX/va4MsGAADA1bzrXe+a9JD/itAQmqG5cOHCfGKA17/+9YMvGwAAAE/xhS98YS4zH/zgBydbLRWhITSr4C//8i/nX673vve9K1k+AADA1ImhZj/7sz9b//Iv/3I9ZSpCQ2hWRfxSEFLzu7/7uytbBwAAwBS566676pe97GXz8vDDD9dTpiI0hGYd19PELwd33nnnStcFAABw0qmq6qB99cpXvnLeSzN1KkJDaFbN5z73ufrGG2+cf/Fuvvnm+pOf/OT8l4T9/f2VrxsAAGDs7O7u1l/96lfrP/iDP6ivu+66eZvq3e9+9/xx1ISm66aabqw5HFeuXKn/5E/+pH7Vq141/xKmEuM+FXUgAzIgAzIgAzIgA80ZeMlLXnJV2+ntb3/7XG7wFHpoCM3aefDBB+tPfepT9R//8R/X73//+xV1IAMyIAMyIAMyIAMtGfj93//9+iMf+Uh9xx131OfPn19/w20EVIac6aEBAAAAxkpFaAgNAAAAMFYqQkNoAAAAgLFSERpCAwAAAIyVitAQGgAAAGCsVISG0AAAAABjpSI0hAYAAAAYKxWhITQAAADAWKkIDaEBAAAAxkpFaAgNAAAAMFYqQkNoAAAAgLFSERpCAwAAAIyVitAQGgAAAGCsVISG0AAAAABjpSI0hAYAAAAYKxWhITTr4MLFqv7mmd36gUfO1fc8cEZRBzIgAzIgAzIgAzJwiAw8+M3temv7Yr2///ha2nBjoCI0hGa1Aduff/Ge+hLO6tPnLijqQAZkQAZkQAZkQAaWzMCp7Mfhex/cmosNakKzR2hWxsXqyvzLFiW+hH5JAAAAGGbkS/xIHGITI2CmTqWHRg/NaoK1fyAzITYAAAAYluixCal57Oz5SVdtRWgIzSqIYWZkBgAAYD1Ss3vh0mSruiI0hGZozu1enH+xjOsEAABYLTGk/76Hz9b3P3x2slVdERpCMzRxsVp8sQAAALC+H5Pj7xSpCA2hGTZQ+3pnAAAA1kwM9Y/hZ1OkIjSEZhW/EJgIAAAAYH08/NjOXGqmSEVoCM2QxPTMITQAAABYH1Nug1WEhtAMSXR1TvXXAQAAgOMeJRP3qJkaFaEhNEMSN3mKAgAAgPURIkNoduqtc7v12dn5+tz2hXq2s1dv716sd85fqncvVPNyfu/yvFy4eOWg7C3wgXWVa1a14PzDpgqIyoiKiQqKEpUVlRaVd+bsTn16a7s+O5vmRVmEBgAAYP0Qmtm8HU5oCM2RITQAAADrh9DMCI0emmEgNAAAAOuH0MwIDaEZBkIDAACGYGtrq/6B//C2+tqf+K8Lym/X1/7Ye+vn/vjvz8t3/6u31z/+U79Y//hPv7p+7etvqW/79GcnsUMIzYzQEJphIDQAAGAobvvLz9ff87N319/3qt3e5dkvvq/+O898R/2MZ72z/jvPflf9jGf/1/pv/88319///OtPtNwQmhmhITTDQGgAAMCQfGpJqXn2//31udD87We9s37Gs54Qmm97zm/X3/ac36m/7Tm/W/+D77l+LkpdbG2dHd1OJDQzQkNohoHQAACAofmLT3+2fu7P3rOE0Lyt/tvPuqV+xrN+q37Gs989l5q/86TQPOO73zMvP/mi1zSu65d/7Z31T/xM83ObDKGZERpCMwyEBgAADM1b33Vr/T3X3d9faP7R25427KwUmijP/P7rr+qNCZn5tu9+L6EZGZUba7oPzZAQGgAAMCRvffety11Ds4TQRPmfnnnjXGqSzBCa8VERGkIzJIQGAAAMxZ/f9pn6e667r/4nN+1cVRYLzVufdh3NE0LzdKkJgfkH33PDgcwQmvFRERpCMySEBgAADMGZM1v1s//Df3uazLSVJqHp00OTiwyhGScVoSE0Q0JoAADAEPzUy99cf99N262lTWz+0X+8rf5b//CXCc2EqAgNoRkSQgMAAI7K3ffcW//jl95ZP++Vs9bSJjhxs83gnnvurV/zunfU3/YPX6WH5oRTERpCMySEBgAAHJWfevmbnhSXcx1lVj/7J/+kftu7/6j+xy/96oHUJKHJ+X9e/obG62cMOTsZVISG0AwJoQEAAEflWT9zW/19v7A1L9f+wpmnlXj8WT/x0fr06TPz13/qts/Me3RCap73408XmuC1r7+lcUIA19CMn4rQEJohITQAAOCoN9EMaXnez59+sjz2RLnx0YN/f/dL764/8ee3XfW+//Hpzz4xTK1FaILvf/4N9TO++ympITQng4rQEJohITQAAOAo/F8v+80Dgbk2lVd886ly46P1f7r+1xvf+6m//Hz9v/zkWxqfe+3r3/mkzKTS3lPzEz/zmtHtxAsXq/qeB87M/06NitAQmpMgNOfOnasffPDB+r777tuY8o1vfKPe2tpae10AADBmnv8fbz6QmOf93Kn6e3/ukfralz98UOL/d911d+v7zzSce2O42dUy8/RraXK5ITTjoiI0hGbsQnPq1Kn661//+saWhx9+uH788cfXWicAAIyV7/2375iLzFxeXv5Q/dyXPVg/92XfOCjP/In/ttTy5tfOPPu3n5wU4KnSJjRRfuKn/0s9NvTQzOozZ3fqrXO79dnZ+frc9oV6trNXb+9erHfOX6p3L1Tzcn7v8rxcuHjloOwt8IF1lWtWteD8w6YKiMqIiokKihKVFZUWlRcVeXpruz47262nyLqFJnpmjltY+pTTp0+vrU4AABgzz/23b3tSZL5Rf88Nf10/9/r76+def99B+ccvfFPvZcW0zXFTzW97zm8XJYnN7zbOfEZoxkWlh4bQjFloYphZLg1XrlzZmHL27NmDbbv//vvXVicAAIyZl910c/3+979/qXLjjTfWZ848MePZVNFDM9NDo4dmnEIT16okaQiJ2DQ2ffsAANg0rl9SaMjMExCaGaEhNMNAaK6G0AAAsBw3/MIvk5lDQGhmhIbQDAOhuRpCAwDActzwil/s3TOz7DWqJ3n2UUIzIzSEZhgIzdUQGgAAluOGl/1cL6F592+/d+mqDQl62ctediJ3CaGZERpCMwyE5moIDQAAy3H99df3Epq3vONd9V986rbey337299+8N6TKDWEZkZoCM0wEJqrITQAACzHDTfc0PsampCa3/qd3+vVM1O+96RJDaGZERpCMwyE5moIDQAAqxOaVKJX561vfWv96U9/+mA599xzz7xX5jWveU3r+06S1BCaGaEhNMNAaK6G0AAAsHqhOUo5KVJDaGaEhtAMA6G5GkIDAMBmC81JkRpCMyM0hGYYCM3VEBochg/98X+vf+Y//My8AMCUhebGG3++fvWvvnXlQvNLv/RL9dghNDNCQ2iGgdCsVmhSIzcavDk3vOT6+ePveMst9VS45S23zMvnP/uF+qQR+/F7/9G187IuIlNRn2W2AOC4hCYu5D9z5kz9P/7HbfXb3vFfVyYzsb6TAKGZERpCMwyEZrVCkxq5ubg88vAjB49//M8+WU+Fpro4KRyH0PzMT/70fH3xFwCOkxCMJDOJu+66u/6F//Ibg8tMrOekQGhmhIbQDAOhWb/QxC/q8dgL/sX/Xk8JQjMshAbAphCSsbW19bTHQ3Cuu+66QUTmzW9+c/17v7d4uucxQWhmhIbQDAOhWb/Q/OKNvzh/7H2/877WIVnRi3Pzr958MGTt1T//i/U9d91z8Nqd7Z36v33wqes2Yghb/H8ZlllfE/F8/p60DbFtObHsWE+qi3jtssPPmrYvvXeZoVfxnrTuIHrIYrub3huvjfXkn+8Tf/bnvXpoura36zPGdqX3RHn/777/afUZxOt+5F/8yHx98Td9JsPPAGwiH/7whw89cUCITJswjR1CMyM0hGYYCM36hSYaoP/8+/750xqq6bX/7l/9+4N/lyUarPG+ttdEI7ipAdy1bYvW10Q01tveE58vl6FoyLe9ts/ws9Sj1VTmwrHE0KtcPN7wKzc3bkfUX8hL2zqjvkI+2pYb2/uD/+QHW7e3af+EuLStL5ZVDk1se63hZwA2mY985CPz+8+89rWv7TW07Nd+7deuGsZ20iA0M0JDaIaB0KxXaKIxG/9uunYmb5iG8MTronEcDe/4fykg0dMTz0dPz7//P//dVQ31ZbZt0frKnppcBKIBHeuP96Wep9QITw33aPznDf54T/w/yqJei6infBtj3fFYvDeG7C3bmM+3I39fLm4hheVz5eeLfZCLSbncrm0t908ubPG6lI+u/ZAvM70n7T8AGANf+9rX5oLz6le/+qDETTXjsalAaGaEhtAMA6FZfw/NotdGI7bsAYjG7KKejdRTETKxzLY1rS/vVYmGfNN25I/3eX6ZukikYVVN2xhCkT7zYYQmJLDsLcnlohwSWD6ff458uX22NT0fj6fenHi+abhekpqoixzX0ADAuCE0M0JDaIaB0Gye0DSJQpA3iBf1ZvS5NmVRj05Tgzn1UjQNmStfU27nskKTS1Vbz0M+Y9yyQtNUR9c/OdSsa8KGVC+5YJRDzhZta6qDXJDarllqew2hAYBxQ2hmhIbQDAOh2TyhaXttGurV1tjOBWAZoVm0vlwU+jSi27ZjWaGJHpKyR6OJNPRqWaFpIvWWdA3ba1pG/ljXNUxpaGCIU5/tKUXoqqFxpm0GgFFDaGaEhtAMA6EZj9Ckxm9bw31ooWla3zqFpu+9XQ47KUATfbZxkdAss61JGhcNE2zaLkIDAOOG0MwIDaEZBkJzNYSmn9DERfFt5EOk8p6VZYUmH0LXNYV0fg3KIhaJR+pB6VpWPilC03K7epPKHqA+ItQmiIQGAMYNoZkRGkIzDITmaghNt9Dkw8DaeoHSLGHl0LhlhSYfatV2XVEuT0MITbr+J5+lLSceSxMVpGFj5XL7bGsaOtbnOqH8mqR8mwgNAIwbQjMjNIRmGAjN1RCabqGJBnWadSt6acqbfcZ9VtpmCUsN8FwEFpFPhBD3askJGcjv9zKE0OSztJVTM89nKsumdM6Frpy2uWtbo/6aeoXi+VIS8/vTlNf1JNEpZz8DgFVz9uzZ+g2vf3190403zv/G/0tu/8IX5s+Xz/3WLbfMH0/lE3/2Zwev+fjHPnbVc3mJ5xL56/LH77/vvvlj8bdcZ5SS8v3rhtDMCA2hGQZCczWEZvE1O/lQsPnzT97VPpeLpl6K8j4u8Z5F903JBSo13uN96V488dyQkwKUr8k/X/5YKRfltM1N29rWsxUSVd5nKN6XeoLappjOe8vSuvregwgADkuIyt/61m+t/+63f3v9z669tv6b3/It9bO+67ueJi4veP7z679xzTVPE4n0nvib/h3Li+XGa/PH89el5bzyFa+YLzc9Hv+Ox4KQk/h/Owr+JQAAIABJREFUKSnptTm3/uEfzl8b235cEJoZoSE0w0BorobQ9JuEIBrl5Y0tU2O+bUhZeS+WvsPPYuhZ+b40pC1kYMhJARIhWk2fLx5rkrB8ufk2le9tG6bX9p4kT32myO5bBwBQEr0k0asRUpH3bsTjUXK+/3nPm8tMEpj4G+Lxkhe96OA18VjIQrwuXt8lF/HaeF0IUNfrgti+WO7Nr3vdwWPx73gstnsZofmxH/3R+Xrj9bHc44DQzAgNoRkGQrNaoYkGbJSuC8X7vjYej+fbLpCPRm9aRtfUwUOtL4jnooEfvQV9ZlbLl9u3XhatKx5ftJ1N6+5DvC7WF+vtek/Tcg9bN9EDFoLUdz/m+71PHQBASTTqo5ck9XaEZETPRfw/ZOXvfcd3HIhO3iPSNqQrJCPel3pBcklqkou+j6Xembw3KJYdjy8jNEm4YptDanIZWyeEZkZoCM0wEJrVCg0AAJtONO6f+Z3fOe+piMZ+6r2If6celHgsCUOIShchQPH6IMQmF6AQi5Cl1Pvzrne+cy5TpVR0CU0bafti+dEzlEosP19WiEwSo1hvPH8cEJoZoSE0w0BorobQAACmRtnrEkIQJV14H/8OIUjC0HSBfTksLElPiE0ITiJd95KXeE15Dc5RhCaWF69NJV3vk3++NMQtenb6SNoqIDQzQkNohoHQXA2hAQBMXWiityZKLgVJYhYNOQuZKIUlF4YmUWlimSFnaWazPkPOksCUpbyGZx0QmhmhITTDQGiuhtAAAKZGKSnRuI9elSQOaSha23P5hfoxfCsNT0slDVk7qtAkGXnJi1/cKDl9hCaGmMUwuHz74rFSlNYBoZkRGkIzDITmaggNAGDqQhPiEBIS4hLXoOTDzOK56L2Jx9JzIQshA+nalHLWsFwYjiI0QVpHbFuUfNv6CE1+fU/+ecvZ09YBoZkRGkIzDITmaggNAGBqhACUN6NMPR7RyG+a1jg9V97YsulGlWlZ8TeW1Wea5K7XxXpCYmIYW77d+XqalpWeLz9r+jzrnr6Z0MwIDaEZBkJzNYQGAACsA0IzIzSEZhgIzdUQGgAAsA4IzYzQEJphIDRXQ2gAAMA6IDQzQkNoxik03/jGNw5uXLnu2UQWsb29fbBtITYAAACrgtDMCA2hGafQbG1tHUhDEodNKfl2Pfroo2urEwAAMD0IzYzQEJpxCk3w8MMPXyUPm1aiF+nKlStrrRMAADAtCM2M0BCa8QrN448/Xp8+fbq+//77j11eyt6i6JkhMwAAYNUQmhmhITTjFZqckIdNKQAAAOuC0MwIDaE5GUIDAAA2i7jx5KZN3HMSITQzQkNohoHQAABwsnnlK15R/81v+Zb6n1177bzEv7//ec9rlZZnfud31r91yy31JnD7F75wsN1/99u/fV7S/zdlGw8LoZkRGkIzDIQGAICTLzQhADkveP7z6x/70R+tx/Y5opwUCM2M0BCaYSA0AABMT2g+/rGPzXtiguitecmLXlT/rW/91vnj8e/oGYkekFwgbv3DPzz4fzz3977jO+q/cc019Qv+5b886O2Jvz/+b/7N/PF4/ubXve5AoGKZiXhP/v+jCM1NN9443/ZYX/w7iGXPP9eLXzzflvz/8dpnfdd3zR/LtzU+eyI9Hq9NyxwaQjMjNIRmGAgNAADTE5p4LCQjiIZ79NbEtTNBvDYa99Hgj4Z+Il4fIhOPx9CvJDHxeEhQEH/TcuP5eF28PpafXhP/j2Fvh/kcpdDE9oSYxbrS+mLbo8TnCqGKx9P/0zC1eLz8f0hO+neqr/wzDA2hmREaQjMMhAYAgJNNSED0NEQPRZRouEcjPQlMNOzz3okkNEHIQjTmo2Efr8uvu4nHP/FnfzbvzUgCkHp5ErGOKPFYkqMQhnK4WzwfPSFR8vcvEppYb/S6xHakbYnXJIHJl9/3/6n36QN/9Ef1KiE0M0JDaIaB0AAAcLKJBn6ISeq5SCKT6BKakI/oWYlGfpKQkJqQovh/6v1JQpOGdzWRejrivTF8LSdJT9P2LRKa+GxpG+aC86IXHUlogvi80dMUPUkhSauA0MwIDaEZBkIDAMD0hpz1FZqQi+itiMZ9kpBo7OfLy5cfcpHLSvw7LSsNRzvMcLMuoWma7ewoQhPSlaQqDTlbxYxqhGZGaAjNMBAaAABONkcRmqCUkHguhpbFkKx3vfOd83+n5adrUWL4VzwfzyU5iL+xrnQtzRBCk29LGnKWJOqwQhPryD9DCJ1raIalunylfozQ7BOagSA0AACcbKJ3oUsiQkbyBnua5SwRgpBmK8uXmYZ3xfP5NTHx/5CgKOX1MEeRg1hnW29MrD+2J21nun9NYtn/p4kBopTD44ZCD81MD40emmEgNAAAYB2k2dHwBIRmRmgIzTAQGgAAsGrSfW5W1dsxRgjNjNAQmmEgNAAAYNXkF9rjCQjNjNAQmmEgNAAAAOuH0MwIDaEZBkIDAACwfgjNjNAQmmEgNAAAAOuH0MwIDaEZhlNndut7Hjgz0NIAAADQh3O7F+dtsBCbqVG5D013uXDxykE5v3d5XnYvVPXO+Uv19u7FeZnt7NXnti/UZ2fn52Z4emu7PjvbrafI6XMXCA0AAIA22NqoCA2hWcWvAxerK4MuFwAAAO08/NhOfe+DW5OsoorQEJphA7U/F5qt7YuDLhcAAADthMzE0P8pUhEaQrOKiQHuf/js4MsFAABA+wiZ3QuXJlk9FaEhNEMTXya9NAAAAKtnf//x+Q/J9034x+SK0BCaVfXSuJYGAABgtXzzyRlmpzi7WYLQEJqV/VoQYzmjmCAAAABgdTLz2Nnzk67eSg+NHppVESITQhNftDOzvbnkAAAA4GhEb8wDj5ybt7GmOhFADqEhNCslJCamEYwvXJQHv7k9/xUhBEdRBzIgAzIgAzIgAzLQPwPRporrZaJNFT8ax2QAqAkNoVlfb02ITLq2RlEHMiADMiADMiADMrBcBuLC/5CaEBkjX55CD40eGgAAAGC0VK6hcQ0NAAAAMFYqQkNoAAAAgLFSERpCAwAAAIyVitAQGgAAAGCsVISG0AAAAABjpSI0hAYAAAAYKxWhITQAAADAWKkIDaEBAAAAxkpFaAgNAAAAMFYqQkNoAAAAgLFSERpCAwAAAIyVitAQGgAAAGCsVISG0AAAAABjpSI0hAYAAAAYKxWhITQAAADAWKkIDaEBAAAAxkpFaAgNAAAAMFYqQkNoAAAAgLFSERpCAwAAAIyVitAQGgAAAGCsVISG0AAAAABjpSI0hAYAAAAYKxWhITQAAADAWKkIDaEBAAAAxkpFaAgNAAAAMFYqQkNoAAAAgLFSERpCAwAAAIyVitAQGgAAAGCsVISG0AAAAABjpSI0hAYAAAAYKxWhITQAAADAWKkIDaEBAAAAxkpFaAgNAAAAMFYqQkNoAAAAgLFSERpCAwAAAIyVitAQGgAAAGCsVISG0AAAAABjpSI0hAYAAAAYKxWhITQAAADAWKkIDaEBAAAAxkpFaAgNAAAAMFYqQkNoAAAAgLFSERpCAwAAAIyVitAQGgAAAGCsVISG0AAAAABjpSI0hGad7O3t1adOnarvvffe+itf+Ur9pS99SVEHMiADMiADMiADMtCSgS9/+cv1XXfdVT/wwAP12bNn19puGwsVoSE062B7e7u+++6768985jOKOpABGZABGZABGZCBQ2bgC1/4Qv3QQw/Vjz/++FracGOgIjSEZtXELwoO3A7cMiADMiADMiADMjBcBu6444763LlzK2/HjYGK0BCaVRG/HOiVcfJy8pIBGZABGZABGVhdBh577LF66lSEhtCsinvuuccBzElMBmRABmRABmRABlacgTNnztRTpiI0hGYVPPjggw5eTmAyIAMyIAMyIAMysIYMfO5zn6svXrxYT5WK0BCaoTl//ryDlxOYDMiADMiADMiADKwxAzGD7FSpCA2hGZr77rvPAcxJTAZkQAZkQAZkQAbWnIHd3d16ilSEhtAMyZUrVxy8nMBkQAZkQAZkQAZk4BgyEDPLTpGK0BCaIdna2nIAcxKTARmQARmQARmQgWPIQNyIc4pUhIbQDInJABzAncRlQAZkQAZkQAaOLwOXL1+up0ZFaAjNkMQFaQ5iTmQyIAMyIAMyIAMycDwZiMmZpkZFaAjNkLj3jBOYE5gMyIAMyIAMyMDxZWBnZ6eeGhWhITRDQmicxJzEZEAGZEAGZEAGCM06qQgNoRkSQuMk5iQmAzIgAzIgAzJAaNZJRWgIzZAQGicxJzEZkAEZkAEZkAFCs04qQkNohoTQOIk5icmADMiADMiADBCadVIRGkIzJITGScxJTAZkQAZkQAZkgNCsk4rQEJohITROYk5iMiADMiADMiADhGadVISG0AwJoXEScxKTARmQARmQARkgNOukIjSEZkgIjZOYk5gMyIAMyIAMyAChWScVoSE0Q0JonMScxGRABmRABmRABgjNOqkIDaEZEkLjJOYkJgMyIAMyIAMyQGjWSUVoCM2QEBonMScxGZABGZABGZABQrNOKkJDaIaE0DiJOYnJgAzIgAzIgAwQmnVSERpCMySExknMSUwGZEAGZEAGZIDQrJOK0BCaISE0TmJOYjIgAzIgAzIgA4RmnVSEhtAMCaFxEnMSkwEZkAEZkAEZIDTrpCI0hGZICI2TmJOYDMiADMiADMgAoVknFaEhNENCaJzEnMRkQAZkQAZkQAYIzTqpCA2hGRJC4yTmJCYDMiADMiADMkBo1klFaAjNkBAaJzEnMRmQARmQARmQAUKzTipCQ2iGhNA4iTmJyYAMyIAMyIAMEJp1UhEaQjMkhMZJzElMBmRABmRABmSA0KyTitAQmiEhNE5iTmIyIAMyIAMyIAOEZp1UhIbQDAmhcRJzEpMBGZABGZABGSA066QiNIRmSAiNk5iTmAzIgAzIgAzIAKFZJxWhITRDQmicxJzEZEAGZEAGZEAGCM06qQgNoRkSQuMk5iQmA3/1V39Vf/WrXz0oJyETcWzb3t6uz549O/98x709ijqQARloy8DOzk49NSpCQ2iGhNA4wDrJTjMDd9xxR/3YY4/VV65caTw2xHPxmuPezsOUEJic+IzHvU2KOpABGWjLAKHZrc/Oztfnti/Us529env3Yr1z/lK9e6Gal/N7l+flwsUrB2VvgQ+sq1yzqgXnHzZVQFRGVExUUJSorKi0qLwzZ3fq01vb9dnZbj1FCI0DrJPs9DIQvTBtIpMTr7nvvvuOfXvL8tBDD11Vmj5fyXFvs6IOZEAG2jJAaHYJDaEhNE4SThIysJzMjP2Hjz6ycv78+YPnm6RHUQcyIAObkgFCs0toCA2hOe4DkaIOxpSBixcvXnXQiOtM8mtM0rUnOfGe497uvPTtfYnPNdZhc4o6kIHpZIDQ7BIaQkNojvtApKiDsWQgho/lRC/G5z//+ae9Lh67dOnSUr00+cQCh92+kI8+y+grNMuW+Nxp/U31sqoyRN0p6kAGxpsBQrNLaAgNoTnuA5GiDsaSgZjxK6fr+pgYppVz6tSp1okFlplUoBzyFuuJx8peofRc/t5F5K/PiWW3LSeei+1sWn98hlJsynppkpByWU3121Z3cd1SrGOdQqWoAxk43gwQml1CQ2iOxqaNjVfUgQysLgMlXY3maHDnF96X8hPHjkUTC8TzZYO/FJr8WpdlJGUooYnhdF2fIyRwaKHpMylDW++Zog5k4ORlgNDsEhpCczQIzfEfyBR1MLapjEN2+sySltaT99QsOylBvp0hCk09KenxXLrK5/PtX5b8GqOjCs0ydVdut6IOZOBkZoDQ7BIaQnM0CM3xH8gUdbCODJQicZTGcjl0LXoTkrTE37LX5fTp063bETzwwANXPV82+EtpKGnaxq7PWhLbl3pDYvvL64fy7Tuq0JR1F//P113WnZuCOj44R5z8DBCaXUJDaI4GoTn+A5miDsYkNNH4LimHRkXDvO01fbYjBGOdQlO+NwSmbSjbUYSmrLsQp7Lu4pjctm5FHcjAycwAodklNITmaBCa4z+QKepgTEJTLqe8xqStUZ8a/n22o5SGRZMDNK2/ax2L3t80ccEQQlMuN++56rvtijqQgZOXAUKzS2gIzdEgNMd/IFPUwZiEppz6ua0HoWz4p2FbUxaasuenD4TG8cE54uRngNDsEhpCczQIzfEfyBR1sI4MNA0DO8xyFsnGotdNWWjK9/aB0Dg+OEec/AwQml1CQ2iOBqE5/gOZog7WlYHyYvum+8S09cSkhnXfazzivjU5hpw9vYcm6jSfGrupdN0rSFEHMnAyMkBodgkNoSE0x30gUtTBWDJQzrDVdcF5eWF+em05/XPMytX0/rbZuk5aD02TcPS9hkbvy/F/JxR1sAkZIDS7hIbQHA09NMd/IFPUwboyUDaoo8emaVrgUlqC/HWLplVuWk/bc4cRmnL9TZ+1ax0lRxGa6InK3xuzlsXNOtuWX257kxDFMh577DE31nRscH6YSAYIzS6hITRHg9Ac/4FMUQfH2UsTROM5DXGKf5eUM5mVjfpopMdjIQLxt2y050IwhNCUPSCxfbHc/HjWtY6SZYSmHHKXf/avf/3rT+uZKpffdB1N1HksN5YRw9KSEMWyymmdFXUgAycvA4Rml9AQmqNBaI7/QKaog3VmIBrITY3uNtoa1X2XUQ5JG0JoyutzmpbVtY6SZYQmSilsizhs3bVNOqCoAxk4WRkgNLuEhtAcDUJz/AcyRR2sOwMhKGUvRxP5XewPs4x4vnz/EEITy2ySinUJTdlLkxOy0nYNTb79TT1lOfH5HJ8dG5wfppEBQrNLaAjN0XDCPP4DmaIOjisD0XCP3o5ogMdd61NjPB5ruramqcQxJCYQSMuIv/H/tp6FWG68JpXyGpQocV1J/pq260zSeqPxH3/TvW6idK0jf65JqMptbFp/zBBXfu5Yf2xXuf196z/+hujE+w01c1xwbphOBgjNLqEhNITmuA9EijqQARmQARmQARkgNP2pLl+pHzszq8+c3am3CM0+oTkiemgcgJ2EZUAGZEAGZEAG9NCsk4rQdJcLF68clPN7l+dl90JV75y/VG/vXpyX2c5efW77wrx7K8zw9NZ2fXa2W08RQuMk5iQmAzIgAzIgAzJAaNZJRWgIzZAQGicxJzEZkAEZkAEZkAFCs04qQkNohoTQOIk5icmADMiADMiADBCadVIRGkIzJITGScxJTAZkQAZkQAZkgNCsk4rQEJohITROYk5iMiADMiADMiADhGadVISG0AwJoXEScxKTARmQARmQARkgNOukIjSEZkgIjZOYk5gMyIAMyIAMyAChWScVoSE0Q0JonMScxGRABmRABmRABgjNOqkIDaEZEkLjJOYkJgMyIAMyIAMyQGjWSUVoCM2QEBonMScxGZABGZABGZABQrNOKkJDaIaE0DiJOYnJgAzIgAzIgAwQmnVSERpCMySExknMSUwGZEAGZEAGZIDQrJOK0BCaISE0TmJOYjIgAzIgAzIgA4RmnVSEhtAMCaFxEnMSkwEZkAEZkAEZIDTrpCI0hGZICI2TmJOYDMiADMiADMgAoVknFaEhNENCaJzEnMRkQAZkQAZkQAYIzTqpCA2hGRJC4yTmJCYDMiADMiADMkBo1klFaAjNkBAaJzEnMRmQARmQARmQAUKzTipCQ2iGhNA4iTmJyYAMyIAMyIAMEJp1UhEaQjMkhMZJzElMBmRABmRABmSA0KyTitAQmiEhNE5iTmIyIAMyIAMyIAOEZp1UhIbQDAmhcRJzEpMBGZABGZABGSA066QiNIRmSL72ta85iDmRyYAMyIAMyIAMyMAxZWB3d7eeGhWhITRDct999zmAOYnJgAzIgAzIgAzIwDFlYG9vr54aFaEhNEPy8MMPO4A5icmADMiADMiADMjAMWXg8ccfr6dGRWgIzZBsb287gDmJyYAMyIAMyIAMyMAxZODOO++sp0hFaAjN0Hzxi190EHMikwEZkAEZkAEZkIE1Z+CRRx6pp0hFaAjN0Dz00EMOYE5iMiADMiADMiADMrDmDFRVVU+RitAQmqG5cuWKXhonMScxGZABGZABGZCBNWbgwQcfrKdKRWgIzSo4ffq0g5gTmQzIgAzIgAzIgAysIQNf+cpX6ilTERpCsyoMPXMQdyKXARmQARmQARlYbQbi2uUpTtWcQ2gIzUohNU5kTmQyIAMyIAMyIAOrycCXvvSl+vz58/XUqfTQ6KFZNVtbW/Udd9zhYOaEJgMyIAMyIAMyIAMDZeDrX//6/Lpl1IRGD836OHXqVP3lL3/ZgczJTAZkQAZkQAZkQAYOmYF77713ft8/PIUeGj00a+fChQv1Y489Np+N44EHHlDUgQzIgAzIgAzIgAx0ZCDuL3Pu3Ll6f39//Q23EVAZcmbIGQAAADBWKkJDaAAAAICxUhEaQgMAAACMlYrQEBoAAABgrFSEhtAAAAAAY6UiNIQGAAAAGCsVoSE0AAAAwFipCA2hAQAAAMZKRWgIDQAAADBWKkJDaAAAAICxUhEaQgMAAACMlYrQEBoAAABgrFSEhtAAAAAAY6UiNIQGAAAAGCsVoSE0AAAAwFipCA2hAQAAAMZKRWgIDQAAADBWKkJDaAAAAICxUhEaQgMAAACMlYrQEBoAAABgrFSEhtAAAAAAY6UiNIQGAAAAGCsVoSE0AAAAwFipCA2hAQAAAMZKRWgIDQAAADBWKkJDaAAAAICxUhEaQgMAAACMlYrQEBoAAABgrFSEhtAAAAAAY6UiNIQGAAAAGCsVoSE0AAAAwFipCA2hAQAAAMZKRWhWIzRbZ7ePe98CAAAAJ55Ll6r6sTOzeTt869zuvE0ebfNoo0dbPdrt0X6PktrzeRu/ywXWWa7ZNKE5vTU77n0LAAAAnHj2Ll4iNKsQmrDExx9//Lj3LwAAAHCi2T2/R2gOKzRJanKhiW6uJDQxng8AAADA6phtnyc0hxGavJemFJropQmhie4vAAAAAKvj7LknRkila2jS9TOuoRlAaLZ3L8guAAAAsCL2H3983u5OQlNOCGBSgCWEJklNLjRmOgMAAABWPyHA6ZhluGWGM7Oc9RCavJcmF5pHT5+rr1zZl2EAAABgBcx2nrh+htAc4RqacthZEpo0MUDMugAAAABgeE5vzXoLTWrLuw/NAqEpp24+4340AAAAwEqGmz16+lyvGc5ymSE0PYQmn7o5KjnuXgoAAABgOM7Ndudt7T4TArTJTJSu0VrrLNdsstBEZQMAAAAYhurylfqbj20tLTSlzExOaPpMDJBP3ZykJir7UnVZfgEAAICBbqb56JPDzdqunyE0LULT5340pdBEZccNfwAAAAAcjUvV5YPemT7Xz3T10Bx3r8yx9NAc5gabUdlR6Rf2LsovAAAAcAS2zu3M29b5DTWj7Z1kpq/QHLfArE1olhl21iQ0UclJaB49fXZ+N1MAAAAAy3P+/F596tEzVw03a7p+Zkw31FyL0JRS0yU0i3ppTBAAAAAAHG6o2alHzzxtMoCx339mY4Sm77Cz2AlutgkAAAD05/HHH69Pnzl3IDTlcLNl7z9z3PJy7ELTZ9hZ2xTOSWriRkAAAAAAFhMTbJ3k3pm1CM2Q19LEzjj1zTP1RVIDAAAAdHJue/cqmenbOzOW2c02WmgWDT0jNQAAAEA7s0PIDKE5otBEaZsc4GlDz755pn7k1GOmcwYAAACahpl98wyhWUcPzTIzniWpyXtpQmp2di+U+xAAAACYHJcvX6lPb80mJTPHPuRs2WtpmoaehdRsnd2ur1zZP+4MAQAAAMfC+QtP3GemS2bK+86M/dqZtQrNsr00h5Ga+HfsSAAAAGBKvTJbZ7efaA8vkJloUzfJzKKZzQhND6npui/NMlIT5bEz58yCBgAAgBN/f5ntnfP1w4882iozi4aa9bnvDKFZ0EvTR2qW6akpxUaPDQAAAE5aj0zMYPbIN08ftHtPHUFm+vTO6KFZIDR9e2qS0HRKTSE2c2P95un63GynvnipOu78AQAAAEsT14rHD/VntmYHPTIHIvPN/jJzmIkACE2Pa2m6rqdZRmqaxCbt7NjxSW4iCNE9t7d3cW640V0HAAAAbAJX9vfrS9XlucDEj/KPnj77VFu2QWRONVwz09YzcxJlZq2TAvSdIKDvVM6l1DSKTdrZDXLz0MNPlYfjuei2y8uTr1fUgQzIgAzIgAzIgAzIwEoyULQ/H3qyjZraq31F5tGWCQBOes/MsQrNYaSm7KnJr6lpEpvYwW1D0fJSBqap5PKjqAMZkAEZkAEZkAEZkIHDZmBRu7NJfBaJzGPFELNle2bGeN3MRgjNslLTNvtZOVlAZ49N0WvTJDhtpY/4KOpABmRABmRABmRABmRgGVlpFJe8ZBLTJjKniyFmiyYAGPusZhstNMtIzaLemjaxeVrPTVmagqSoAxmQARmQARmQARmQgVVloKVd2iYxpcic6RhitqzMHLecnAih6Ss1bUPQ+ohNk+AsFB1FHciADMiADMiADMiADKwgA01t0raemCaR2WoZYnbSe2Y2Qmi6xGZZqekSmya5aZOcRaUpcIo6kAEZkAEZkAEZkAEZaMtA33Zm2U5t6okpJeZsMcRsSj0zGy80y0pNl9i09dy0SU5XWVaAFHUgAzIgAzIgAzIgA9POQJ82Ztk+7eqJyYeWnWsYYjaVnpmNEpousWmTmmXEZpHgNPXkKOpABmRABmRABmRABmRgHRloapOW7dYmkUlt31kxi1kuMn1khtAcY09NX7HpKzhdoqOoAxmQARmQARmQARmQgaEz0NYeLdutTRLTNbxsdwmZITRrHILWZxhak9j0FZw+sqOoAxmQARmQARmQARmQgSEy0NUWbRpSVg4ra+uVOX/Ce2RGLzR9pSYXm76C01W6AqeoAxmQARmQARmQARmQgUUZWKbt2dYT0yQyO0vj110HAAAD8ElEQVTKDKHZEMEpd1bXULS+grOoLBNCRR3IgAzIgAzIgAzIgAy0Ccqi0ldgdltEZgo9MxvdQ9O3x6Zpx/URm0Wio6gDGZABGZABGZABGZCB48jAonZrH5E5P5GemVEJzSKx6ZKbJsFZVngUdSADMiADMiADMiADMrCODCxqt3a1eS90tJWPux1PaHoIzSKp6SM2hMeByslKBmRABmRABmRABo5TWA4jMucXyAyhGWFvzTKS06ccNniKOpABGZABGZABGZABGVhGTPqUvu3gvQ1os+uhITUOgg6CMiADMiADMiADMnBCMkBm9lciOKO6hmaIHpt19uwo6kAGZEAGZEAGZEAGZOCoPS16ZPanITRDS42Dj4PP/9+eHZwwEAMxAOy/4OCXID0EgoU1DzUgTza37EcHOmCAAQYYYICBPxqwzMSF5sblRnTAAAMMMMAAAwwwcNPA7SPCKctTFxpLjeHiD4YBBhhggAEGGHjZwO3v6lOYiYXml9zGKjpggAEGGGCAAQbeNnD7e/c8EguNpeb6j1l0wAADDDDAAANrBm4vAeehWGgKHkF0wAADDDDAAAMMMMBALDQQGAQMMMAAAwwwwAADDGSqAxeagkcQHTDAAAMMMMAAAwwwEAsNBAYBAwwwwAADDDDAAAOZ6sCFpuARRAcMMMAAAwwwwAADDMRCA4FBwAADDDDAAAMMMMBApjpwoSl4BNEBAwwwwAADDDDAAAOx0EBgEDDAAAMMMMAAAwwwkKkOXGgKHkF0wAADDDDAAAMMMMBALDQQGAQMMMAAAwwwwAADDGSqAxeagkcQHTDAAAMMMMAAAwwwEAsNBAYBAwwwwAADDDDAAAOZ6sCFpuARRAcMMMAAAwwwwAADDMRCA4FBwAADDDDAAAMMMMBApjpwoSl4BNEBAwwwwAADDDDAAAOx0EBgEDDAAAMMMMAAAwwwkKkOXGgKHkF0wAADDDDAAAMMMMBALDQQGAQMMMAAAwwwwAADDGSqAxeagkcQHTDAAAMMMMAAAwwwEAsNBAYBAwwwwAADDDDAAAOZ6sCFpuARRAcMMMAAAwwwwAADDMRCA4FBwAADDDDAAAMMMMBApjpwoSl4BNEBAwwwwAADDDDAAAOx0EBgEDDAAAMMMMAAAwwwkKkOXGgKHkF0wAADDDDAAAMMMMBALDQQGAQMMMAAAwwwwAADDGSqAxeagkcQHTDAAAMMMMAAAwwwEAsNBAYBAwwwwAADDDDAAAOZ6sCFpuARRAcMMMAAAwwwwAADDMRCA4FBwAADDDDAAAMMMMBApjpwoSl4BNEBAwwwwAADDDDAAAOx0EBgEDDAAAMMMMAAAwwwkKkOvm8GDkJtu/pFAAAAAElFTkSuQmCC;" vertex="1" parent="1">
          <mxGeometry x="500" y="30" width="610" height="511.8" as="geometry" />
        </mxCell>
        <mxCell id="9I3meZ9U-eRkxAklNnvZ-6" value="" style="shape=image;verticalLabelPosition=bottom;labelBackgroundColor=default;verticalAlign=top;aspect=fixed;imageAspect=0;image=data:image/png,iVBORw0KGgoAAAANSUhEUgAAA5AAAAS2CAIAAADUfNHWAAAACXBIWXMAABYlAAAWJQFJUiTwAAAgAElEQVR4nOzd+3Mc1Z33cf6e51dXpYAklsAXUthUSPKUQdklydqRd0NtYGIHAnJYG5y1vZLBWSmElczirIgdLHPTADbismbkpDYC2ZbZxJHkhCiJJQuwNJ6eS+tm9FR89jl1ts/pM90zI82Zmfer5geQe/ry7ct85szp0zf589d5UQEqQAWoABWgAlSAClAB39VYeFPV14AXFaACVIAKUAEqQAWoABXwCawcBFSAClABKkAFqAAVoAJ+bbYV0sJa/X3AiwpQASpABagAFaACVMAnsHIQUAEqQAWoABWgAlSACvi12VJGC2v19wEvKkAFqAAVoAJUgApQAZ/AykFABagAFaACVIAKUAEq4NdmSxktrNXfB7yoABWgAlSAClABKkAFfAIrBwEVoAJUgApQASpABaiAX5stZbSwVn8f8KICVIAKUAEqQAWoABXwCawcBFSAClABKkAFqAAVoAJ+bbaU0cJa/X3AiwpQASpABagAFaACVMAnsHIQUAEqQAWoABWgAlSACvi12VJGC2v19wEvKkAFqAAVoAJUgApQAZ/AykFABagAFaACVIAKUAEq4NdmSxktrNXfB7yoABWgAlSAClABKkAFfAIrBwEVoAJUgApQASpABaiAX5stZbSwVn8f8KICVIAKUAEqQAWoABXwCawcBFSAClABKkAFqAAVoAJ+bbaU0cJa/X3AiwpQASpABagAFaACVMAnsHIQUAEqQAWoABWgAlSACvi12VJGC2v19wEvKkAFqAAVoAJUgApQAZ/AykFABagAFaACVIAKUAEq4NdmSxktrNXfB7yoABWgAlSAClABKkAFfAIrBwEVoAJUgApQASpABaiAX5stZbSwVn8f8KICVIAKUAEqQAWoABXwCawcBFSAClABKkAFqAAVoAJ+bbaU0cJa/X3AiwpQASpABagAFaACVMAnsHIQUAEqQAWoABWgAlSACvi12VLWKC2shbklXlSAClABKkAFqAAVqL8K+NVOWavwaojAWvUjiRcVoAJUgApQASpABcisfoMEVo51KkAFqAAVoAJUgApQgUKDtdHWUmDl6KQCVIAKUAEqQAWoABUoNF6/gpoJrBydVIAKUAEqQAWoABWgAoWG7AvrXGAtv9x5f5EXFaACVIAKUAEqQAUauQKF+sqvbgVW0mrVj29eVIAKUAEqQAWoQH1UoFBHmbX6gXV1mk5zhQVeVIAKUAEqQAWoABWovwrkVyXaElhJq9U/1nlRASpABagAFaACtVuB/Mpn1kYMrKU1ppazI7P5eV5UgApQASpABagAFai/CuRWJuk6FV5rJrASSat+PvCiAlSAClABKkAFaq4CuRXIrPUfWKOH1BJaSb3cHC8qQAWoABWgAlSAClAB70YoKiHORk+udRtYK5hWvdxcrjCf9xf8ucW5+b++5heWwl5iAl5UgApQASpABagAFajLCswXS0H+3GLBX8gX/pqgiiZXBzPrTY6n1UBIzfsL8wtLS9c/WwYAAEB8169/trC45M8t5kz51c3MukqBtZycms3P+3OLC4tLJewSAAAAhFm6/tnc/P8kVxleLZ0EqnUnVtUCqzGtBnqj5grz8wtLn9GcCgAAsJIWF5fy/kKg56uxtbUqmfWmKraqGnup/v9Kzc3PL67ojgEAAIBq6fpn/txiOa2t9RBYI6bVOaIqAABAFVtbC6GdBKqSWVcvsBrTavCeqsI8N1QBAABU3dz8/zS16rF19TPrKgXWKGmVhlUAAAB3LC4uZfNOZNabqtu2KpM7gwAAAAC45rPl5cDNWFXJrDdVPa1m83N0AwAAAHBWodqZ9aaqp9XrPAUAAADAbXPzi5msHzezuhhYSasAAAD1ai5+Zq2lwKq3rf51a7M+PQEAAABqSMFfiJVZ3QqslmcEGNNqJusv8qhVAACAWpOPmVkrEltXKrDa0yojWAEAANSi69c/y+bn7JnVucBaQttqvjBf7VIDAACgRAuLSyLUhWXWio8YUPnAahkT4K/b5hUYFgAAAKCmFeYW4mZWhwKrPa1e8wrzC4vVrjAAAADK5eX8WJnVlcAaGBYg2Laa9XP5ubKLAwAAgOqbX1i85hVEYA1k1oqPGLAagVWk1WtegZEBAAAA6kY25xsza8VHuVrZwKp2BshxrxUAAEA9NrJmlMwaCKwVyaw3rULz6jWvQPMqAABA/fGyf415gcBa8UbWm1ah9+o1r+BlC9WuJwAAAFa2kbXo3VfVD6xhaTWdyftzC5WuDwAAAKovncnb775yNLCqIwOIwMrYqwAAAHUpX5g39mStfmC1DL+qN696Ob/alQQAAMCKmF9YlI2ssmNAZQdkvalSvVdFYNWHsqI/AAAAQH1L3wislsxaZjvrTRVpW1UDa6B5dfZabnHperXLCAAAgJXi5Xy9kbWC7awVC6xh/QHS13IrVhwAAABUX8GfVxtZHQ2sxrFXRfNqhgGtAAAA6tr8wuLstZw6XIDTgVXvD5ArzFW7hgAAAFhBS0vXA4G16K1XsTLrigfWgj+/kvUBAABA9c2ks3ojqz2wRs+slQ+s6vgAs9dyc/M8MgAAAKDOpTO5sF4BxoECViqwGnOxMbDKtDqTzi4sLlW7gAAAAFhZGS8f1itAHVSqCoE1bARWNbAyphUAAEDdy2QLM+msvRtrFQKrcQTWQH+AmXR2iUFYAQAAGiOwzq7MWAEVCKx6fwACKwAAQEPx3A+sen8AWlgBAAAah+dyYLU8MmAmnb0669ElAAAAoO5lvPzVWY/ACgAAgFoKrEVHY6WFFQAAAKsaWEWvABFYozw+YLUDq/6MK7oEAAAANGBgTUd+3lUVAqs+phV9WAEAABpBpkYD69VZ79OZDDddAQAANHJgzSrPu3IisAaaVwmsAAAAjRxYvf/dyEpgBQAAQHVkvPynM5mwwCobWQmsAAAAqGZgFY2sBFYAAAA4h8AKAAAApxFYAQAA4DQCKwAAAJxGYAUAAIDTCKwAAABwGoEVAAAATiOwAgAAwGkEVgAAADiNwAoAAACnEVgBAADgNAIrAAAAnEZgBeqcl82++sab3334h9+6P/F/bm6Wr41fufdb9yeef+HE5akr1V5HGDz/womnnz2ivygWgAaU8fKfzmSuznoz6Ww6k7/mFTJZ38vNebm5bH4+m5/PFRby/mJhbkl9+fPXo7xuijidP389sIC8v5j3F3OFhVxhIZuf93Jzmax/zSukM/nZa7mZdPbqrPfpTGZp6Xq1Cwi46/LUlUBIDXt96/4EsdUpl6euhO2si+OXqr12ALDaCKxAfXr62SNRoqp83bx+c1Va794/N6K+SGNC7wsnwvbUvkM/Wf3dhBXiZbOcAkAUBFagDrXtPRArrVYxDAVW4JvfeXCVV8BNX7vv22H7aONX7q322qFihs6e5xQAoiCwAvVm36GflJZWxeuV10+t5tryaa27OH7Jvo+Gzp5fzX2ElUNgBSIisAJ1/vknWy57XzgxdPb8xfFLF8cvDZ093/vCiQ1332PsG7Ca/VkJrCV85Xj0if2rtoOwogisQEQEVqCufPfhXbEaTY19JVezYwCBVbfxK/cW7XC8ajsIK4rACkREYAXqih5unj5c5Faqpw8fqWIvSQJr0f4AG+6+56v3bQv88Z3UmVXbR1g5BFYgIgIrUOf9AYq+y8tmP7d+U9x3CRfHL72b+qUcIvTd1C+j3OZ/cfySvDM6sNyv3fdty6ABJdxSHWV6+zReNqtu4/vnRrxsdnnFPPrEfr3BW28IL6dXgCij3KJX33izzI26PHUlcBi8f26k5LmJI+TVN94MrGHE9+oHib2LS5SDqug8L09dkSscZW3lfJ7X9mzgFGC8OUAgsAL1HFgjtpXuO/STb37nQfVV9DP+6WePhP1yLUbIsgSgb37nwYh3gAUGDSihOSrK9GHTeNls2HgLbXsPrFCSuHn95sCyLk9dMQ7LWkLEfCd15rsP/zCs2t99+IevvvFm9LkVPQza9h6INU7Z5akrbXsP6BVQZ1i07PpBYv+RIcpBZZnnxfFLxtGOb16/+cChrrB9FPH4j/ILCdAgMjw4AKjvFtaKNwcOnT0fFikCr+dfOFG7gfXi+CX7Zt68fnPFR1R4J3UmsJSv3rdN/JPeKyDW0iv+FImhs+eL9rUVL0tuK23kYPuAwasZWF95/ZR9Vb9237eNkZ3ACsRFYAXqfDikyrbQFP2EDrza9h6oxcDqZbMR01hlM6veH6D3/4d+vVfAdx/eFXG2RcN34HXz+s32ltG4h8HX7vu2PbPGHTnYeFytcmANG5Ej8Nr4lXv1bSewAnERWIG6ovdGLdoiFV3cmBIWF9wPrLHGsq3gqKjG/gDin0ruFXB56kqstCpeN6/fHDbz0g6D7z78w8o+5yIss65aYI34lca47dE3ky4BgEBgBeqKfsu/eG38yr1PP3uknAefGnPP59Zv2nfoJ0Nnz4vXK6+f0n+51iPdK6+fevrwEfEKTLnh7nvkPz19+Eig/XJ1AmvY+ujNn7K2JVc1UJaw/gDl9AowPjRL7LhXXj/1TurM04ePGEfkNd7XFRZ/RaHeSZ155fVT+w79xPjFybi2YfH30Sf2v/L6qaGz599JnQn7/iCbn1c/sAZ2075DP3n68JHvPrzLuOHqFw/BclAFTgEeEgEIBFagrnjZrDF8qOmqbe+BV994M+49Q/rNOl+9b5uxEU6Pod+6PxE221gBdJUDq56HLk9dMSZyY3IqfwzdwGz1bPe1+75tn6cxDj76xH59xxlDoX6QGO/Z0jffy2b1QunJ3stm9fi74e579OUaK29sBl7NwPrV+7bpwwXEOkIY1gqIiMAK1JuL45fCmnmM4TVKs6v+e/SGu++x/B6ttxuFLcXZwBqWMIxfCcpvZPWy2aJ5Mco0AfrP1paer3piDkQ9Y7eEWIUKtBfqHXM/t35T2KFiPLD1MLpqgTXsFDBueNiBSmAFIiKwAnXIy2aj9xMVecs+npHe/GYfuF5PNmGhwc3AGvgtPkqzZZmjXBXtDxCxFdZers+t32RZT/2mvUC61Q8De6H0PBroFaB3V7CHyygPuVi1wGo5BfS9SWAFykRgBerWO6kzxl8nw17fuj8R1mgaCBYb7r6n6NIDiTnsA9vNwFq0b6jehFZmrwB9zCnjDGP1CtDzZdHHDfS+cMLSh1jPl/ZCXZ66os4t0COzhNvIorQxr1pgtW94xKfp0sIKRERgBercxfFL+w79xN6xVf1YjTJsZNGYaExLNRRYizaX6n0eyrmb2xjdjOtgTGxhv6HrrexlDsIVN1/a6XvT3l4rFH1K7eoE1rgHXtjxT2AFIiKwAo3i8tSVV14/9egT++3hVb+RJeJ4k0VfNRRYixZT/206SoiP/tO5JbrpvQL2HfqJcUr9fqZyhonQix+loT1WDcM2xP5FKJBHCaxAXcrwpCugAV0cvxQ2mJGeGyoVWI1Nhg4G1ijRU38kVTmBVf+pvW3vgcDD6+XrwKGuiLd8lRDELSreFqgH1iit1EXfRWAF6lKGwAo0sldeP2UcUkBtZK1UYDWOKFmjgbWC6c3YHyDuK+LzP0tbw4pvskBgpUsAEB2BFWh0xge6qp0dGy2wFh3cNNZt4EXFeqpW2Mt4NxWBVVSAPqxAHcjQwgrAPgCnHhOjP8W+qBUNrHrjpYN9WKM/4dPyMt6Erredl/PYJL34ZY4+Sx9WWliB6AisQJ0oJ0/Yf5zV70wv87fgVQusEacvYZSAomPsl9O8XdpLHxZ0FUYJKGf0Wb0fcJS2bb2/b9FRAuyDeel3vDFKAOAgAitQJ4wDHkUcdajoIE2B27PCBpUsQawAqsc7+5pEySLGHFZ0UFX9BvzSsqDeH+Bz6zd98zsPFn3pN8zpsayEcViff+HE088eka/ARukLLT4OqzK3p5+tzjis9oNKP/gJrICDCKxA/dDzRJRmP+Pz3AOJTf9Qtz/pSoTL98+NFE3MsbKFMVxafubWf22PGFjtjdMVfNKVvoYRH0Cgr4M+HpnehGlfTz1BFn3Slb1NVF/Jogk47pOu9KG1jF2uw7baePATWAEHEViB+qHHyqJtYF42q//Gqt91buxvYAmjgRyw8Sv3hrXt6Yu2b6M+/dfu+7ZxTdr2HtAnjhhYLcHRGHGijHivixsoA6sRZV/rifC7D/8wbJ7fffiH9vho7MBgKZQexwPHlR5Awx5dIZauV14PuMaGW+NWe9ms/oAxAivgJgIrUD/COkS27T2ghwAvm331jTeNd/wY45feITIsKRpDcFisiR6AwjqPijVR21mHzp43BpFYgfX/3Nz8vLYml6euGPN9af0B9C8YsYKvXgr9Zjg9EYrjQd9x+vCuxvSsHwbGQhmPAb011Mtm9TvDNn7lXn25xsp/bv0m4xFofCLxdx/+oTrbd1O/NO7KqgfWMp/vANSrDKMEAHXfyCrbrr51f0K+wiYL+5Hd+Ml68/rNBw51vX9u5OL4pctTV8Sw9noz2OfWbwprODQ+vOBb9ycOHOr61v0JfU2MrZLqBgbyXzmBVYQn2f/S2GRbzgOfivbEsDP2TNADnDG9iR336htvvn9u5Olnjxi/txgbxcNGjRWFejf1y1ffeNN4DITFer2fsXi17T0gVk/M0DhNWLnC5inWM3CQ6BF8NQNr2OH3rfsTbXsPfOv+RDm3tQH1JENgBeqJl80aA0r0l+XxmMbmuigvS4dX+zyNKxN9A0seJcCS+41LWeX+ALF6BVwcv2R8NoT9FdZ4GRaUi74sCc/Yal70ZRlbzdhwG/aKMvbZigZW+8FW5sAOQN3IEFiBOlNOZi16F3msJBflNhp7tjDGgohDQYltiTJD/b1eNhv23NpK5Qk9pZXQEVafifEuqLiZ9XPrN9l/lY6bWb963zZ7j+e4mfWb33nQfj+fpSVeb6OtbmC17x3LF0igoWQIrED98bLZuM9P2nD3PUVv/BfeSZ2JmH4+t35TlDxn/8Au4S1q8o6SM4wLLbqIiFsXvXE0Vn+AuOMVXBy/FPFrzDe/82CUPpTRD4N9h34SZXi16O33EYe8DXvssHzJ3VfdwGpf1Shj0wKNIENgBerV5akr+w79pGhL4Vfv2xY3eHnZ7NOHj1jmvOHue54+fCTiKLAyYRs/sy0DEhnf8tX7tqnJu+TAKhZhbFH+3PpNjz6xv5zOhZUaGCtu8H3l9VOW2Br3SCh6GHz34V2x+ktcnrry6BP7w6JbCWUPm+E3v/OgumJVD6xyVY1bHX17gTqWIbACde/y1JWhs+efPnxEffW+cGLo7PnomdLo4vild1Jn1Nm+kzpTTpIbOnterOo7qTMRs454yyuvnxo6e760RduzhZfNqtUrv2hVd3nqSmCvlVw64eL4pVdePyXnJvZFOVUaOnu+94UTgWO15LmJPTh09rw4qBzffWI9xU4pZ6uBOpMhsAJocHEbwwAAq4zACqDREVgBwHEEVgCNjsAKAI4jsAJodARWAHAcgRVAoyOwAoDjCKwAGh2BFQAcR2AF0OgIrADgOAIrgEZHYAUAxxFYATS6wCMVIj75EwCwagisAAAAcBqBFQAAAE4jsAIAAMBpBFYAAAA4jcAKAAAApxFYAQAA4DQCKwAAAJxGYAUAAIDTCKwAAABwGoEVAAAATiOwAgAAwGkEVgAAADiNwAoAAACnEVgBAADgNAIrAAAAnEZgBQAAgNMIrAAAAHAagRUAAABOI7ACAADAaQRWAAAAOI3ACgAAAKcRWAEAAOA0AmvNSKfTEybT09OWd01PTxedBnV8tFR7RVDNA6BSJ744ltLp9LJLBgYGenp6hoaG9FX1fb966wUb3/fZRygNgbVmpFKpveF6e3tHR0f1d/X29op/rcYqo/pHC/ugkQ+ASp344lhKpVLLzpiYmJBXP/Xv4i98VXOW3HHsI8RFYK2TwCokk8nAuwisFTcyMtJ7w3K1idUwtqIRWB0k9tfIyEjDBtbp6WnLQRtLOp1ub2/fu3dvT0+P+veVC0Ny5Ss+54ZSwcA6MDCwaicUXEBgrRmWCDI6OtrT02P8UCGwruaOWGWW6747K4mqtFO6GVgr27omuj0Efv1fucAqV77ic24oFTwGxKebUw3/WFEE1ppRNIKIs7ejo0O9ghNYV39HrBoCa20hsK7Cz8EEVscRWFEyAmv95KTp6WkxgfoTSZTAGvfGLHm/V6y7fyLesVHBLvkl3HAm19ay9OiBtYRtiXWzVKzAKqoRPShU8LYt+92BcXfT6txPFnffRbkDMnpgLXlnybUtp4VV3yNR1jzKfoweVuJeNwKrGjb/kmcbt4W1gvcVRTm0yrx+in1nrEncchVd2yjHQMStiN7CWq2bUFfnpmc374lcCQTWmhElJ+mfK5bAmk6nk8mk2gW2o6MjlUqFXSOmp6f7+voCvWb7+vrCzsaJiQmxdKmrq+vChQthK3/hwoWuri51+t7e3hIuMb7vJ5PJjo4OdbuSyaS+Xeon0PT0tOxWIehvCWyOpK9k9G2R11zf99X5l9CbWd3v6tEyOjqqrkxHR8fAwEDYXvZ9P5VKqdUTpYh1NZRlmZ6elosOHIRxDz+xUYHdKr6bGQ9yvSYRPzJjHYe+7w8MDNjLpd4eFJht0bmFHbphaytqWFpg1Zfe1dUlbuW0FNN4uukHWJSDVk4ZqH9XV5dx0ca8ErZn416O9AXpKruUMmeldgwTenp6jHfiqte9kZERtdpq9+LA6dbV1aVf6tXDTL/OGE/n8s++sBNKv2yWeTXzfV+8ZWBgwDhBOp0WEwSGqgg7kY3Ltcdu8Xb1X8N2XyN0jch4+U9nMldnvZl0Np3JX/MKmazv5ea83Fw2P5/Nz+cKC3l/sTC3pL78+etRXjdFnM6fvx5YQN5fzPuLucJCrrCQzc97ublM1r/mFdKZ/Oy13Ew6e3XW+3Qms7R0fblhVDawTkxMBE5j9TKnX2VGRkYC06inon4hU6fv7Ozs7e0Vd0gY7wxbXl5Ws4ucUojVp356ejpsu7q6ugLXC3nmq+9Slx64nyPi51Ygh9m3RV6tAh82lQqso6OjxomNUcb3fXU11FIY93IYubHqvlCXGPfwC6xYoKSVCqwie0Xfd4G16u3t7ezslOWSWxExsKrhPiCs+GFrOzAwEDewWios118vZvTTLcpBqx9+sp6WO0qjBNa4lyPjgoyVUScLbKN6+ti/deiGhoYss9Kntxy3+vRyhxovDuLQNW6yfhzKwyzsOqOfzuWffREDa0WuZsePHxcHs303qdsY90QuObAGak5gzRJYayiwyq+DRQNrOp0WHzM9PT3yqiG+jIo56NPLcz5w4RBXgbDpe3p61A+tgYEB46VK/l39Rq42eUZsZ/V9X2xXYD1HRkaMNxTLM7+rq6unp0deStLptLxeB746F90R8l8HBgbktov7i+VVxtjzWGy+eEvEzzZLceRqdHR0HD9+XF0TWVU9gYl/ClRvdHRUVC/QPbroinV0dIhZiXfJ98Y9/JaXl/v7+/UjZGJioqenp6OjQ3w8lB9YjcehWIpxerFWEU+Kou2UYisiHrrqLlb3bzqdFh+xYp2jB1Z5fBorbFzzuKdb0dY1+QOOukW+78u9H3hXxMAa93JUWpcAmR7CVj6slc4yK7W9U+5Z/aJkPxL0EskN6ejo6O/vl29RLxrqu9Rzs7+/X190V1dXR0dH2Onc19e3Emdf0ahXkauZ3BfGgCvO2ePHj0c/kfXllhxYRc2Njej1KkMLa90EVtmKoJ5axsAq/mhvSVWvDuKq0d7ebmlJVT8JjN87hePHjweGjA37VUWI9bkrLnnt7e2W36GM39Q7OzsDb/F9X7TuWIKCvgL2bRFlD3xZl0GhhMFZLB+36mdY4J983xeXzsA/GY8fuV3iLRG/xIv5tLe3W34Ci374yc7Z+tLlbio/sBqPELkU43EYtoiJiYnOzk79Z3HLKslDV6+YsW+6DIv6/pXNQtFPHFl247bLpqnAmsc93eyBVWS79vb2QCQSxF4O/FPEwGq5HIlhqiJ+5FsCq313yCgWpVVPzsq478Se7ejo0K85xrrJuGzso6IvQh45+tz0RavXGf0SqlbeeKKVefbZo14Fr2ZiYv37hjwx1ePHsq+np6fFrKIcxpJ+6slaGS+h9S1DYK2PwCp/m+vs7FT/rgdWeYELa1cQVwf9/DSeG8a5xbqPXpzhei4MfMGN0utIVCAs+YkLbuCHaUu+DNsKy9bZt0Ve4PRvFGFvsbPsR7mSxrqJ9QxE57D9bnmLfcWMs4p4+KnXdLFo4ydioDmqnMAqPtrDEp5ciroOloPHyLJK9kNXXzfjF0W9yBEDq35qGI+lwJpHOd0CAS7iDTcR1zBiYK3UsB6WwGrfHfJrVZRG1qJ7NnWDrJIIhcavDer3DfUoVX9TDlu6voNk+lT/KGsbdhjo3zTKOfsCNbFEvQpezcS66RPLL2z6SWH88qCWSx/Jp4TA2oAD0GYIrLVCHuuBR7OmUim164/xVzP1QiCuO4Fcqy8oYoSSIcz4dTlKzy3xA4rlUz/iySkXGrZE/YJr//iUV8nA3y2ff2JbLF/c9YgjdlDYBa78wGp8o/6vMuJYbqGzfI4aV8zYcFXC4SeqailRRQKrPX4ZN0p8KHZ1dcUa1cHYIms/dPVD0R4x4/40oR+WKnlsGD81o59u5QxpZPmlqGhgjXU5Ki2wym4YYe8V4SbQPGlUdFYBogjGlt2iX9QtTeP2W1TtCUyfQN3wSp19lqhX2auZ8TPOeF1Sb4owzkqumD6STwmBtQEfFZYhsNbNk67a29vDevmoVyvZ6ygVQv5IHTbaSCqVEo8YUbu0G4OyvDtyaGgo7ByWnyVh62NJHsb6hM1HxvqIZ37Y55MlCxbdlkDnsDLHvq5gYFVvrLFXL8pVsuiKxTr8xP9avtJU5KarEo5D9aaHnp6eVCplL07YKslmreiHbtHDpmiijd7mbWTNUj4AACAASURBVFzzEk636J+109PTFy5cSKVSfX19vb29shNtaYE11uWotMBadHeEffstYVYB+iUl+smuTxz3n8TMA62M9ndV6uyz1KqyVzNjO7Hx5zJ5IltmpW8IgTU6AmttB9b29nb5vEfjd1z9s1z2Uiqq6JhWoqnMeOaLcT0CE+vD08gbxYqKHliLkt+qVyiwxtoW1wJrUWUG1hIOv6LLLT+wyo+fogIzHB0dVe9kl5HImIfCVin6oStXOGJMiRJYo4RIsY3GwFqUsfdk2LL0QYgEsQIlB9aIl6OIhdL/qejuiN6kV3RWAWK2lrZJPStXPLBaDjO90bGCZ1/YxTNsyAJdxMAqfi5Q24llPyW9GvbAqq8zgTU6AmvNKK0nlv5ZLs+0VDHGNNPT0yMGzRkdHRXXIMuZ7/v+0NDQ8ePH1Q/1QFdx8cf+/n77yhS9shRt8pFWOrDG2hbXAmv06pW2YiUcfkU/kssPrPKLU2nH4ejo6MDAQGBYKH2Fw1aphENXLMty2Ig6RwmsYb942te8hHUuesbJdtD29vbjx4+nUqmhoSExerwxGMUahzXi5cjCEub0QB/9vXFnFWA5zot2hapUYLV0YND7GFTw7Cu5hdV4cEb5FUL2STD2ZIvyGa2fuQTW6AisDRdYY3VRDYwPYvwYKPppJ6TTadnIof62UjSORBTl55iAFQqssdKna4G1Io9LKbpisQ6/olWtyLBWgQ+k0vi+r45fEyhm2CpF/704etfnWM9ktp+DxvHyjF1Uyznj5Pnb39+vJ8iKBNYol6MoK1/C7oherrid2ovezqW3BVY8sFq2K+KdA6WdfUUDawUf/qTul7CbwIp27LZ0CQjbg/r09GG9yoMDGiewxrrvXrB0IozSPGMfh1m/K7w0xk5FqxxYjXdG10RglaGkIneeWlashMPPfhtK2B3xlsBqvBW6Useh5S7ssFXS22+KKnoTj7EmYYyDRum7TF3zEk43+xknjsmwu/HKGSWg5GHhw1a+hLvOo99KFf32LPUedsuc9QN7JQJrWMH1DTceA6WdfWEXz8pezdSLhtgvoub6dd54T1XRUV0t3y2NI/oRWK8SWBsnsFoGlhNEz3f9SeLGk9B4wbpw4UIymTR++upDgcjuQWHDuCSTyQsXLkT52U587gbGqVYXNDAwUHREQP1fwzY51uB/YdviSGAt+pkqfvUeGxsrc8WKHn7ipzrjrQzGGcqRJgMHufgI1DdHjuxtHK0z7DicmJgI7DsxwJDxYAv73LJkaPtN/fqhaxycVbI8gsFItjVaxs3V19x+uolbM8MeqhkWWI2ZL2xo0oiBNdblyMIS5uy7wz48c9isjBPLc0EehzID2S9i6uavRGC1nwjGQbWin31hnwKW1ugKXs0CIXh0dNQypoEcOcQ4E7HCgW9l4gpm3HZ53wiBVaBLQCMGVsvgeeoNy0U/mdS+rerVR7ZbBK4v8hFHgUeDyCH6A2esHDI6bJTBKE1BgVUtOiKg/q9hP3LpqVTdlsC/qs8JrGxgNV6vSwis8pNSH/1HjvIb6ydmy401sQ4/WVX9mq4+cjOwbjKEqY+m9H2/r69PjoSvrqEcsVLv1Gg8Di2jIcp7kI3DRhprKA9dy4M0jeON6w97VB+XGnF/yaHU9W1X71XSbzgLO93kP+kHZ9hbwr7siV1m3JyIgTXsciQLFfEnEfv4l2G7Qx48YQMJR59V2Gko5m+ZPuwJf5ZtjPhP6r13gbKEXb2NV924Z59aKH3PVvZqpidLy0eSOoZa2GUh8N1JHUlazlM8qNb4zA5aWK/SwtpQgVVe4+RwPENDQ+qIQoGrhoxo4r5aMbKV+BSRbzG2XHZ0dAwMDFy4cEE0EcnP0cCFVT7NUtxhLdZHnT76LzuyvU2sqhgcR14polw69X8N+6rd0dEhhmgIPEhafUy5WIeBgQHZqhdoOCknsMqN7enpESNFlBNYAzt6YGBAHBVq9SL+/mupagmHn3pNF0eUOr3YBcbnA8sd0dXVJScTu8C4hupSohyHciv6+vqGhobGxsZSqZT8o96ELMsu1iew02MduvqRNnSDmF48ZyvWR7LMi3qFxRh2xqM07jqr7bXioJUf3uojtURzmnriVGQc1oiXIwv1sWrqc1MDx5t+8ITdAGBknFUymZSz0oNp2JFgnH4lRgmQfTbkFU+WN5DPwq66cc8+9aAVJ1TgjKvU1UxfQ3vvBfkdT5wUYrny+m98o7xoyM8UsdVyEwisAi2sDRpYA20nqkACs0wsgoXx6iNvPQno7Ow0/jY3PT0dGB5IXlbi9kMKG3Cnt7c3rI98rMCqb13g7bG2pZzAqrbaBhqKSgus9h0X/fpuqWpph5/6EHD9CAw7yPW3iF1g2e+x9p1ctC6sw4M6qpf+u2HYoas32FvWVnwSRx/WythcHdgdlqPUsh/tj30SAmNbGos/MjJS5k1XcS9HYdRoqH/5DJyP6lLiZqO4s5qeno4+/UoEVuMKG8+aSp19ga9MxtWuyNVMFTaMY4AMmhEvC8bdJyYW/01gFQisNUO0a8ZNNuJaH3a2i354x48fF9/qBgYGLKfxxMREf3+/mPL48eNynmHjg4g7pgNvsf8oNjIyIppzxPRDQ0OlPZkmnU6L8Wvkdhk/luRzDu1PQbQvor+/3zLUUdFtETuonGeWiKKpe6To0WL/18CO6+/vL+E7Q5QhY/TDz14HOSyRmF6W1PKtTLxl4AY5vX2/68eh/bgVxRQTixYm+2ehnN5Y/8A2hh26gbWVO0tuo1hK3B2nLl09ouxHqX66FT2ejQetXAFZzIGBAbGPjJtjXKsKXo6MxBr232DcNRMTE/LgKeHcCZtVlBVWrzmWI8dyZYv7T4EvEiMjI0WveHHPvqKfAvKEkkeLcX9VZI+IfGx5UF/YqRTleiiOZzG2l5xYH8+raAHrWIYnXQGoabGGcAJQKSU05Ne0og/fxooisAKobQRWoCoaKrCWMCQfKovACqC2EViBqmicwDo9PS2aV2MNs43KIrACqG0EVqAqGiGwqrdDtbe307xaRQRWALWNwApURd0HVvnsg3LGFkClEFgB1Lbp6emJiQk+S4BVlk6n6/7Um7ihvrexVhBYAQAA4DQCKwAAAJxGYAUAAIDTCKwAAABwGoEVAAAATiOwAgAAwGkEVgAAADiNwAoAFeP7/sTERJ1tju/71V4RAI0u4+U/nclcnfVm0tl0Jn/NK2Syvpeb83Jz2fx8Nj+fKyzk/cXC3JL68uevR3ndFHE6f/56YAF5fzHvL+YKC7nCQjY/7+XmMln/mldIZ/Kz13Iz6ezVWe/TmczS0vVqFxAA/kc6ne7o6Ni7d29PT08dFMX3/XraHAA1LUNgBYCKmJiYkA9yLHM+q9muGba4Sm0OAJSPwAoAFTMwMNDe3j40NFTOTERGXLWuBZbFVWRzAKB8BFYAcIs7gRUAHEFgBQC3EFgBIIDACqBOpG4QLYXpdDqVSvXeoE954cKFVCrV19eXSqUuXLhQtLfoxMSEmH5gYEBOL/44MjKiTjkyMiLXISCdTgeWa1xKKpUSgTWZTKpbpM/fso2+74tl9fb2ivmk0+kyF2fcoqGhIblFY2NjYQUUcxbrIFY7ecPQ0JC+YgCgI7ACqBMieIkQKe8WCtwwNDIyIu58V3V0dARyp5ROp3t7ewPTd3V1TU9Pi6gXCIti4lQqFZhPKpXSlyvmo04TmEBukT5/yzaGzSeZTKrRPNbi9MoMDAzo7w1sUWDXTExMBFZbCCs+AEgEVgB1QqQfmS97e3sHBgbUQCnTUnt7+8DAQCqVEjcViT/qtxbJYarE0E6imVDMv6urSyS2KIFVRsPOzk4xk4GBgc7OTpGVZRNjoMmzv79fb/IU8+/v7w/bxmQyGdhGuc579+4dGBiQU0ZfnB5Y5Qw7OzvFUo4fPy4D6OjoqHHXiGVFfAsAqAisAOqETD+9vb36r/zT09Myman/6vu+TE6Bn6dFLGtvbw/8Jj4xMSFjbtHAKkcz7e/vV6f0fb+np0f/u70Pq0yKPT09xl/55b8GKiAzrv6uoosLy9+BiJ9Op8UWdXR0BJYud01gY2UlGeoVgB2BFUCdkC2Lxj6pIpUau7T6vi/aO9U4JQOu8QfroaGhiIFVhkg9EU5PTxs7cRZNkGHbuLy8PDo6GkjkchvtzZ8RA6ucj56zRWbVm3LlIjo7O/W3yPhr3BwAEAisAOqEMSoVjWtqAO3q6pJ/Eb/4t7e3hy1ONA0WDaz24GvZEEuCPH78eMRZ6bPVf9+PFVhlt4qwm6VEU65aScui7YEeACQCK4A6ESUVhb1Xn0D2Fg17i5ggSh9W2V3VeLd+2IZE/43ezvd90V21IoFV5HjLL/ijo6N6orV8WyCwAoiCwAqg/gOr/AW/KHmTu+iOaYmG0W+6mp6eln1eRetjMpm0DAJVZmD1fX9oaCiZTIpNCCgzsBpjetEAalkEgRVAFARWAHXCEljDhnDSyVAlmkUt0TDWsFbpdLq/v1+NraLN1fjU03ICq3FLxWACFQyslj4JsvcFgRVABRFYATRQC2v0uYlkZuwRa7mLq2ignJiYGBoaUkd0KjNBGn+O7+zsHBoampiYUO++ooUVQO3KePlPZzJXZ72ZdDadyV/zCpms7+XmvNxcNj+fzc/nCgt5f7Ewt6S+/PnrUV43RZzOn78eWEDeX8z7i7nCQq6wkM3Pe7m5TNa/5hXSmfzstdxMOnt11vt0JrO0dL3aBQRQA4FV/u5c9KFWksiUls6aXV1dJQRWfVgrPUaXHFjFv+pjWqmzLTMfixbcwD1VKnlXlp6V6RIAoGQEVgD1H1jlTf1ht+rrCU8GL3vMit4lwNIgGng6VMmB1VIBOeBUmYFVrnPYTf0yNEdcBH1YAURBYAXQEIFVDLekj2kv9Pb2irv41T+Kbqz640anp6dF82qUwCqaJI0ttbKjgnGYfWO2tgdW0WRr7MZQtA9r9MWJshi3SKbPQN/cEgJrOp0eGxuL3iIOoL5l6BIAoBECq+/7opG1q6tLzUa+78vHmQbeK7NUR0fHwMDAhRsGBgY6Ojra29tFAi4aWGWTZDKZVOPX2NiYeAKWfse9fPiTCMrqu+yBVT7OKrCBMq0a3xt3cbIsfX19asvxhQsXxBbpWTZuYJXtwZa+BwAaSobACqARAmtgeKmOjo7e3l514CfjkKvqU1il9vb26enp6KMEyBwpFtrb2ysbaMWs7Hf66zfpFw3lIuqJZYn/tbSwBsb8UhtowxanvkUsSP6vDL7lBFa1AlFGrgVQ9zIEVgANElhFZpXxUQ2gxuGl1GFNRfgT40OJCBVrWKtUKiV+SVf19/eHpbFUKiWjp7qIojd1pdNpNT6qGdRSn6GhobiLGx0dDYzzKlqdLfd7xWphle2+YVsKoKFkCKwAGk06nZ6YmBgZGZmYmNCbAyMyPjjAbuKG0dHRwIBT9ulLaGJMp9Ojo6OpVCrigkpe3PT0dKwtivuArgrOEEBNyxBYASCMJYQVfeYTAKBSCKwAYDY0NNTR0WFs55uenhY/ZFv6EgAAKoXACgBFbmBKpVLyh3Lf91OplLgdvr29nXGXAGAVEFgBwGx6elq/U0q9x6jk/q8AgFgIrAAQSrSnBmJrZ2dn2O3wAICVQGAFgKg3rVf8XngAQBQEVgAAADiNwAoAAACnEVgBAADgNAIrAAAAnEZgBQAAgNMIrAAAAHAagRUAAABOI7ACAADAaQRWAAAAOI3ACgAAAKcRWAEAAOA0AisAAACcRmAFAACA0wisAAAAcBqBFQAAAE4jsAIAAMBpBFYAAAA4jcAKAAAApxFYAQAA4DQCKwAAAJxGYAUAAIDTCKwAAABwGoEVAAAATiOwAgAAwGkEVgAAADiNwAoAAACnEVgBAADgNAIrAAAAnEZgBQAAgNMIrAAAAHAagRUAAABOI7ACAADAaQRWAAAAOI3ACgAAAKcRWAEAAOA0AisAAACcRmAFAACA0wisAAAAcBqBFQAAAE4jsAIAAMBpBFYAAAA4jcAKAAAApxFYAQAA4DQCKwAAAJxGYAUAAIDTCKwAAABwGoEVAAAATiOwAgAAwGkEVgAAADiNwAoAAACnEVgBAADgNAIrAAAAnEZgBQAAgNMIrAAAAHAagRUAAABOq+3A+oc//OGPAAAAqGv//ZuLf5n8uFYD64ULHw4DAACgrqUGf1nDgTWXy/sAAACoa598Ont56pNaDaxLS9er3acCAAAAK6u2+7ASWAEAAOpehsAKAAAAlxFYAQAA4DQCKwAAAJxGYAUAAIDTCKwAAABwGoEVAAAATiOwAgAAwGkEVgAAADiNwAoAAACnEVgBAADgNAIrAAAAnEZgBQAAgNMIrAAAAHAagRUAAABOI7ACAADAaQRWAAAAOI3ACgAAAKcRWAEAAOA0AisAAACcRmAFAACA0wisAAAAcBqBFQAAAE4jsAIAAMBpBFYAAAA4jcAKAAAApxFYAQAA4DQCKwAAAJxGYAUAAIDTCKwAAABwGoEVAAAATiOwAgAAwGkEVgAAADiNwAoAAACnEVgBAADgNAIrAAAAnEZgBQAAgNMIrAAAAHAagRUAAABOI7ACAADAaQRWAAAAOI3ACgAAAKcRWAEAAOA0AisAAACcRmAFAACA0wisAAAAcBqBFQAAAE4jsAIAAMBpBFYAAAA4jcAKAAAApxFYAQAA4DQCKwAAAJxGYAUAAIDTCKwAAABwGoEVAAAATiOwAgAAwGkEVgAAADiNwAoAAACnEVgBAADgNAIrAAAAnEZgBQAAgNMIrAAAAHAagdVRra2ta27o7u42TtDd3S0maG1tXfW1AwAAWD0EVkcRWAEAAAQCq6MIrAAAAAKB1VEEVgAAAIHAWoeBdXJy8tixYzt37ty+ffuePXu6u7snJyfDFvTee+91d3dvv6G7u3tsbEyfW/cNyWRyeXl5eHh4z54927dvF/8b+Ffxv9u3b9+5c+exY8c8zzMuVE4mp9TXMJlMijmLf3rttdfEFqmzFVtadHGe5x07dkys9p49e1577bWwKQEAgIMIrPUWWJ988sk1Jk8++WRgDmNjYy0tLfqUe/bsUfPc8PCwXNDp06flZGLF1H9NJpPNzc3qrJqbm/UEHLaGIvLqFTh9+nRgPZubmycnJ8fGxgKLu+uuu/TFHTt2TF9Wc3Pz8PBwSXsGAACsNgJrXQXWZDIpM9nmzZtbW1vVqHf69Gk55eTkpJr2AlPu2bNHTikjaUtLy1133RUWWFtaWgLxUYZIdbX37Nkj/6mlpaW1tXXz5s3GNZQV2L59uz7bnTt3qisjbd++3VglWZCmpib5Fz3dAgAABxFY6yqwynft3r1bT7FqdpQpsKWlRf4cPzw8LPOcbICUkVSuz9jY2OQNgX9taWkR75qcnNyxY4ceQycnJ/X2VM/z5Grv2LFD35Y1a9YcPXpUTLl79275x6amJrE4dQ5r1qyRm6MuTsxBkDMJpFsAAOAmAqujSgusMm6qTZUiVg4PD6tdP2XmC/TmlOlWRl41kqqxT/9XtcHS8zzZdKpuwtjY2PDwcGD1ZE8DNVIbw7fneWp0Nv5dRu2DBw+G1VA2J9PICgCA+wisdRVYZbtmc3Oz8U4m4ejRo3qLZiD5NTc365FUn5X816ampribIIyNjan9BPS3B/q2yqwZ6ISqB1bZZ0Dvriqrp0dwAADgGgJrXQXWwM/3Infu3LkzcF+82rPTQp+nvhrqTVcRN2F4ePjJJ5809kw1BtZA3Az7ux5Yo2yjPUwDAAAXEFjrbZSAsHv/1fviqxhY1cZUSe2Bqr+dwAoAQIPLePlPZzJXZ72ZdDadyV/zCpms7+XmvNxcNj+fzc/nCgt5f7Ewt6S+/PnrUV43RZzOn78eWEDeX8z7i7nCQq6wkM3Pe7m5TNa/5hXSmfzstdxMOnt11vt0JrO0dH25Tsm4dvDgQeMEsoOmnhRFL9VkMnnw4EE1vMpf+WVgDZu5qoKBVXZFEIseHh7W79xaicBKR1UAAGpahsDqJnkne3Nzsz7Kved5cgwp9Z4kI3XwVBHm5J1VLS0tqxlY5V8CPUfVNaxgYJVhPdALFgAA1JYMgdVNgeGi1MzqeZ7abirz2eTk5Pbt28V4qIHpAxN7nhc2nsDp06fvuuuu7du3y8bXlQisgYXu3LlzJQKrbNANFFCM6iXQ+AoAgPsIrO5SxxwVg4YK6h8DzatyJKmWlpb33ntveHj47NmzMg6qg1ip3ViffPLJszd0d3fLhluZMisYWOUWidUTPW7VtFrZwKoOrdXS0vLaa6+dPXv2vffekzXUR/UCAAAOIrC6KzAevq61tTWQt8bGxtQnOQUEfhkPBOLAnOVkFQysk5OTxtVboZuuihYk0NALAADcRGB1XTKZ1O/6b2lpCeuXOTY2pj5lStixY4c+Fqn40Vx9Mqp4fqk+ClWlAquYPrDE7u7uFbrpSpicnNSjeWtrK50BAACoFQTW2uB5nnhalfrAKrvo009OToopVy3DieddRd+WiohbQAAA4AgCKwAAAJxGYAUAAIDTCKwAAABwGoEVAAAATiOwAgAAwGkEVgAAADiNwAoAAACnEVgBAADgNAIrAAAAnEZgBQAAgNMIrAAAAHAagRUAAABOI7ACAADAaQRWAAAAOI3ACgAAAKcRWAEAAOA0AisAAACcRmAFAACA0wistWdubu6Pf/zj+fPnhwAAQGP44IMPfve73129enW5IWW8/Kczmauz3kw6m87kr3mFTNb3cnNebi6bn8/m53OFhby/WJhbUl/+/PUor5siTufPXw8sIO8v5v3FXGEhV1jI5ue93Fwm61/zCulMfvZabiadvTrrfTqTWVq6vtww5ubmUqlUZ2dnAgAANKo9e/acOHHio48+Wm4kGQJrTXjrrbd+8IMfiCP14MGDv/jFL06dOvWfAACgMbz99tuvvPJKd3f3o48+KvLA4cOH//KXvyw3hgyB1XGTk5OHDh1KJBKPPPJIMpn885//7AEAgAb261//uqurS8TW//zP/1xuABkCq8vGxsYeeeSRRCLx85///OOPP672CQIAAFxx5syZtra2RCLx0ksvLde7DIHVWRMTEw899FAikXj77berfVIAAADnTExMdHR0JBKJ/v7+5bqWIbC6aXFxcf/+/aKpv9qnAwAAcNSVK1cOHDiQSCR+/etfL9evDIHVTS+99FIikXjxxRerfSIAAACnjY2NiXtdPM9brlMZAquDpqamEonEvn37qn0KAACAGnDy5MlEIvHyyy8v16kMgdVBL774YiKRGBwcrPbxDwAAasOePXt27NhRKBSW61GGwOqgtra2xx57rNpHPgAAqBnJZDKRSPzXf/3Xcj3KEFhd8/vf/16MY1XtIx8AANSMS5cuJRKJn/3sZ8v1KENgdc17771HfwAAABBXW1vbE088sVyPMgRWN8cH+O1vf8uJCgAAonvyyScTicT169eX606GwOqao0ePJhKJP/7xj5yiAAAgup/+9KeJRCKfzy/XnQyB1TU///nPCawAAKC0wJrL5ZbrTobA6hoCKwAAKAGBtTC3pL78+etRXjdFnM6fvx5YQN5fzPuLucJCrrCQzc97ublM1r/mFdKZ/Oy13Ew6e3XW+3Qms7RUh700CKwAAIDAqqKF1TkEVgAAQGBVEVidQ2AFAAAEVhWB1TkEVgAAQGBVEVidQ2AFAAAEVhWB1TkEVgAAQGBVEVidQ2AFAAAEVhWB1TkEVgAAQGBVEVidQ2AFAAAEVhWB1TkEVgAAQGBVEVidQ2AFAAAEVhWB1TkEVgAAQGBVEVidQ2AFAAAEVhWB1TkEVgAAQGBVEVidQ2AFAAAEVhWB1TkEVgAAQGBVEVidQ2AFAAAEVhWB1TkEVgAAQGBVEVidQ2AFAAAEVhWB1Tm1EljPnTt36tSpEydOnDlzZmpqyjLl1NTUGavx8XH9Xfa3nDt3roR1Hh8fF2+PMtmRI0fC1s3o3Llz8l32goSRW2dfhEX0XVZ0HezCNjD6UQEAqLif/vSniUQil8st152Ml/90JnN11ptJZ9OZ/DWvkMn6Xm7Oy81l8/PZ/HyusJD3FwtzS+rLn78e5XVTxOn8+euBBeT9xby/mCss5AoL2fy8l5vLZP1rXiGdyc9ey82ks1dnvU9nMktL15frjvuB9ciRI5s2bVrzv+3fvz8soPT19a2x6uzs1N9lf8vWrVvjrnZXV5d8e9g0586d27ZtW2BZDz74oD22Gguya9euWIntueeeK7p699xzj70sYW88efJkYA2bmpr279+vT7kmmsHBwZUoAgCgHATWAoGVwCrs2rVLTY1bt25du3at+N977rnHmE46OzvjBtbBwcEKBtZz584Fop5xspMnT8oJ7rzzzq1bt955553if5uamsLadB988EH5ri1btqgF2bRpU8S4Nj4+3tTUZF+9KGmyaBS+8wb5v/ouW1NSYC3hqAAAVByBtUBgJbCqbaUPPPCAmkJkJNq2bZt+/uzbty9uxJSBtfysIxtW165du2XLlrBgJyPjli1b1DQ2ODgostemTZvCNm3NmjX79u2LXhBdoFnXOM3U1JQxLNrJFP7AAw/IduKpqSm55m1tbdHnJt61du1adWNLOyoAABVHYC0QWOs7sHbdULS/pvjN1xg9ZTOq3hK5detWkWair4/MOl55HnjgAdnsNz4+LlcyYhQTzp07J97V19en/n18fFymVcsmFK2qmiktWy1DfKzAKnaZMZW2tbVFXENhampKZPpAi7jlqJBFKK3PMQAgFgJrgcBa34E1YhISkz333HOW9r9AqpM9L40dVcOIZLllyxavPOK3abnClsAqUnVYc6Nomg1sgkyQxsAnC3Ly5MmIKdCyemqu9SITbZ/GFK4GbuMO1YnV0+cmZmLcv5ajAgBQcQTWAoGVwCqjSVgCC4smsVKRINoaS7izKqCzs1NNPT8CRgAAIABJREFUk/bAunXr1rBcVUIjsaUgejPnnXfeOTU1ZQ+s9n+1lDHWj/5xm1eLbmYJex8AUBoCK4GVwPpXojen8Rdw2dwY+PG3tJ6X9vbOkpWQ+dRfvWM1Ekf5BT8wjX31SugKLCKmvYk3orDmVftRIXtT0CUAAFYBgbVACystrDK16LfMT01Nid/99TglM9nJkye7urrEZJs2bdq2bduJEyfCTjnZmHfixAl5Q9K2bduidLSteGAtofOoLMidd94ZvYOpffVEiN+6devg4OCDDz4oSrRt27Zdu3YZayJ/8Rf/evLkSfVdsSppaV6NclSU37UDABAFgbVAYCWwiggienOKUTzFGPInTpwQwWvt2rV6Q5rseakO2ySFjXlkeUtTU1PJTYYlBFZLFg8b1V+OSGosiKXN0r56YjWMNVmzZs2RI0csIy2oY2+plYwYwS3Nq4LxqBArbC8CAKCCCKwFAms9BdZ9+/Zt+99kfFT/aPyRN+xBAOqoSSoZwtauXbtv376+vr7BwcHOzk45wpQ+WKn8HVnM9rnnnhscHHzuuefkXe0l/8RcQmCVI4wWXaJoAZXa2tosTZjGkQfsqyfnvHXr1s7OzsHBwb6+vra2NjniaaCfqAysYhPWrl0r3nXy5En1XUW3y968aj8qxOAM9vkDACqFwFogsNZTYA1EqzDGNsWurq6wRr4HH3zQ2AI3eIP+T+ogpoF/Onfu3ODgoJ517KOiVjywyumj3OQeqOqmTZu6urrCmiTFl4RAhe2rNz4+Pjg4qOfLc+fOiWcBNDU1qRVTn4OwZcsW/VtBxEpaBvwq56gAAFQcgbVAYK2nwNrX19f5v4ls0dbWpv5RT2myufGBBx6QyUmMbyrST9zHGonb2JuamqK/RQ7tWULHgFiBVTYZxrr3a3x8XDRhivcaCyI2Ye3atYFEXvI9YbK9Vm0ElYE1LGvKDbRUUnaEtTSvyi8elToqAAClIbAWCKz1FFh1InDYezTKn5jD7ge33C0eRoaqWGMIiAXFumc/biIsLa0aQ2SgIJZf2EsOrLIXqdpka99fgmiatVRSJG9L8+pKHBUAgNIQWAsEVgKrHDHUPkGs5tKIo+uH3S/vxRQxEcqsqf+SHotsZ1X/KO5/Mt44X05gFe9Vf99Xx2corZJRmleLHhWi/TXWUQEAKA2BtUBgJbAWHTw/bChWu5IDa9xh/CMmwnPnzokW0DLTqtp+LH/6V+8nKypWIhebpgbHKE+ZsleyaPNqlC8PpR0VAIASEFgLBFYCa9FoIvOZGk36+vq6urrCMpOxS8Dg4GDXDWELinLTemmBNVZatW+aMbDK9BY3sI6Pj4uahN10b9w7op9AWK8G++3/UZpXCawA4BQCa4HASmCVN0iFJTnjL+DiXWG3oovfx9euXRu9Y6vsXRqr22uUwCqHXLW3Kerbay+IunVTU1OD4eQMxf+quV/GR+MzTmXDbeBfxd1dgdEDAv8a1vYZpXm15KMCALASCKwFAmt9B9Yo1HE99XRy5MgR8a+B9jz1XYG3dHV1Gdvwpqam5IhLgaQ1ODgoW0BL2ARLYFXTasQfr+WmGe+ClwWJ3hIc5UlX+mj/4+PjYTlbVlJfQ5n7jZWM2Lxa9Kgo/941AEB0BNYCgZXAqraWbdq0af/+/V1dXUeOHJEPXA37JV19l/Et9lHo9+/fL94iH9dU8sOTLIlQro94bGyYsE1ramratWuX3DrxpKu4HWHtgVXecS/SoVjWrl275ACoxn7A6pPGZCXloyL0obXU7Yrb0iwWEfGoAABUHIG1QGAlsAZCle6BBx4IyyVyqM6Atra2sLf09fXJfKbasmVLybfvWBLhmmgqVZC4qxd4RkDA2rVrLXetnTx5MlYlozev6muu27p1K2kVAFYHgbVAYCWwSuPj488999xWxb59+4qGyHPnzu3bt0++pa2tLcpDQdUFPfDAA1GeOGUhngprzGGd0VSwILFWT5qamurr63vggQfksvr6+oomQlFJ+S57JeVqxAqalSoCAKBkBNYCgZXACgAAXEZgLRBYCawAAMBlBNYCgZXACgAAXEZgLRBYCawAAMBlBNYCgZXACgAAXEZgLRBYCawAAMBlBNYCgZXACgAAXEZgLRBYCawAAMBlBNYCgZXACgAAXEZgLRBYCawAAMBlBNYCgZXACgAAXEZgLRBYCawAAMBlBNYCgZXACgAAXEZgLRBYCawAAMBlBNYCgZXACgAAXEZgLRBYCawAAMBlBNYCgZXACgAAXEZgLRBYCawAAMBlBNYCgZXACgAAXEZgLRBYCawAAMBlBNYCgZXACgAAXEZgLRBYV82xY8cSicRHH31U7cMeAADUkqeffjqRSBQKheW6k/Hyn85krs56M+lsOpO/5hUyWd/LzXm5uWx+PpufzxUW8j6BdRW9+uqriUTiww8/rPZhDwAAakl7e/uOHTuW61GGwOqaX/3qV4lE4t133632YQ8AAGrJQw89tH///uV6lCGwuuYvf/lLIpH493//92of9gAAoGb893//dyKROHbs2HI9yhBYHbR3797vf//7MzMz1T74AQBAbTh+/HgikTh//vxyPcoQWB108uTJRCJx6tSpah/8AACgBnzyyScPPfTQY489tlynMgRWB3met3PnzkcfffTKlSvVPgUAAEBtNK++9dZby3UqQ2B109tvv01PVgAAUNT777+fSCTq9XYrgcDqrmeeeSaRSLz00kucqwAAwOjixYs/+MEPEonE6Ojocv3K0MLqLM/zDhw4kEgkjh8/zlkKAAACzp49+8gjjyQSiTNnzizXtQyB1WVXr149ePBgIpH48Y9//Jvf/IYTFQAAeJ537dq1l19+OXHD4ODgcr3LEFgdt7i4ePToUXFEHj58+IMPPuBEBQCgYf3hD3/o7+//4Q9/mEgknnjiid/85jfLDSBDYK0JH3744aFDh0Rs/f73v//UU08dOXLkKAAAaAzPP//8M8888/jjj4sw8NBDD73++usLCwvLjSFDYK0h4+PjL7744v79+8XBCgAAGkpbW9vhw4d/9atfzc3NLTeSDIG1Fi0sLHzyySeXAQBAY5iamvI8b7lRZQisAAAAcBmBFQAAAE4jsAIAAMBpBFYAAAA4jcAKAAAApxFYAQAA4DQCKwAAAJxGYAUAAIDTCKwAAABwGoEVAAAATiOwAgAAwGkEVgAAADiNwAoAAACnEVgBAADgNAIrAAAAnEZgBQAAgNMIrAAAAHAagRUAAABOI7ACAADAaQRWAAAAOI3ACgAAAKcRWAEAAOA0AisAAACcRmAFAACA0wisAAAAcBqBFQAAAE4jsAIAAMBpBFYAAAA4jcAKAAAApxFYAQAA4DQCKwAAAJxGYAUAAIDTCKwAAABwGoEVAAAATiOwAgAAwGkEVgAAADiNwAoAAACnEVgBAADgNAIrAAAAnEZgBQAAgNMIrAAAAHAagRUAAABOI7ACAADAaQRWAAAAOI3ACsAJizdUey0AAC4isAKojqmpqVdffXXXrl333nvvunXrmm/YuHHj3/zN3/zTP/3TyZMnZ2Zm2DcAgGUCK4DVNzw8/PDDD69bt279+vVrQqy74bHHHrt48SL7CAAaXMbLfzqTuTrrzaSz6Uz+mlfIZH0vN+fl5rL5+Wx+PldYyPuLhbkl9eXPX4/yuinidP789cAC8v5i3l/MFRZyhYVsft7LzWWy/jWvkM7kZ6/lZtLZq7PepzOZpaXr1S4ggBimpqba2truuOOONZF96Utfam9v9zyPQgNAw8oQWAGsjtOnT2/cuPHWW28VSfSWW25pamr6xje+8eMf//iVV1556623BgYGXnzxxYMHD27ZsqW5ufmWW24RU956661333332bNn2VMA0JgyBFZAeu+998bGxijISnjppZdkB4Bbbrll/fr1zz333CeffBI2/Z///Oef/vSnX/ziF2VT6/r169999132DgA0oAyB1U3JZLLbKplMljBb+Xb5l+HhYfGX4eHhKOsTlucmJyflzCcnJ5dr0Pbt20UwKq229roZyzs2NiaLdvr06bB9VAf6+/tlN4C1a9d2dHRks9kob7xy5cpDDz30hS98Qbz39ttv/+Uvf7ny6wsAcAuB1VGtra32jn2tra0lzFa+Xf6lu7tb/MWekOT6tLS0GHsTDg8Py5nbs6+z5PofPHiwUvOUddPLOzY21tzcrFdV30e17oMPPtiwYYNMnH19fXHn8Oyzz8qm1g0bNkxMTKzMmgIAHEVgdZSzgTUsz9VBYBWlaGpqqmCvgLDA6nleS0uL+KfAEusssC4sLHzta18TW9Tc3PzWW2+VNp+f/exnTU1NYj7/+I//WOnVBAA4jcDqKBl0du/ePWxSWqiqSGA1RtI6CKwrISywyu4Ha9asCezKOguszz33nAiat91223/8x39Ypvz973//8ccfWybYv3+/uA1rw4YNp06dWoGVBQA4isDqKMtPyeWoVGC96667Ah0DogRWz/Ni5eywvrAR+8h6nrcSvWm9G8rZj3v27JG10vvLGgNrrA0xThx9tePuI8vN+7Ozs7Lbw/3332+Zz7PPPvvlL3/57rvvfvvtt8Om+eyzz7761a+Kud1zzz3RVxIAUOsy3HRV04FVjYmBfzIm0UoF1jVr1uzZsydiYB0eHt65c6f63paWltdee82yId3d3Wr/ThGhPM9To578e8Dk5KQ62Zo1a3bu3Bml0VevuVwr0QFDXavm5uYo3yX0eR49elSu2NGjR/W3qHU4ffr0XXfdpdY8EDrl/EWju+xmoK7esWPH5Eyam5uPHTtmXFV1MvGdJLCPApszNjYmpw/b/F/84heiTbS5ufl3v/udpVB/93d/J2a1Y8cOy2SnT5/+/Oc/LxpZU6mUZUoAQD3JEFjd5Gxg3bFjh5yJvLHdEliTyeSaEGrkVd8uV0lqbm6enJyUaUwVyKynT5+WmTKg6L3/9sB68OBBfZ5Fb88KzFOtxu7du41vUcuoLzHQti3nn0wm9Q0Xow3oM7F0qA3Yvn27cXMOHjyoLi5s87/5zW+KCRKJhL1QBw8evO2229atW2cM8SrZyBpWQABA/ckQWN3kbGBVM1Bzc7MMT8bAOjk5Kf/Y2tqaTCZPnz6tRl4ZN9W3Nzc3t7S0dHd3qylKxCP972qD3OTkpExRra2tR48eTSaTu3fv1lcsYs3lWonZbt68ubu7W13/NWvW2H+sDzRJqqsX9hZ1k5uamnbfsHnzZvl3dU/J+YuJDx48qG5v8w2bN28+ePCgutrqjlteXpbt32IOyWTy4MGD8g4nNZSrixMFab3BuCFTU1NicICbb745yr1WQ0NDUYaskoffxo0bi04MAKgPGQKrm2QyuOuuu7abVDGwLi8vy8i4c+dOfU1kLkwmk62trU1NTYHfeeXb9WgYyKBqu6a6hjJ+NTc3yz/KrBZYnPwVPtBeaN/GwFqp7XljY2Py7/YWQTnPPXv2qN0JLN1J5ZzVsa7URlA1IMr5NzU1yeisrvbmzZvlTE6fPq3vI/lHdQ5iG2VmlX9Xe4YU7RGRSqXE2Ku33367/W6qWM6ePSsquX79+j/84Q+Vmi0AwGUE1lod1qq6gXVyclKmGZHYYo0SIGOoTIHq29Vf+dW/qyFP33DP82Qi1Fs95dpakqI9sIZ1Ho3b91ctmlFYHwa1O4E+/0DnBNkiG1g9fR/JlK+vkvwnuSbqcLzLxfziF78QE69fv77oxBcuXNh/w5kzZ+xTzs7Oir15xx13DA4OFp0zAKAOZGhhdZPjgVVtthQdTO2B1fO8s2fPvvbaa93d3eoNWLKxMGxDov890As2QN4eZAnT9sAalrntA+KG7cfm5uawm/HDymhcmbDcrN6MZf+7bLjds2dPoGhy7C0587B8bPTMM8+Iie++++6iE3/nO98RE//t3/5t0YlFYN2wYYN+WxgAoC5lCKxucrkPq/7H7du3hwXW4eHhsBt6Vi6wWlQqsMq6RQ+smzdvVlumwxopVzmwRima7GIRa7S1zs5OMfE3vvGNohPLPh5///d/X3Ti22+/XUz88ssvF50YAFAHMgRWN9VEYPU8T8YvdSR8tQ+rmntaW1t37NjR3d0tf2teicDa1NTUGs4yyOiKBlb5OCu1I6mxnVIv4+oE1paWlrCiyfWMFVj/7d/+LXoLa6zASgsrADSaDIG1XgOrTAArF1gD8UtPWvKH+N27d6t9QPW0V9kWVsuGxNrGCgZW4x1jxhbfVQ6sYVNG35wwL7zwghiENUof1uiB9erVq7IPa9EOrwCA+pAhsNZNYFUDh3oH0ooG1kD8CqxJWNqTb6lgYFXvrNKz19kb7I96WrXA6nmevClKf2bYKgdW2RlXb+4VT7FS26RjBdYzZ85s3LhxzZo169atu3LlSqUC6wcffCCO7XXr1n300UdFVwMAUAcyBFY3RU8Gap/I9957TwxIpHYbXenAqsavsMCqxia1UbaygVVuS0tLizpQgOyZ0NTU5EJgDcxZDg1WlcCqDtGljkugjhornxARK7B+/PHH69evF+Ownjp1qlKB9dChQ2LKO+64o+g6AADqQ4bA6qboyUAdKF61Ol0CjDc86T83Nzc3P/nkk3KIABmyKxtYA9FZDFgblt2rG1gDQ8yqSVEv44oG1sCatLS07Ny5U+2RrN4cFiuwLi8vb926VUz/D//wD5UKrF/+8pfFlI8//niUdQAA1IEMgdVN0ZOB8bmayWRyFW66UqmhR229k9lUDUD6mFAVCaziV+ywQQniPkZ1pQOrOqSUGBpM/FEv40oH1sDuC+ws45NgIwbWvr6+tWvXiq8oH374YfmB9a233vrCF76wZs2aL33pS1EeiwUAqA8ZAqubROLs7u6OciuM53nimVKtra27d+8WbxkeHtbnIIfYlH8xTlbC+nieJ2eu/hzved7BgwdbW1vFTejd3d2e58mFypbFyclJfd1K+LsgHgCr3uRuf4Bq2DZalqJvQsR5qsbGxuT85c/uxjKGrUzY/OXfAzMJ+7tYmd27d8ui7d69W9+0WIel2PuiV0DRx4xFCazz8/OyefXrX/96lBUAANSHDIEVwMp5/vnnRSPrF7/4xWeffTZssv3793/+85//whe+sGfPnrBpHnvsMTHswLp1695+++0VW2UAgHMIrABW1pYtW0SzaFNT0xtvvGGc5jOFcYLDhw+Lm8BuvfXW73//+yu8ygAAtxBYAayskZGRDRs2iMx62223HT16NO4cnnnmGdFMu2bNmk2bNk1NTa3MmgIAHEVgBbDi3njjDZlZm5qaHn/88XQ6HeWNf/nLX773ve/dfPPNMu++//77K7++AAC3EFgBrIb+/n6ZWW+99dbbb7/98OHDlrbSjz76qKOj44tf/KIcsuD222/n0VYA0Jgy3HQFYHUMDg7ecccdt956qwigt9xyy2233Xbvvffu37//xRdfPHXD8ePHf/SjH/3f//t/b7vtNnXKe+65xz4wFgCgjmUIrABWzccff/zEE0+IR7ZGceutt27cuPGpp57yfZ/dBAANK0NgBbDKzp8//8gjj6y/ISyqrlu37rbbbnv88cfHx8fZQQDQ4DIEVgBVMT09nUwmH3vssa9//esbN25sampau3btnXfeed999+3fv/+tt97KZDLsGgDAMoEVgCOuX78eNggrAKDBZWhhBQAAgMsIrAAAAHAagRUAAABOI7ACAADAaQRWAAAAOI3ACgAAAKcRWAEAAOA0AisAAACcRmAFAACA0wisNeZPf/rTu++++/zzz3d2dh4EAACN4amnnurp6Xn11VdHRkbm5+eXG0yGJ13VilQqdeDAgYTi+wAAoDF873vfkwHge9/73rFjxy5fvrzcMDIEVvd9+OGH//zP/yyO0Z/97Gfvv//+9PT04uJitdcLAACsHs/zxsbGXn/9dZkKXn311QbZARkCq+NOnjwpDsqXX3752rVr1V4dAABQfcPDw/v27UskEk899dQnn3yyXO8yBFaXvfTSS4lE4kc/+tGlS5eqvS4AAMAtJ06cSCQSjz/++JUrV5brWobA6qyBgYFEIvHkk0/SsAoAACxp4V/+5V/m5ubquEQZAqubxsbGEonEnj17Zmdnq70uAADAXf39/YlE4ujRo8v1K0NgddNTTz2VSCR++9vfVntFAACA6zo7OxOJxG9+85vlOpUhsDpoeHi47r8qAQCASvn973+fSCS6urrqtaQZAquDnn766UQi0VDjqwEAgHL09PQkEok//elPdVnGDIHVNZlMJpFI/Ou//mu1VwQAANSMs2fPJhKJN954Y7keZQisrjl//nwikXjzzTervSIAAKBm5PP5RCLR2dm5XI8yBFbXnDp1itutAAD4f+zde3Mc1Z3wcb8D+x3AG9iCKv+zsCEzEDuQrFR2KhQppXbXTjZyNlupuJFIuDmRWBKu9tqLCXgCu3KCJcJubMH4AREjkKWwUgjjUsRljFYxFjHjEMnyXKRuWePLPIUP/Dj0bUZjqefMzPdT/JFIPT3dPWPpqzOnu0tYpp/97Gd33313Qx62PMFqml//+teWZWUymVpvCAAAqL9zYJaWlkoNJ0+wmubAgQOWZTXDbdYAAMCKn3e1sLDQeEc1T7CahmAFAABVIFidcxf0/xaXLlby35oKl1tcuuh6AnvxvL14fsEpLjjFeXupsHAuP7+YKzjZvH02tzCXnT9ztjA7l79w4WLjvaEJVgAAUAWC1SFYI0OwAgCAKhCsDsEaGYIVAABUgWB1CNbIEKwAAKAKBKtDsEaGYAUAAFUgWB2CNTIEKwAAqALB6hCskSFYAQBAFQhWh2CNDMEKAACqQLA6BGtkCFYAAFAFgtUhWCNDsAIAgCoQrA7BGhmCFQAAVIFgdQjWyBCsAACgCgSrQ7BGhmAFAABVIFgdgjUyBCsAAKgCweoQrJEhWAEAQBUIVodgjQzBCgAAqkCwOgRrZAhWAABQBYLVIVgjQ7ACAIAqEKwOwRoZghUAAFSBYHUI1sgQrGhCuVyuWCzWeisAoL4RrA7B2kjBOj09nS5nenq61BBWe2fV+l2vl1qtbduVrEEtnMlkKlxyVd8bNTExMXHw4MFkMpnL5VZj/eo1Cn+Vp6am1OGVbZiZmVFfWY1NAoDVQLA6BGsjBevw8PDBcoaHh0sNYbV3Vq3flTVqtRW+iLIZZXNNLdZ4CTU4OLiqu6Zeo5BXOZVKqQ1IpVLyxXQ6rb64GpsEAKuBYHUI1sYL1mQyORxsYmLiCp/FkN/3q72zKxisAwMD4R+LN2qwTk9PV7L7qxSsU1NTvn+3GPIGBoDKEawOwdp4wbraY6iG/L5f7Z1dwWA9ePBgeDo3arDW8D2gWvngwYODg4OuXDbkDQwAlSNYHYI1MgRrMwdr+KMI1pV9D4TUKsEKoB4RrA7B2szBatu2fhZRsViUM1Smp6e9v+nVOS4jIyMSWCEnIdm2ra8t6EQl/dwmfQNWdmdlT32/q87CcZ27s1LBmk6n1VTOZDIZ9Ml4eLDmcjk5LPrJQ+FHUk5Kc+2XfpBPnz4dvgvFYvH06dNq4ampqeWeO+V7epPrTClZf8iuLes9kMvlkslkUK16g1XeGyEHxPUO0Y+t/hSuw152IoS+77Ozs5W8deWQNt4pegBCEKwOwdrMwTozMyMFJoNSIplMurY26Dwn12LFYlFOdnF9LO79FS5dKJ1R4ce1y9pZ2VPf76qCca1qBYM1l8up/z02Nha+pOvruVxO/jzQjYyMeP8ACDqSerrJtE79W0GZmE6nXetRT115Vvp++C4vXLFYlLOyRCqVqnzCq/c9IPsecmkCfau8b9SBgQHvA+UdYtu2a5vliTKZjOtwhWxDJpMZGBjwPrX3rSVvXdc/KyaQAE2FYHUI1siYHKzq8kMDAwOjo6OpVEp+Jbt+405MTAwPD8svWjm3SV9Gr5DBwcHUZfIQ76CX2uaJiQkZFVPrbKRg1UvR9ypXvgmid+fg4ODExIQM1vqeyaQfyWQyqV5KOfIjIyNqG+RV1l8U7yZJG6nlJyYmgt4VVQerWqE6N254eFh2Vj+jf1nvgWKxWLZW9a1S/2NgYEC9S/UddP09IO8Q9feD64AMDAxkMhk5BdB1rLx/Wsgfh2r5dDqt/ynoeofIW1dtg5xl2DDXpwNQCYLVIVgjY3KweitBAstbD+HnrIyNjalfq67fu/JL2pVl8qvaO6DbSMGqX9bAWzC+R0YmEriOpGqjgwcPTk1NeTfY+1eBPiznGr+Ub1X4Yumftl9hsHqzUh+8rPBKt/p7QP5SKtvTslUHDx50ZZ98y3WSnHzdtXJ9xNp12OUYul4mGW53vRay+66pI/o/0iu/xAeAOkWwOgRr4wXr4ODgbDB9efld6Jt9o6Oj6tdn5cEqv4x9xxFliEj/fSz5Ut38xZCd1VdoQrDatq1qb2RkJHxJJZPJpFIp3yMpY5PeDfbWXrFYDBqUlW+5nlptp28eyZGs8IYIIcHqPYzy/nFFXhDf2QVl30j6CGvQOgcGBnwf4t3mkMj2fZnUGK3vvzgZIdY3TA746Oho+H4BaGAEq0OwNtuNA/Tl5Xeh78eLMkRUebCqqQVBw2+SR3rrSHeu+M7qTWBCsIYMjob0ky91nH032LeEfMtJ/5bvRgbNJVUPqeSD+5BgdRWh8BZbCHnzqHH9Cg+jbJXvOK7vNsvfWt7l1Sh1yLf0w27bdnhVq4fo/xz0iebh+wWggRGsDsEaGZOD1Xer5LuuX64hweobeeF5VPXVqeoxWGXc2nVUlxWss7OzISOsvsOiIQfZu5u+R0NXdoEK57D6PkR9t8LRRNd7IGTstuxWeXvd+xDfbV7Wt4L+CAxZgGAFQLDaiwRrhEyewxoerK7vhvy+V18fGBgYCeD9rPkKg7WO5rC6PvbVR9FCgjWXy6XT6bGxMe8J9ZVscBXBKlNBgl5EdbZW0BDpigRrhS+rHqwRZwbwAAAgAElEQVRqSqhMAw2ZBRserL5vlZUKVhmpDTq28ip7t4cRVqCZMcLqMMIameYJ1rL0LWy2YHWd9x2yZNA1rdRJ4qsXrJWM04cczJoEq8xPqOS0sJoH67KOLcEKgGC1GWGNUvMEayqVmgmlfxrehMEqk1BlVd4lZSBWHc/p6emZmRmZVFr5Blc9wjo4OBj+IlZyEKIJVtdYr3yqHnROvQnBWvmxJVgBEKw2wRqlZgjWkGmUK7XNqxGsKtGiDNZisSgfrPueqh9+3dZVDVa18ipOg6tVsHoXDrpcV8hWRROsZeewhmwPUwKAZsaUAIcpAZFphmCVGxCs3jZX98DwPVXtGGWwuq7H6V1Srml/hYVdRbDKWUcVXgzVwGANvyZrDYNVrhJQyUXBXNtDsALNjGB1CNbINEywyuCf9yHh19GcmZlJJpNjY2PRTwmQUPDeHFV2J+Jg9c5o9Aar78WS5CCvUrDKtaV8bySrxoYHBwev8Dqsqxqsrsmsrutz1TBY9WkMvlcNU+dd6f98CFYABKvNlIAoNUywes8Z8p2d6WpWVatBNw5Y7WDVL/A+MTGhxg5t25YLx9YkWPWtCrpcvOtypzMzM/qtcctucHXBKoOsqVRKH2fVb0ZlzhzWoIXl83fXMaxtsMrfG4ODg/qxLRaLMtZOsAJwYYTVYYS12a7D6nt10mUFqyuzXJcU1e85JJfv0b/iWltkwarf4lKXSqWiP+nKOxAYcsVWuUyYfMztvSL9ygar/oeHujWXIl+pcJpybYNVn8yq3xqjtsGql7TKVv2Kb95r0DLCCoBgtRlhjVIjBWuxWNSfyzsBIJ1Oyy9g/am9EwojC1bX8KQqPxVeNQxWfU6C94qtejVKvKors652sKpxVv1wyQZUPv+y5sHqe8vWmger+kPF+681mUyGXASNOaxAM2OE1WGEtZGCNZfLlb1cjms0VH3Rdzpd+HfVB8RqAd+zc9TDp6am0un09PR00Bk8apvL3v99BR8oh0L2S+2Ia1Vq/a7NDj8gvk9UyalLIUvatq2OYTqdllKsfIPLHquQR8kC09PT6XR6ampquUdb3iEVbsxyX9ZKFpZtkMV8t8r7tveuxPeJqvuWbH8mk1EvbtntqfBdB6AhEawOwdpIwQoAABoPweoQrJEhWAEAQBUIVodgjQzBCgAAqkCwOgRrZAhWAABQBYLVIVgjQ7ACAIAqEKwOwRoZghUAAFSBYHUI1sgQrAAAoAoEq0OwRoZgBQAAVSBYHYI1MgQrAACoAsHqEKyRIVgBAEAVCFaHYI0MwQoAAKpAsDoEa2QIVgAAUAWC1SFYI0OwAgCAKhCsDsEaGYIVAABUgWB1CNbIEKwAAKAKBKtDsEaGYAUAAFUgWB2CNTIEKwAAqALB6hCskSFYAQBAFQhWh2CNDMEKAACqQLA6BGtkCFYAAFAFgtUhWCNDsAIAgCoQrA7BGpnnnnvOsqxMJhPdUwIAgPr385//3LKspaWlUsPJF+zZufyZs4W57Hw2b+cKTn5+sbBwrrBwbt5emreXFpyivUiwRujll1+2LOvtt9+O8kkBAEC9++lPf3rPPfeUGlGeYDXNH//4R8uyBgYGar0hAACgbiwsLFiWtXfv3lIjyhOsppmfn7csa/fu3bXeEAAAUDfefPPNBh7wyhOsBtq3b59lWR988EGtNwQAANSHJ5980rKsU6dOlRpRnmA10Pj4uGVZv/rVr2q9IQAAoA5MTk5alvXEE0+UGlSeYDXTf/zHf1iWNTExUesNAQAAptu9e7dlWcePHy81qDzBaqY//elPlmXt2LFjZmam1tsCAADMdfDgQcuyfv3rX5caV55gNdarr75qWdbDDz985syZWm8LAAAw0YsvvmhZ1q5duy5cuFBqXHmC1WTJZNKyrK6urnQ6XettAQAABllaWurr67Ms64EHHmj4sa08wWq4V155xbrsueeeY3oAAAAolUpjY2P33XefuvBqNptt+GOSJ1jNd/z48UcffVRl61NPPfX666//+c9/tm37AgAAaA7FYvHMmTNvvfXWoUOHurq6VBW8+OKLpeaQJ1jrxejo6K5du9QbFAAANK0777zzN7/5TVN97ponWOvL6dOnf/e73z333HP79u17DAAANIfHH398//79L730UjqdvnTpUqnJ5AlWAAAAmIxgBQAAgNEIVgAAABiNYAUAAIDRCFYAAAAYjWAFAACA0QhWAAAAGI1gBQAAgNEIVgAAABiNYAUAAIDRCFYAAAAYjWAFAACA0QhWAAAAGI1gBQAAgNEIVgAAABiNYAUAAIDRCFYAAAAYjWAFAACA0QhWAAAAGI1gBQAAgNEIVgAAABiNYAUAAIDRCFYAAAAYjWAFAACA0QhWAAAAGI1gBQAAgNEIVgAAABiNYAUAAIDRCFYAAAAYjWAFAACA0QhWAAAAGI1gBQAAgNEIVgAAABiNYAUAAIDRCFYAAAAYjWAFAACA0QhWAAAAGI1gBQAAgNEIVgAAABiNYAUAAIDRCFYAAAAYjWAFAACA0QhWAAAAGI1gBZYtm82eOHHi3XffPX78+KlTp4rFIgcRAIDVQ7ACFSkWi0eOHLnnnntaWlo2btzY0tLypctaWlpisdg3v/nNX/ziF2+//TZHEwCAFUewAmXMz8/39PRs3LjxpptuWh/s+uuvv+WWW771rW8NDw9zTAEAWEEEKxDm5Zdf/spXvhKPx/U2veGGG2666aZ4PH7jjTdu2LDBVa4333zzHXfc8ec//5kjCwDAiiBYgUCPPPKIPqr6pS996bbbbvv5z39+9OjR48ePf/DBB++///74+Hgymbz77rtvuummG264QRbeuHEjQ60AAKwIghXwd/vtt8vo6Y033rh9+/bwKaoXLlw4fPjwLbfcct1110mzvvjiixxfAACuEMEK+PjJT34i3fmlL31paGiowsO0tLT04IMPfvGLX5RmPXr0KIcYAIArQbACbvv27ZOZAF//+tenp6eXe4x6e3s3btyo1rBhw4Yq1gAAAATBaqj29nbveeitra3btm1LJBKZTKbWG1hPEomEOoDt7e1lFx4fH5fW3Lx580cffVTdk/b19ck4a0dHR3UrAQAAJYK1voJVxOPxZDJZ621szGD9/ve/rxb+4he/+M477wQtls1mDx8+PDAwELKq3bt3q3kFGzZsGBwcrHbzAQBodvmCPTuXP3O2MJedz+btXMHJzy8WFs4VFs7N20vz9tKCU7QXzzvnLuj/LS5drOS/NRUut7h00fUE9uJ5e/H8glNccIrz9lJh4Vx+fjFXcLJ5+2xuYS47f+ZsYXYuf+HCxVKjB2tLS0v7p2KxmJ6tqVSq1pvZaME6Ojr6pS99af369X/7t3/b09MTtNj8/Pzdd999ww03fPWrX3311VeDFrtw4cLmzZvVU//jP/7jle0EAADNK0+wGh6siURC/3oqlZJsbWtrq90GNmaw/uhHP1JLfvWrXw1ZzLbt1tZWteS+fftClnz55Ze/8IUvrF+//stf/vKxY8eq3QMAAJpanmCtr2AtlUrJZFIGWScnJ/VvFQqFw4cPJz4Vcn565UtOTk729fWpxfr6+lzPmEql1LdcUxQmJydl5frXM5mM79dd3+rr6ysUCt6NSSaTagE1i1d2IWg9arEKg7VQKKjh1fXr1x84cCBkyVKp9OCDD95888233Xbbe++9F77kLbfcsn79+r/7u7977LHHwpcEAAC+CNb6C9ZSqeQ7KyCRSLhuyKTO0/LOHAha0pu/nZ2d3hm027Ztk5ocGhqSabX6Y3fu3CnL66eISW23tLToT7Rt2zbvE+3atSvosAwNDbW1tcmSskB3d7drJapxKwnW119//cYbb1y/fv1NN930/vvvl8p59913T5w4UXaxrq4u9ey33npr2YUBAIAXwdogwSpNprhmu+olqi8Zi8X0qbHxeFyPSz0iW1pa9EDUZyP4Pou+sD74KvW2c+dO9ZVCoaAv7LJt2zbfw+IKXPVd37xev369fD08WPfv368Wu+WWW0or55VXXlGXC9iwYUM+n1/BNQMA0CTyTAmou2CVQU1pxEwmI1/p7e1Vi2UyGQnBrq4uebiMrerJKB0pS6ZSKW8WZzKZlpYW9UW5ln5HR4frqQuFgt6L+rPL1E95uIzFxmIxSdve3l7vHrkuntDW1pZMJlOplFqVvsEdHR3qyLgGYsOD9aGHHlKLfec73yn7Aj355JO33Xbb1772tSNHjoQv+d5776mrun7lK19xjWEDAIBKEKx1FqyZTEaaTz5Vz2Qyai6payKpfP6uh5ordpVCoZBIJFKplHxRHus6tSuVSvX29qZSKRmLlbiUq43qSa3PFtDDWp5XvuLaeBkJbm1t9R6WlpYW1yRXaW59soHrScOD9Xvf+55azLKsUjnf+MY31MKPPvpo+JIfffSRGmHduHEjF3YAAKAKBKuhpMzUzQKEHoJl7xe6a9cuVyDqwbpt27aQAT99wDL8VgWTk5OuMJVBU/kf6okkgiVt5SuxWMy1Wj00ZTtDBp5l5FgfkXWNAYcH63e/+121WGdnZ6mcf/qnf1IL7927N3zJM2fOqHO5vvzlL7/xxhtl1wwAAFwI1rq8cYBvlmUymb6+vs7Ozm3btnnPqZLFXLNdVbkmEglvvLqmlra2tnZ2dvb19XnjVeYJqJWoB7a3t0vLqq2VQVDZ+PDToWRyrQxMymHxDlXKdvqeZFZJsMo1rb7//e+XVi5Y//znP6sd2bBhw8TERNk1AwAAF4K1zoI1Fot1dXV5m0wfTBXSkXqwqg/xXWdlSbnqn7Prc1tdXAOceonKp/xqGfVEakhVJjNI8oanpHc8dVWD9bHHHqv8AreVB2sqlVL3em1paTl16lTZNQMAABeCtS6vEhByZdaOjg41x7RQKOgf63sfNTQ0lEgkXGXsOitfZWsymezq6nINuOpTTmXSakdHh2yMGm1VLauuPyAZXWFKyjhxNCOs/f396k6qN9xww9LS0koF669//Wu15E033RS+JAAA8EWwNkKwBi2sn/wUvgZ9JDVkMf3KA3r8yahqPB5Xq5I5qdKv+sRWeaB813UZ17JzWL1VKsPJ+voV3232eu+999RF/r/whS/87//+70oF67e//W215A9+8IPwJQEAgC+CtaGC1ZVx3gydnJzs7u7etm1bd3e3vqQ+FqtmBSSTSTUdNujkfVf8yTaoYVG5lJXend5zxfSrBLhm5crFU/UR2ZBglZ2Nx+P6xAZ918remvVrX/uaWvKee+5ZkWCdnp5WNyOIxWK/+c1vwtcJAAB8EayNEKxyFnxbW5uaHqouU6VnojcfE4mECjt93FTqUC5WFY/H5catqVRKPqZ3bZh+5VTXhAHXXALX5aj07UwkEscu029Ypa8qJFjlBC91ftjhw4ePHTvW19enn39WNlj379+vZgXE4/Hwe65WGKw/+9nP1GI33njj7Oxs+LMDAABfBGsjBKs+iKjzvXlp0HlUruHP8BtQtbW1ubpT70XX7Vj127T6JmPIE+k3HQgPVtcTuU5TC3l23czMjJyO9i//8i8hS952221lr8N67NgxlcvXX3/9I488Ev7UAAAgCMHaCMGqPsF3nfjf0dERdNJVIpHQLyAgDeqqwKCrBHR1dblqVZF1eu81EHI1LmXnzp2u7Y/FYt6Fw4PVewGEWCymbqlQYbCWSqX/+q//Utf5v+GGG0IOfiKR+MY3vvH1r3/91Vdf9V0gm81u3rxZPe+NN94YciFbAAAQjmA11OTkZOqyykOnUCioE/97e3vVWUrqQgGKd3l1U9NEIjE0NBTyLGolyWRS3QrLN1Vd2+y9pKtsRsjD1RP19vaqG66GP0Ul65HF1J3AfDfM6+LFizJ6esMNNxw8eLC0fI7jfOc735Fafe6556pYCQAAUAhWwG1iYkLdm0o161NPPbWsY3Tq1Kl/+Id/uP7669evX3/dddf9+Mc/5hADAHAlCFbAxyuvvHLTTTdJs/7rv/7rn/70p0qO1Isvvrhhwwb1wOuvv769vX1xcZFDDADAlSBYAX9HjhyR9JRLzAbNVThz5kwymbztttu+8IUvqOU3btz4ve99L5/Pc3wBALhCBCsQaHx8/NZbb3WdxRWPx//5n//5jjvueOCBB+6+++4f/OAHX//61+PxuLoelrJhw4aQqwcAAIBlIViBMEtLS3v37r3pppv0Hg2xcePGb37zmyMjIxxWAABWCsEKlPfhhx/u3bv3q1/96t///d/7luuGDRs2btz43e9+97e//S0HFACAlUWwAsvwxz/+8dlnn3344Yfb29u3bNmydevWzs7Oxx9/fGBggCutAgCwSghWAAAAGI1gBQAAgNEIVgAAABiNYAUAAIDRCFYAAAAYjWAFAACA0QhWAAAAGI1gBQAAgNEIVgAAABiNYAUAAIDRCFYAAAAYjWCtS/Pz86dOnXr//fdPAACAJjA9PT07O1tqVvmCPTuXP3O2MJedz+btXMHJzy8WFs4VFs7N20vz9tKCU7QXzzvnLuj/LS5drOS/NRUut7h00fUE9uJ5e/H8glNccIrz9lJh4Vx+fjFXcLJ5+2xuYS47f+ZsYXYuf+HCxVIzeeedd/r6+u677z4LAAA0nzvuuOPxxx9/7bXXCoVCqZnkCda6kEqlHn74YfVmvffee/ft2/ff//3fLwAAgOZw6NChX/7ylxIDlmUdOnTItu1Sc8gTrIazbXv//v3qrdnb2/t///d/td4iAABQM2fPnn3ttdfuv/9+y7J27NgxPj7eDC9GnmA12UcfffTggw9alrVv374PP/yw1psDAABMceTIETWe9eqrr5YaXZ5gNdbc3Jz6++nw4cO13hYAAGCcqampn/zkJ5Zlvfbaa6WGlidYjbV3717Lsl5++eVabwgAADBUJpPZsWOHZVnvvPNOqXHlCVYzvfzyy2rSaq03BAAAGO348eOWZd1///0XLzbs1ZPyBKuBstmsZVk//vGPFxcXa70tAADAdIcPH7Ysa2BgoNSg8gSrgf7f//t/lmUNDw/XekMAAEAdWFpauvvuu++5555Lly6VGlGeYDXQfffd96Mf/ejChQu13hAAAFAfXnjhBcuyjh07VmpEeYLVNB988IFlWc8880ytNwQAANSNkydPNvDZL3mC1TSvv/66ZVmjo6O13hAAAFBP7rzzzgceeKDUiPIEq2n6+/styzpx4kStNwQAANSTXbt23X777aVGlCdYTdPb22tZ1l//+tdabwgAAKgniUTCsizHcUoNJ0+wmubAgQOWZc3MzNR6QwAAQD35xS9+YVnWwsJCqeHkCVbTEKwAAKAKBKtz7oL+3+LSxUr+W1PhcotLF11PYC+etxfPLzjFBac4by8VFs7l5xdzBSebt8/mFuay82fOFmbn8hcuNOAdHQhWAABQBYLVIVgjQ7ACAIAqEKwOwRoZghUAAFSBYHUI1sgQrAAAoAoEq0OwRoZgBQAAVSBYHYI1MgQrAACoAsHqEKyRIVgBAEAVCFaHYI0MwQoAAKpAsDoEa2QIVgAAUAWC1SFYI0OwAgCAKhCsDsEaGYIVAABUgWB1CNbIEKwAAKAKBKtDsEaGYAUAAFUgWB2CNTIEKwAAqALB6hCskSFYAQAwysmTJ49qstlsyUgEq0OwRoZgBQCg5p5//nnLsq699to1AeLxeHd39/j4eMkYBKtDsEaGYAUAoFZOnjzZ3d29bt26NRW7+uqr9+zZY8KwK8HqEKyRIVgBAIheNpvt7u729mgsFtuyZUuXZtOmTddcc41rsXXr1u3fv7+2LxzB6hCsjRSsExMTI+VMTEyUGkLQzo6NjaXTadu2a72BDUgd8+np6VpvCABUamho6Oqrr5b6XLt27ZYtW/r7+0Meks1m+/v7N23a5JoncPLkyVodd4LVIVgbKViHh4cPljM8PHyFz2Lb9uxlpZoqu7NjY2PFYrG2G9lg1DFPp9O13hAAqMiePXv0VO3q6lrW5/vZbHbLli36UOvQ0FBNDj3B6hCsjResAwMD6WBXPjyWTqdVEZZqKmhnJyYmBgYG1BYODg7WdiMbDMEKoI5s3bpVWnPLli1BqSqXCAg6y+rkyZOxWExW1dPTU4ocweoQrI0XrFc+hlpHwRq0sxMTE2ojGQ5c8WPOIQVQR7W6du1a3wkA2WzWsizXOVjqLCvfFXZ1ddWwWQlWh2CNDMEacZ3LEOwKP3ETI1gB1F2t+o6bjo+Ph1wu4Nprr/Udju3p6alVsxKsDsHazMFq27b6GF2dojQzM5NKpeTcrFwu51p+eno6nU6PjIzI4KX+cJfTp0/LeVGpVCpoKoJapzos+gZc+c5OT0+r7fRuXrFYnJqaGhsbK7t5im3bU1NTcl5X+ElduVxOdnxsbGxqaso1ldZ12F0bpr6VyWR898h3UkexWJyenpZDl06nva+dMjMzI2uwbVse4lredXzkGQlWAObr7++vvFavuuqq7du39/f39/T0bN++fe3atRU267p166K8UCvB6hCszRysMzMzKulUKXrPW5qamvKu38u1U7lcbnBw0LvY4OCgN6SkgaQvK5xvUHZn9b3Tv55Op5PJZIWbp0+BcPFtXJmKoEsmk/rCxWLR9/Dqke07+9b3UZlMxnd3RkZGvOecqX0ZHh6emZnRH6Ufounpae8KBwcHi8UiwQrAcCdPnpQYDQpKuWXAli1bXN/KZrNyWSvvd5Xdu3dL1JaiQrA6BGtkTA7WsbEx9cB0Oj01NaVXlytl0um0ZKvvCKtt25I7qVRq6jKp4WQy6aootTa1AclkMpVKqXWuUrBKfSaTyYmJienLZPO8mSjLDw8PT01NzczMTE9PyxFwjYPKcRseHp6enlYLS7vrm6HWMDo66no6/c8G14HKZDLq63pVS+DK7ugvkKpM7+4MDg6q10iOtryCISscGxsjWAEYLh6Ph39kL0OkmzZt8l0gm81eddVVapmg61jJpQO6urpKkSBYHYI1MiYHq3e8MJfLqa97oyr8pCs1YcA7WpnL5SSSvNvsW1dXuLNTU1Ou7bRtO+i5JAddx0Fts/cgjI6OuibIyrip90q3alP1eQ7ebVPk+gbeLVE1rD+j/G3g3R3pTtfGyGs3MDDgnZBQyQo56QqAsYaGhlRHxmKxoGWkNUMuqipRu3v3bt8Fstmsmjywbt26aO6DRbA6BGuzXdbKN1hdEekaL6w8WH1HAcMnlUqwLvdS/+HBWiwWfVtTzR/1fS4Vi/ohkgb1vmq2bWcyGb3qgmYgqFh3LSzprI/Rqj8S1NCm90VRm6cHqFrMO2jtepn078oXfd+H8or7Hh8Z/eUqAQAMH14NiVF1gaprrrkmZD3ZbLbsAKpEbTSDrASrQ7A2240D9OWlsXxP8ZH6rDxYVdN4xyOFd+yw6ktxhTzw9OnTvh/EV7JC18ZXnmjSoN6Zqb68AaqGXUdHR9XrkkwmvSvXd8e7Bp3Utn601Wunr1mnDprvXy/6oDvBCsBAJ0+eDP+sX1Ef94cMwSplR2plmauuuqq0+ghWh2BtvGBNJpPDwfTlQwYFw09aCgpWVTwhQeOdBHmFwZpMJvX7suofqVfYjuquXfr0U++zqIw7ffp0+KqkklOpVNk7galn1GfNqudSfamGh2WgWrWsb8L6/rERFKBy0pXv8t7A9V2AYAVgJrm8f8j5+2qZq6+++gpHWOWyrIywXqF8wZ6dy585W5jLzmfzdq7g5OcXCwvnCgvn5u2leXtpwSnaiwRrhEyew7pSwXqwMvqg4BUGa5DBwcGgkpNrVPmeXO/aEtu2XVc8GBkZmZqa8v3QPJfLuYo5fGG1jPquDIiq/6vmyEpwq/+rp2f4a6cfIn2PQoLVdxC37KwJADBwDms8Hi87hzUkauXj/qAzt7LZrLoWwdq1a5nDeoUIVuMQrL5ReIXB6pqwm8lkZmZmQqbDui6epdagLo+gwtS7JeqipN4LdaVSKe/k0aCFfT+4V8WsRjTVBAwZcFXbKRvjHfuUYA3ZWTVDo8JglYAuW8AEKwBjbdq0KXzgs2zUVhKjMlk26KysFceUAIcpAZFphmBVBbasoFmNOaxBZI8GBgamp6ddZ4aVXWGxWMxkMhMTEzKMOjY2FrSwOitLX9jbrPqUXzVDQJaR8U59MnGF53iF7FElUwJCVqgWIFgBGEvO31+zZs3Q0FD4zIHNmze7knR8fFyu0hqUvDIZoOxE2BVEsDoEa2SaIVjVBgSdtbMi23wlD1SBGHRa/bJWKKfMl724gVxv33vEVImqmamqa/VDrYZpVfX6nspWdp6u9++H8GBVywedxSUNTbACMJmMoQbdjEqP2nXr1m3durX7ss2bN8udV4MuIyCzBdauXRtyLYIVR7A6BGtkmiFY5dygoCuqBt3pKppgDX+IyjXXd4vFou8lunwPTrFY9O3XoCOpn8jvPXlfxlxVuXrDVE1sDbqNrTypvv3hwaoqXL/Uq+/rTrACMFzZG6iOj4/LHa28Nm3aFH5f1qCbvq4egtUhWCPTMMEqF733VqkMwvkOsqoBxYGBAe89n6IcYfW966nslL7CkP6Wj+llX1TP+dae7yVR9ej0vWSsXNwqaChX5uN6z+svFosqc13bEx6sslPeOJbr2hKsAOrC9u3bJUD37Nnju0xXV5fc1EoGVn1PtMpms1u3bpXFgk7GWj0Eq0OwNl6wDg4OzgbTx9uqC1Y5O2dsbEyt0zfOxsbGpLHUqUhyFyXvNkcTrBJk+vlSxWJRttm1Qv3OWHovTk9Pq33Rc1C/z61rx71r1lclT+3tTmlE38jWL5WQTqdlj2ZmZoIuQxserOErTCaTXCUAQB2RyaZqumrQJ/jZbHbosqD1DA0NycTWtWvXRl+rBKvNZa2a8MYBeqxUF6yuW957F3B9VzcwMLDcU53Cd3a5D9S3bWBgQIpwdHTUd4V6UEqxyf917Yu+ctfCQTeelSb2HUNV47IKQEsAACAASURBVK/hdwfwXpEgpIDLBmvICjOZDFcJAFBfenp6ZLrqmjVrLMta1sTT8fFxuSCAukdAxDMBBCOsDiOskWmkYFWjkiGfEUvc6AGnD9rVKlhVtLmuwKpyMGiFMzMz3n3xvaaVClxX8KlbrQZN6pWTq3zHUCWXfefR6nvkuv7r6Oio70PKBqv3xVVlry5qS7ACqDve6aqbN2/ev39/SLmOj4/v2bNHRlXDJ7ZGg2B1CNZGCtbo2ZeFLDBzWXhv1YTasGW9HMt6SPQ7btv2cvcoXC6XM/O1A4ArHGpVrr766vhl3d3dlmWp/60uwqq76qqrQiYMRINgdQjWyDRksAIAUBey2WxPT0/IxQG8YrFYf39/yQAEq0OwRoZgBQCg5sbHx3fv3r1p0ybvmKsaT92yZcvu3bujvMxqWQSrQ7BGhmAFAMBAQ0NDtTqbqkIEq0OwRoZgBQAAVSBYHYI1MgQrAACoAsHqEKyRIVgBAEAVCFaHYI0MwQoAAKpAsDoEa2QIVgAAUAWC1SFYI0OwAgCAKhCsDsEaGYIVAABUgWB1CNbIEKwAAKAKBKtDsEaGYAUAAFUgWB2CNTIEKwAAqALB6hCskSFYAQBAFQhWh2CNDMEKAACqQLA6BGtkCFYAAFAFgtUhWCNDsAIAgCoQrA7BGhmCFQAAVIFgdQjWyBCsAACgCgSrQ7BGhmAFAABVIFgdgjUyBCsAAKgCweoQrJEhWAEAQBUIVodgjUxvb69lWX/961+je0oAAFD/EomEZVm2bZcaTr5gz87lz5wtzGXns3k7V3Dy84uFhXOFhXPz9tK8vbTgFO1FgjVChw4dsizr5MmTUT4pAACod7t377Ys69KlS6WGkydYTTM8PGxZ1htvvFHrDQEAAPXknnvuuf/++0uNKE+wmub999+3LOvZZ5+t9YYAAIC6cerUKcuyfvnLX5YaUZ5gNdCOHTvuvffeWm8FAACoGy+99JJlWb///e9LjShPsBo7jXVsbKzWGwIAAOpDV1fXHXfcsbS0VGpEeYLVQH/9618ty/rpT39a6w0BAAB14MiRI5ZlvfDCC6UGlSdYzfT8889blnXo0KFabwgAADDa9PS0ZVn33ntvQ17QSiFYDXXp0qVHH33Usqzh4eFabwsAADBUNpt94IEHLMt68803S40rzwirsT788MO7777bsqzXXnut1tsCAACMc/r06YcfftiyrBdffLHU0PIEq8lOnDixY8cOy7IOHDiQy+VqvTkAAMAUo6OjP/zhDy3LSiaTpUaXJ1gNNzMz8/jjj1uW1dnZefjw4Y8++qjWWwQAAGrmwoULb7755p49e6zLfve73zXDi5EnWOvC0NCQGmq1LOvhhx/u6+t7+eWXhwAAQHN49dVXn3/++SeffPKOO+5QPfDLX/6yeYax8gRrvbh48eLo6Oi+ffs6OzvVOxUAADSbBx544IUXXvjwww9LzSRPsNadS5cuZTKZd999dxwAADSHiYmJEydOFAqFUlPKE6wAAAAwGcEKAAAAoxGsAAAAMBrBCgAAAKMRrAAAADAawQoAAACjEawAAAAwGsEKAAAAoxGsAAAAMBrBCgAAAKMRrAAAADAawQoAAACjEawAAAAwGsEKAAAAoxGsAAAAMBrBCgAAAKMRrAAAADAawQoAAACjEawAAAAwGsEKAAAAoxGsAAAAMBrBCgAAAKMRrAAAADAawQoAAACjEawAAAAwGsEKAAAAoxGsAAAAMBrBCgAAAKMRrAAAADAawQoAAACjEawAAAAwGsEKAAAAoxGsAAAAMBrBCgAAAKMRrAAAADAawQoAAACjEawAAAAwGsEKAAAAoxGsAAAAMBrBCgAAAKMRrAAAADAawQoAAACjEawAAAAwGsEKAAAAoxGsAAAAMBrBCgAAAKMRrAAAADAawQoAAACjEawAAAAwGsGKahy7rFAoyFcmJyczmQxHEwAArDiCtT5MTk4mNMeOHavVliQSiXg8vv5TqVSqVCrt3LlT/d9kMlnbo3QsgN7WqEShUJCjxxEDANQWwWq6oaGh1tbW9R6tra1DQ0MRb4yEqVAhKP+3vb29VDvt7e3rg3V3d5OtlUulUnLoVvE1AwCgAgSr0RKJREiBqQiLbGMKhYIepolEore31xWy0Td05cG6fv36eDzOvIUKEawAAHMQrObq7e2V0orFYl1dXb29vUNDQzt37ozFYvItqcYoC8Y7VGnCHFYJ1paWFn0GhR6y27Ztq+1G1guCFQBgDoLVUJlMRqaKtrW1uQKxUCi0tbXJqGE0n3SbXzASpt6ZCfpY9eTkZI02sJ6Y/3IDAJpHvmDPzuXPnC3MZeezeTtXcPLzi4WFc4WFc/P20ry9tOAU7cXzzrkL+n+LSxcr+W9NhcstLl10PYG9eN5ePL/gFBec4ry9VFg4l59fzBWcbN4+m1uYy86fOVuYnctfuHCx1KDkQ/ZYLOY7cpnJZKQnvKc6HT58uLOzUyVvPB7v7Ow8evSoa5nJycltl+3cuVNNlpUIbmtr0z/cV0vKd9U4pTxQba36imyJrFyNaMqpWolEwvvUfX19ap5uPB6XmaaFQmHXrl3q621tbbt27Srb5SHBWiqVZFhabYN+rLZt26bvWl9fn+9zqaMqfyds27bt8OHD3sUKhUIikZDD1dra2tnZqc5O8z04vl93VbV8XX8zqCeSjW9ra+vu7va+W/RXZ3JyUnYhaIM7OzszmQzBCgAwB8FqKDnRSqLQa+fOne2X6bMCCoWCFEn4WUdSJGoN3uVltXq76KQLpRSlBfWH6KObagH9qb0ncqkRZb2P9a9XHazejSwUCnqqhjyX7/b4Ljk5OalfRUGnv5RSz3rI6q+C/prK4YrFYpU8kesPGNnxnTt36g8J2bV4PD40NORaEgCAWiFYTaSf3qQHTSX0Wu3o6HDN4NSbSTJIxXEsFmtvb3e1ixqum5ycdH1LhbKsLTxYVSS1tLSoU7W8T62+pU/MVc/V1tbm+nr4ZbPCg1X+BpCN1Fu5q6srkUi4viKP1ZtbLZlIJGTD9CWlgGUebVdXl/fV7OjocG2M/kXXLsizd3R0yDtE0lPNb965c2dLS4vv20YOixyBtra2lpYW1warbe7o6FAHX782RWVvPQAAVgvBaqKqP43VH6i3XTKZlK/LZ836wh0dHTJMqC/sO87n3arwYG1paXFlt/5dqT3XUJ88daFQkBSTYltusOrPqGY76E+nf/6u737IDqqOd22VPk9D/2heDZ3GYjHZKXkWfVNdI6beZ5fXVCK4paVFH9+V5G1tbfU+XB1t13iw94VwHQSCFQBQcwRrQwWrdIweH65qkW/pz+Ka+Cglp/dZ1cHqHSQOuuCAfCauf/atDzGGX+fVN1jVPRekBWVkUbimGejRGX5AvPTHhp/a5X0WaUepczlurpdJH151DTnrq5VZyPrFE1ybISPK3m/pA8MhOwIAQAQI1oYK1qCO0VtQYi7kWaRjViRYQ3bQ1Un63NYrCdYQQVMs1C2d+vr69I/IfetNnZUVdP8nyU11Atnhw4eDylUiWG2S7KMcBNf0iba2Nu+x9U7q9b4W+hzWoIW93/IdaQYAoCYIVhNVPlDnEpJl3oIMaUqJp9UOVleArmqwemcmqBP/g86mcp1H77uY6/R/dbEFfdKt0tra6j1/3/VXgdp4VfCqetXOyr5LU/qeg+WdFRAyw7iSkWOuEgAAMAfBaqhK7gswOTmpxgUlauVRTR6s6gQyOTMskUj43oLL1aDq3C/9VH194UKh0Nvb65utrtrLZDKuU6CUeDyuvy6undUnbMiArr5T8tjwY7usYA35FsEKADAHwWooSRb5ILiS095lbO8KpwTUe7CGL+b6yDsWiyWTSf2z9ZAtV+WaSqUSiYSepL4D4ZlMZmhoSJ9O4Ho19Ytbqf+hwlouKeU7mFr1lICQYGVKAADAZASroVzXMfUuoA8EymfNISddydRM35OumjBYvR+1e0+c17+eyWRc81aDrj7mvUtt0HxQGQ2VgVu5aYLr6/rlEQqFQtBfJuEnXXnfSDItQb+qgPf6aGUPJgAAq4pgNZd+Vc7Ozk4Zw8tkMt3d3fItPWUquaxVJZ8sN1WwuuLeG2pBU4q9wSp/RbS2tlZy9QPX1aP0zXbNx3WFqfxl4roxr2y8fjZbSLDqdd7d3R20YWUPJgAAq4pgNVfI3ZVCbv6kZ25bW5t+y01XnDV5sOpN1t3dffToUdclAnyvhBqPx3ft2pVIJOS2sXod6mOfra2t6sYB+l8X3tmu+tPp39VvVeC97pj+ROpyBPr26MOr4cHqesO0trbKPXj1CQ9lDyYAAKuKYDVaoVDQe8Klvb3dO4WxUCgEnSzvumh8kwdr0FUF9FKs5I+HWCymD7tOTk56rxLgvTuDCJoIq499+s5jDnmioFuz+gar767FYjFuzQoAMAfBWgcmJye7urr0y793dXWF37I1mUx2dHSooInFYh0dHd7T5NUNVxXvw9XX9fQJWX7nzp2u5UMW1r/rnT/q+3XZHu+5Qb6bEb6YTj93qq2tTR2l8MMimdjW1tbb2+tt0Ewm47ojbkdHR9BNZXt7e4OeTr4edKWIQqGgP1FbW1tXV5drLNb31fFdj8pWdaPXTCYT/goCABAlghUAAABGI1gBAABgNIIVAAAARiNYAQAAYDSCFQAAAEYjWAEAAGA0ghUAAABGI1gBAABgNIIVAAAARiNYAQAAYDSCFQAAAEYjWAEAAGA0ghUAAABGI1gBAABgNIIVAAAARiNYAQAAYDSCFQAAAEYjWAEAAGA0ghUAAABGI1jrzMLCwsTExMDAwLPPPvtLAADQHJ555pn+/v7XX3/9ww8/LDWffMGencufOVuYy85n83au4OTnFwsL5woL5+btpXl7acEp2ovnnXMX9P8Wly5W8t+aCpdbXLroegJ78by9eH7BKS44xXl7qbBwLj+/mCs42bx9Nrcwl50/c7YwO5e/cOFiqWm8/fbbTz31lAUAAJrbz372s9/+9reO45SaRp5gNd+pU6eefPJJ9R7dtWvXSy+99M477/zlL385CwAAmsPs7OyJEydef/31/fv333777ZZl3XXXXcPDw6XmkCdYDTc6OqpS9emnnz5x4kStNwcAANSY4zhHjhy54447LMvq6ekpFoulRpcnWE02ODhoWdYdd9zxhz/8odbbAgAADDI3N/eLX/zCsqw9e/Y0/PSAPMFq+NhqV1fXBx98UOttAQAAJvrv//5vy7KeeOKJUkPLE6xm+vDDDy3L6uzspFYBAECIAwcOWJb1/PPPN/BRyhOsZtq3b59lWW+88UatNwQAABjtwoULDz74oGVZ77//fqlB5QlWA7377ruWZT311FO13hAAAFAH3nrrLXV+dqlB5QlWA/3nf/6nZVlTU1O13hAAAFAfHnvsMcuyPvroo1IjyhOspllcXLQs69FHH631hgAAgDo7V/uVV14pNaI8wWqad955x7Ksw4cP13pDAABA3cjlcg18uYA8wWqaI0eOWJY1MTFR6w0BAAD15N/+7d927NhRakR5gtXMC6p9+OGHtd4QAABQTx5//HHLshryxld5gtXMq6nNzMzUekMAAEA9UTe+WlhYKDWcPMFqGoIVAABUgWB1zl3Q/1tculjJf2sqXG5x6aLrCezF8/bi+QWnuOAU5+2lwsK5/PxiruBk8/bZ3MJcdv7M2cLsXP7ChYuN94YmWAEAQBUIVodgjQzBCgAAqkCwOgRrZAhWAABQBYLVIVgjQ7ACAIAqEKwOwRoZghUAAFSBYHUI1sgQrAAAoAoEq0OwRoZgBQAAVSBYHYI1MgQrAACoAsHqEKyRIVgBAEAVCFaHYI0MwQoAAKpAsDoEa2QIVgAAUAWC1SFYI0OwAgCAKhCsDsEaGYIVAABUgWB1CNbIEKwAAKAKBKtDsEaGYAUAYFWNj4/H4/FsNttgx5lgdQjWyBCsAACsnmw2u27dujVr1lx77bUN1qwEq0OwRoZgBQBg9YyPj69du3bNZQ3WrASrQ7BGhmAFAMCEZh0fH+/u7t66dWs8Hr/22mtl+Xg8vnnz5j179hw9etSoV4pgdQjWRgrWXC43W04ulys1hKCdrfV2NTJ1zG3brvWGAEA1zTo0NLR161Y1baCsdevWbd26dXx83IRjTbA6BGsjBevw8PDBcoaHh0sNIWRnk8lkKpWiq1bpmKfT6ZVfNQCsfrOOj497w/Sqq66KXXbVVVf5lms8Hq95thKsDsEamYYJ1unp6ZHLSjVVdmeTyWQmk6ntRjYYghVAvTdrT0/P2rVrt2zZ0tPT45uh2Wy2v79/+/btrn61LKuGk2IJVodgbbxgXe0x1HQ6rYqwVFNBO5vL5aamppLJpGrWhpkCYQKCFUBTnYPV398fi8WkWa+99tpaDbUSrA7BGhmCNco6z+VyqllHR0dX+ImbGMEKoI709PToQ6RVXzegv79fRlvXrVvX399fihzB6hCskamXYC17YtayRljVaTqVP3uxWKzw3KmyOzsxMRG+nZU/l2Lb9uzsbLFYXPGFV0oVZ0SpI+C7ner46CskWAHUiz179kiqhp+DdfXVV8t3Lcs6efKkd23ZbHbTpk2ywuiblWB1CNZmDtaZmRmVdDMzM7lcbmxszHXekqtjgqaNendqZmZmZGREX2ZsbMx336WBisViKpWS5a98Z/W9079eLBbT6fTAwIC+eYODg0ETXovF4sTEhBqvlYOjNth34VQqFb5wLpcLOm7yrVQq5V252mbvt6anp127E3TOmfpjQx00faf0LfEen4GBAbUAwQqgvsZW165dOzQ0FDKf1fcsq+7ubt/V7t69W8ZZI54bQLA6BGtkTA7W6elpvbH0jNNLq8JglSFYr6mpKd9tTqfTrsBdpWAtFouDg4OVb55reT3jXAdHn4fgXXhsbExfUi02MTHherqpqSm1fDKZdH3Ltm15sfTNcx03kUwm9SVdwSrDz65DFHJ8ZmZmCFYA5pNLAaxdu1ayMqRZ5SoBssCaNWu2bt3qu3Jp3HXr1kV5DhbB6hCskTE5WJPJ5MDAgAwx5nI5aVPvNYzCpwRIco2Ojsogn7TOwYMHXQOZ6usydqiOTyWfa5fd2Uwmo55Rn+EgeZdOp+VZbNuWSnM9tVreFX/S967BTllY30c5IPqRVGPJg4ODvjvl3Wz1pOrreiXLoLi+O5lMRnbHtRL12snsXnW0i5d5VyhfVCO46k3CZa0AmCybzcpH/K4P7is5B2v37t2yTNDn/l1dXXK5q1JUCFaHYI2M4cHq/YBb1cnAwEDlwVosFn1LTt881wol0byjm1e4syoK9aFK27ZHR0eDRlJ9N8M7qKk3nL6b8mm+d2qB+oRdH0+VmNb7WLZB5aZrS9SW6/srK/HdHfXyuZpYXjvfF0jeD74rlMFjrsMKwFjbt29XNdnV1eX9biXNKsuEjKHKpQN2795digTB6hCszXYdVt9A8U2QoDANCVY1mjgwMOA7v9N37qZvxV55sMp4pLfMgk6EUivUs1I+ha/keq5BU2Z9SZvqKawCdHBwUB1G166pXtRTUiWsd5hWX5trkFVeO9+DoBI/6LXwHSoGAHMMDQ2pjrzmmmvKFm1Is8oYatAg68mTJ1XUXn311aVIEKwOwRoZk4PVd6vku65PyUOC1dt8Lt7PlKu+soF64ODgoOvWrFNTU/K5dlA6+1Ljmr6ZODg4WMksBfWkIyMjlTypyk39qltqXunExISEsqzH97UIGg11bbx+tNVrF9S43uV1slUEKwAzbdmyRYXm0NBQ0DL6dVWDmjWbzYYM07qitqenp7T6CFaHYG28YB0cHJwJVkWwBp1TFVQ8IyMj6QArHqwhBgcHQ67PlcvlTp8+nU6nU6nUyMiIfN7t2hIZVlQnTk1NTYWsUz+TaWxsbHp6OmRhNQasz1hQB0cdbfW/ZWRXrVkPzZBLDbgOkd7E+lUCvMqukGAFYKyTJ0+WHV4tlUrr1q1zXRPAt1nVtzZt2hS0HonaaAZZCVaHYI2MyXNYVypYD1ZGT6gVD9bh4eHR0VHvrNOQa1opqlm9W6I3q6ImpIZcN8q7sHfMVQYs5TwzvV9ltFUf/dWHroPGv70f8et7FBKslRcwI6wAzKQu7x9+/r5rhNW3WSVGt2zZUnb6QcgyK4hgdQjWyDRPsA4PD6dD6TV5hcG6rAfq12xKJpOynTMzM8ViMWSFxWJxeno6lUrppZtMJn2Pm1p4dHTUdTVW72ir2hjVfyqLJeXVDFQ1nVTSVl+DvDohg7je87RCgtUV0L64SgAAk8k1p0I+ytev/x/UrHJhrJD1xOPxstMPVhDB6hCskWmGYK0iaKIMVv20Ie+QZ4UrtG07nU6rGC17rphaWD2pd+aoPqNUxaWe8jKAqiYPuJ6rkr5Ue6SfdlbJlICgwWmmBACoo0HWoAv7y8X/w5tVtW/QSvr7+9VDYrFYKRIEq0OwRqYZgtV7ItGKb/OVPFDm+F75CuUqBJW8oHLEXB/fy6fwctEofQG5Apf6H97LHQTdfSDkQl3hwRp0J61KrikBACaQT+qDrgCQzWb1GwSENGvQ0Gk2m1UTYdeuXet7H9fVQLA6BGtkmiFYJeN8P6dWty09ffq09+5ZUQZr+Afi+nfV+Gj4JUvl4ORyOTXBoMIrTLka0VvSajxYTgjzXlpLLjTre1EC30oOD1Y5acx3XqzcOJdgBWAyuXBV0N2qZHy0bLN6ZbPZa6+9NuKLsBKs9iLBGqGGCVbJL99HqXmZvteBkuLRvxVlsMp9nlzbps9t1Vco/R0Ui/q+yHwDb5Wqy2x577bqurCAa6xUGjrozwPbtuWqW65vyWvkWmd4sOordEWwHAqCFYDhstnsNddcE96sMtt1Wc2q12o051oJRlgdRlgbL1iTyeRIMN8zzZcVrPL5dTKZTKVSrvPlc7mc/t3p6Wl1bVQ5XcmVUFEGqySgOnNfXbd1YmJC7unlXaEKWbUvp0+fVvsi93fV90U/LLJy/YoE4YOvvq+CPDZoloV05MDAQDqdPn369NTUlMS0tzvDg1VfYTKZlBWq/R0dHdXPEgOAumjWeDwedEcr3ysGBDXryZMnpVYjm7oqCFaHYG22GwfosVJdsKqs0U+Bdw1A5nI53+tG+U64jDJYvVsupqenfVeoD76W3ReJda+QyJPMDRl/DTkRKmiPhoeHvVMFygarazBVqPblslYA6oV+F9Z169YFTUgdHx/fvXt312U9PT39/f2+926VeavqOq8hcwZWCcHqEKyNFKzT09Ph15NyXVJKzdFMp9O+cxbLfndiYmL4Mt+dUpd2UguoC0j5rkdtc0iQhe9sFQ+ULR8cHBweHpYR4pAVqmtayb5MTEyE3xGgkh2vZEdkXmz4rbOKxeLU1JQ8YyqVCnqbzczMVHLQ9Bd3eHh4ampKbYDa1FV9DwPAaoyzqqHWoLP+g0rXe92AiGcCCILVIVgbKVgBAIDvOVjK5s2b9+/fHz5EGtSs0Vxy1RfB6hCskSFYAQCI3tDQkHe6ajwetyyru7v7qOb555/v7u7eunWrfgfX8OsGRINgdQjWyBCsAADUSk9Pjz5DYFlq3qwEq0OwRoZgBQCgtsbHx7dv3162XK+55prt27cHnYMVPYLVIVgjQ7ACAGCOocu6NP39/UNDQ3qYBs1njRjB6hCskSFYAQCoOyY0K8HqEKyRIVgBAKhHNW9WgtUhWCNDsAIAUKdq26wEq0OwRoZgBQCgYZo1yqcmWB2CNTIEKwAAjXH3rJ6eniifl2B1CNbIEKwAANS7bDbb398f8ZMSrA7BGhmCFQAAVIFgdQjWyBCsAACgCgSrQ7BGhmAFAABVIFgdgjUyBCsAAKgCweoQrJEhWAEAQBUIVodgjQzBCgAAqkCwOgRrZAhWAABQBYLVIVgjQ7ACAIAqEKwOwRoZghUAAFSBYHUI1sgQrAAAoAoEq0OwRoZgBQAAVSBYHYI1MgQrAACoAsHqEKyRefbZZy3LOn36dHRPCQAA6t8TTzxhWda5c+dKDSdfsGfn8mfOFuay89m8nSs4+fnFwsK5wsK5eXtp3l5acIr2IsEaoRdffNGyrOPHj0f5pAAAoN49+OCDd955Z6kR5QlW06RSKcuyBgcHa70hAACgbiwtLVmWtXv37lIjyhOsppmbm7Ms64knnqj1hgAAgLoxMTFhWdYLL7xQakR5gtVAe/bssSxrZmam1hsCAADqw/79+y3L+tOf/lRqRHmC1UCjo6OWZf3mN7+p9YYAAIA6cOrUKcuydu3aVWpQeYLVTA8++KBlWSdOnKj1hgAAgPq4oNWxY8dKDSpPsJo8E+Xhhx9uyItTAACAlXLkyBHLsp5++ukGPqR5gtVYzz//vGVZTz755Pnz52u9LQAAwESvv/66ZVldXV25XK7UuPIEq8meeeYZdYmKv/zlL7XeFgAAYJaXXnrJsqw777zz/fffLzW0PMFquP/5n/+xLOv2229/5ZVXLl68WOvNAQAAtTc5OfnYY49ZlnX//fefPHmy1OjyBKv5RkdH7777bsuy7rnnnkOHDr333nuLi4u13igAABC1v/zlLyMjIypVLct65plnbNtuhpchT7DWBdu2Dx8+fM8996g3qGVZ9957778BAIDm0N3d3dnZKRmQSCSa6i7ueYK1vrz99tv9/f2PP/74T3/60x8DAIDm0N3dvXPnzl/96lcjIyOzs7OlJpMnWAEAAGAyghUAAABGI1gBAABgNIIVAAAARiNYAQAAYDSCFQAAAEYjWAEAAGA0ghUAAABGI1gBAABgNIIVAAAARiNYAQAAYDSCFQAAAEYjWAEAAGA0ghUAAABGI1gBAABgNIIVAAAARiNYAQAAYDSCFQAAAEYjWAEAAGA0ghUAAABGI1gBAABgNIIVAAAARiNYAQAAYDSCFQAAAEYjWAEAAGA0ghUAAABGI1gBAABgNIIVWrVX9gAAIABJREFUAAAARiNYAQAAYDSCFQAAAEYjWAEAAGA0ghUAAABGI1gBAABgNIIVAAAARiNYAQAAYDSCFQAAAEYjWAEAAGA0ghUAAABGI1gBAABgNIIVAAAARiNYAQAAYDSCFQAAAEYjWAEAAGA0ghUAAABGI1gBAABgNIIVAAAARiNYTXTp0qWXXnpp9+7dj66CnTt39vb2njp1qtZ7CQAAUBGC1UR79+61LrtjdViW1dHR8f7779d6RwEAAMojWI3z+uuvW5b17LPPLi0trdJT/P73v7csa9++fau0fgAAgBVEsBqnt7fXsqyPPvpoVZ/loYce+tGPfrSqTwEAALAiCFbjHDhwwLKs2dnZVX2WRx999Ic//OGqPgUAQDhHDzhHD1R4QIpTf7AHnjh/6jgH0ARLb71qDzxxyZmv9YY0tXzBnp3LnzlbmMvOZ/N2ruDk5xcLC+cKC+fm7aV5e2nBKdqL551zF/T/FpcuVvLfmgqXW1y66HoCe/G8vXh+wSkuOMV5e6mwcC4/v5grONm8fTa3MJedP3O2MDuXv3DhYqnhNF6wbrts586d0TwdzPQvl/37v/97rTek9rJ7v13hf6XGcn4uM9+74+x9N89u/5uz990837uj6gI498YL2b3fnr3r+tntfzO7/W+yj9y2cOjh83OZkhkWDj2U3fvthUMPyVfsgSfUpjpHnyn78PNzmU927a7rV3lL608ymVS/U8IXO3/quO+/qfzT252jB5b1xjt/6vgnb7OG+ydZX/IEq2kaL1jXX9be3l5qbqlUKnFZJmPKr9Uo/fznPz906FAqlar1htSe+uVXyX+lBvLxb/1P+/Kz/+66frnN6r+eT9e2+EZ/yQDZvd+63Dffkq8Ueu9VG6lX7Pm5jD3whD3wRHHqD+5g/WSProt2w+tAIpFQv1PCFytO/SHsH9dy3iqyqrn7vrwSe4AqEazGIVgb/udsc0bbxYsXL11W6w2pPdUo8p+Km9ntf1Povdf1rVIDyT/9A7Wbqs9kxLHQe2/lK/k4HaRW77pu4dBDnxzDR26VFqlkCDP6YL3kzNsDTzhHn9EDXUrI+1ovvfXqwqGHXCGLKoI1u/db8g+q0Huv/lap/PAuvtHPDI2aI1iNQ7A2qiYPVgSRdGvsOvHm6cKhh5b1qfclZ15NJ3CNU2ote536bs3nBniD1VdIsGKlgtV7bBff6FffOnvfzRznOpJnSoBpCNbJycnDhw8nEonDhw9PTk6GHKtMJnPs2LFEInHs2LFCoSBfkf/78SdxhYL+lcnJyb6+vkQiEbSqo0ePlv3I/tixY4cPH+7r6zt27Fglr6laeXd3t/o5qx7o+1h9j5pz5kATqjBYz89lilNv2gNPLL31mm+QqQWKU2+q/6sWls891bfUAy858+q7srCsYemt15yjB1xfdylOvanOHypOvVn5B/reelA7XvnHrJ8EbnDeLb31asiordpr5+iBc2+8ELSD508d//gofXqq0/lTx9Xy4QV8/tRx13HzHWFVL4E6YrIxaoPne3fo3/3s9Qo46ao49ea5N15Y1o6ce+MF5+iB8LO4ZDF5q1RucnLy6NGjIT+3Jycn9Z976ud8X19f2R/yarXywCsPVn28Xz9E+j+fpbdeC/rn413Y89T+r516xUP+Cfu+V73rqe7ZG0CeYDVNMwfr5ORkW1vb+s/btm2b70+0Xbt26YvF4/HJyUnvKGYqlZKvSDLqP+wymcy2bdtcT9rd3S3JqxsaGmptbXU9b19fX/h+yVa56Mv4bkZnZ6fvZqCpgvWSM59/ertrEp73jCVZzyVnPvvIbfJ5qPqu/nG8Pgf07H03q99tC4ce1teffeQ27++8jwPLNX/0rusrHB1Uw59y2ooMl1Y+JUAtP3ffl0Mq+ZMPfD2jth8fnM9v+dn7bl5661X3wz8NzY9P2fn0GKr/8k9v9z7vx4d677ddx+3yF93BKv2kXuWgGZbyHnC9fGLxjX4ZZpaXwHvxAdkA3y301tLSW6+6V/vxMPbDpQpMTk56f3a1tbW5fm63t7erbxUKBdfy3oXVWIPrh3xra6v+Q/5KgtX7j05m5pyfy4T883HNSPb+G5G/mvTn9XnV/P4JKx//S/S8V/UfDpU8u/cjiAaQJ1hN07TBOjk5qf/8am9vl3iNx+OubtN/3rVcphbr6uoKClb5lv7DLpPJxONxWU97e7taldoG15Mmk0l5ePtl8n/Dr4GQTCZda1YP1/ddNiMWi7W3t8diMdl3hlqbOVjPz2XkV93cfV/O7v3W3H1fll9j+i88fVboZ3Xy+d+4Hw9SXv5dKCtRBSOP1b/u+sBUlpm967rs3m99/Av+04/gK5k2Kg9feuvVz6L5rusqHMmT/qjiN/F87w5tZ2/V99F15o103ifJ8ukOSrMGTVFQa5YoLxusl89h/5bMp1SvrArlkGD97CW4/HT6dMz53h2+O/LZnzravmQfuc23cj7Zd+095lqtl/6zy/tzW//ZJT8wOzs75Wed/jPf9fNWH7zQf8jv3LnzyoPVOfqMvBv1I6ZevqB/PrIqOWLed/5nNfnpG1uey3t4vZcd0P9MkneU6+dDyL+FkJZtAHmC1TRNG6xq5DIWi+lTPOWP6d7eXm84trW1yQ/EVCql/4DzBuv69es7Ojpc8afCNxaLDQ0NyRd7e3ulcb09rT9poVDo6OhwPWMVc1hly/XdlM0oewEXNHCwfvLr867r9F+N8itQH57Ua8Z7zUj9V6Z8Kq0Xj/zyuzzCdKt3k6R0Zc0ylFjJyf6XnPlPfk9rZ01V/mtV5h16h0XDybHKPnKrNMTnJrxq2/BZtTxy6+f6wG92rMRBofde2f2PU+bThUOCtWxUhaxB3xH9xdKPjOzI7F3XyTOeP3VcUulzC39a5/qh8IaXLxk7SCaT3p9d+l/yEqz6z1v9UzXfNbh+yOuNeyXBKnvnHWFVGer7z0df1Sd/nHw+/eWfSfaRW10XfNBftcufmbjnJLj+5tQmh3zy9tP/gFSvo3cOruvZG0yeYDVN0wbr5ORkMpnUwzHo4fIDzlWf+hitN1i9GzA0NOT9QanIcKzrK7FYzDUMUCgU1M9QvW6XFayyGd5hWtmM8GleaNRglQtAegdyZEKn/GKT9fj+hpZ88T1L3fUbzvuxpvzeda38/Fxm8Y3+CrtTotP1+3tVT037ZBD08zuu77se/VItrmeR6pUX4pIzL4OjgYm8osH6WeJ8/rh9vCWeeJIdcQ0h+35g7Tuae8mZX3yjv+zRzmQyvj+31U9F/aeuBKvr5638iNZPLZDxC9fPW30AInzDQo6t/LPSXzs5Yr4fF3hXJf8A9ZdDDq9+2ItTf3COPuP6N+K7efI3YdCbX1by2bNrq5V1mnChjNVAsBqnaYPVV6FQcD08k8l4hz+9PxO9wRpUpbFYzLsefear+or62Mv3o3/1EVU8Hq8uWKVKvR/9S4Jz24UGFpJi3ir1/nKSoTLvbzWdb5T4nrwf+Nv003kC1X3a+HGtajPzvENTqxGskia+Ewm8E15VtXiLwXtAQj4UDh8frS5YpY/zT//A+3Te0VDJr6Bt09cjx2GlrlNRKBRUcfoGq3devuuHvPzc8/0hLwMW4dsgx1ZOaFMnGurzQ/SslCPm+1mB92Xy/WNSXoiyHzh4/3IIeUddPgfrD8WpP8hq5Q9I/Y3t29CNJM8Iq2maPFgzmYy6RIC6l4n8MS0P9/1zXISfdOVaWP0Ajcfj2zxcn1JJN7e2tnoXltOwqgtWtRm+3cxtF5pBSIrp8+q8/7l+4cl6fJ8lPFhdweQbUvLrUO4stfTWaxVeJeCzsdW7rpORQpkfKU9X3VEKIRHg+yj9NLXwy1F5D0i5iRxl5rAGrTbo9Qr/gFsOr/cD7kreCfokS3UHsrIXRgj6ud3Z2en7c1sPVu/Dg37I61OkQj7+qubGAZ4jGXLEgv6ZqM/l9T+91J9kvn9UqCtOLBx6+ON/vNpE1QrfUV7qzwx9VoD6MMH32RtDnmA1TdMGq++ppjJjqcKfZVUEaziVxfrnUCGuJFiDjo93oAJNGKyV/N5d7WB1TZOV/8reYVW70egnsyRlIEoNJoVvuWuTlnUvq/AICDpVvO6C1Tvcvqxg/aRZP3+GmfozqWy2+l7eJHbZlQer74kBV3inq+zebxV67/V+SlBFsEroq6Mkfx25pln7XoFBJhN731EV/qngenYZ8TXkZm+rgWA1TnMGa6FQkFNN29vbE4lEKpVSEzeXNcIqJ5BWHqxtbW2pYOpjen0eQsjCVxKsra2tVR89NHiwXv6sNug/+fUWQbDK1MaFQw/pJ2yFf74vv1k/9wmsdqqQGnMNP1NEPgMNH0BSdySSzfYOPeq8idCcI6xi6a1X9VuvqfdeyF8j8tG/9+e29+/wlRphXZGrBHhVEazynlR/d33yZ9jn76ard3Oh917n6DPyb/YKR1hlloh69k9vw+Geq91I8oywmqY5g1XOCfX+hHI9XNqxo6PDux75KL+SYFUn+Jede6pvxpXMJQ0KVrnOgHdqV/iEXTSGkF9UMhK5rPWsarDqPrtKQOjJ+74b9tk1Cj6d2Fo2LD67UmbAJNrLpx997izp8B3xNkrlwSqN6DugtXpzWH0vW+s9Bae6YBWXnHl574W8LnLBFu/P7SsJ1pWdw7p6wfrZG+byH2zqved6gXyvBuB7FmP4O8rXp3/pffzsy72qcT3KE6ymac5glZhzRZsUm+9VAlznzusf3FcSrPLT1nuKq7oLi34zKpWVra2t3qxMJpOV3B8rKFhlM7xjxvIQ7xaiGYLV96Rj5fxcxnVLqlUNVnUTLO/Vsv5/e+fy21Zy5eH8Q7PqVXsjrro31K7RAJdpQFp2PFSAGOgAknfdBjVAYKQBAo3ZZKjsHIy06Gwy9CJA0A4VBEYAg3G/Ms6FM3ZLNC8l6mWbA6vcx8f1YlESpRL1feDCpop169bzd+uec+owQRboCKxv3cKjB29eQyfsDEltmOD8bgLxp9FuK25IoMiWbbpgFQXphtIU5XG2UQJE31v3LjLd6/Pu1pKVs5ygZr2JlvqJaKDQnOY6y04kWEejkURdteZbHQpmlIFglbZ+84L+bWGqFa33hxP1KGuK0LHexj43zgB9BGtuXE3B6t1h1Qei6J9LHKhKpbKxsVEcs7GxUalUxOY1RbCWZSnTota+ZVmKJpbpUi5qnT4lctO745u4GyHF0IWUK1ar1XjOcKmJvwqU2KV6IdRnWZ2PSYCsiFYkedGIkZVSpM+rCANKFR0+vCd3kXiqu+xXPb1xbf+r/34rqx+90CzTAqkWXXJdgbra0wWrljg652MVfi1RsIrdoXUkgbe9vHr95XDglekTCVZvGdxIXi4yR1nztpwpeGLBKlJ4cXFR5tuiKHSw7VEGglVUZigilXeH9Y1V99t5yq62v0e9bWygI5qFrj5j9BGsuXE1BatEMzXHojabzdXV1fn5+bm5OSPmrJ9bx1YZarXaRDas1qZsrVZbXV1dWloSa1pLWcpFTWCB1dVVmT3n5ubGhkqV3WKJNhAqhg5TkJIzzPJJV2ob0vjmvzq7yLfaTdskQKxOzclYO3c+E1eSsYHK34owcBziwHtS5di60hHXvZ9X4V1df5ofS7598/3+Fz97JW1/rEAr3NVEgvVYdrxumu2b70vohlfHVh1fcaxgffNAcqw59NFl3vZ6c4bZjWuvL+cTx5OaBEi22zff37nz2SszVnFjj+5863l7aWlJ5m3zmH0awap3DSSQi5kPxYYqVKrzFKxvNYovwRsb1hvXTN2+esC4cU36pP7Jm8M13u5REVMBffWZPI5Vg2DNjqspWM27Hn2KiRyIEnKib7fb+ml7eXm5LMuJogTIdeXQVH3peBQCTbVaTdSU6+vr+h71Tq23GOk5w+VlrLOFPqDozefGuyEX/ikJVm2xqj/9Lz5O8fPwRhjYuvne4cN7ImcTA57vfvm5p0LePh8oZJEZqcBJBau3abZuvmeOXU0UrG/ZRai/htpLS/+IUpnUhtVTP8dpxsbc9c7b5jDq0whWo1mtQC4m50mjBExbsOqDbb0O/vq8DP1Y5c3TP8puvBsybH3r6rN4HKsGwZodsydYjQd9ivAqy9LMR41Go9VqGT3X7XbjP9eyT+YySV+WpSmAa3uqabfbzR9ZX1+PJC7LstVqSeKxwQEsiqIwP5cbDBUDu9UrwrER4VtRwb0cPrxn/N93v/x876vfuYkln9DPX7knO0uaFWrAClTuLsBHjx5IMdzze+KYCAPyc8uaM1L4lAoZGwzoaKvQJffW9tGjB95ailSIDk0g7eLm48Z+13+SHPThsd6SmPTDu7950wS+IpkCeOszlPOxVfTrbF+VJLllrXnbWPO787b5JvSmKzTJdzodMx9KzkVRpERliTfZRDUWGibpvdfU7c6dT00nGZunHmXewa5JfMsxA/QxCciN2ROsU8Lr5JT4tggAAOCyEz9xbcboI1hzA8E6llarNT8/b3lK6bf/RC0FAIDZRvsOznD4VQHBmh0I1rFoFyXjodVsNsUvNWKuCnCxvHj2f3yogctYA0wdWXF8Mtlrf7t0O93LTp8d1txAsKbQbrctS3/tpzX1RgI4EUf/+FvEw50PNZBnDfRWa5doxIcOZZ2Nj7GU1Y5Z4nJnpZw9FdtHsOYGgnUiS/9Go7FwjPFSintWAVwsR//4W/mf/86HGrh0NXCJpg4TpWFWP8YZzngcWr6GVsr0E7MuCwjW7ECwAgAAAGgQrNmBYAUAAADQIFizA8EKAAAAoEGwZker1bp+/frjx4+nepVPP/30F7/4xVQvAQAAAHAmIFiz449//OP169fX1tb29vamdIk//elP169fbzabU8ofAAAA4AxBsObIr3/96+vH1KfD9evXf/7zn3/33XejWeRoq5j5I5UBLjtlWW5ubp4+n6IoNjc37969eya55UlRFClHW8O06Xa73hMW4XxAsGbK73//+1/96lf/MR1++9vfnueokzORrc/hwz+fMmc5TFxCe8g5dbMXgu4qUBRFs9lcPGZtbY0gZbNKWZaVSuWdd95ZXFw8TT6rq6s6DPNMiolut2vqqtFoXHRZrjTr6+umm51nqG8zJTabzZns25OCYIWpEwuDfOPaaWLF7X75uY6lrL/p3f7pKJttpM3NzQucbnIow0TrgeCevguzgT6s7sSZNJtN3VtqtcsU3D60Vby5uWk9p7VaLU6czoF6vW4a4jyt6WSkcHzjCMEK58CP2vTdNzGNb32gZevw7m/OSrAebRX9Lz7u3fogE6sAmW4u0GI4hzKMpdvtyllljWPMSWaVSuWiiwZTodFo1Gq19fX1E+dQq9VMh5mNpxrR35Y0KcuyXq/XajUky8XS7XZrtVq9Xj/PJ38Eq4YdVpg6oS3P49OQ3zV/1cd1nEaw5kYOYjGHMqSv1iI+ZMOVdRq8zNi+Y0iwwlUGwapBsMLUibyjf6VZo5usL4eDyF7pyQTr0aMHL4eDUWZisdvtnsZkM+Jxkl6GoijSy2AsDbzpi2NGk7CwsOCKj1Ou3xPdTrfbDdXhRBt46a4/6S2emOcpu1BZlt47LcvyooxJ4h0pUbBO5Ixl3stH/uqt4cQesrm5GUl5GsE6adOfpqt0j5n2VeJDcqJRNjpHIv0nvTZ0SgSrBsEKFylYXw4H5q/9Lz62vt+589nTG9fEbKB3+6OD+38YK1gPH94LOV0d3P9D79aHkuH2zfd3v/xcK1cxVHDlrPhy7dz59ARWehprNWq324uLi9pqc3V1NX2WX1tbm5+f1z9vNpv65yll6HQ6VhlWVlbcMog+KMtS0uusOp3O0tLS2Hy8NBoN8xNJL6Z7iUuOlrzNZtP4qXjrxBIH6+vrkthKo+t2fn5+Y2MjdHUrca1WCyXe2Niwsg09SFh5mhtxk3U6HfNyXFhZWRkrMfVCaN51ulfRvatSqaytrVnt5XVAKctSKiFSAOlOiS3o/tbCSmMNjfn5eV1+txLa7bakl/qX/+ry1Go10yfLstQdfnFx0dtXNzY24g1kGeMKViHd1k+cPeTnZVmurKzoOkk3ybCu9c477ywtLaXf79h5QLdFaEi6bRoaZdacZprGFX+RutWtb33j/bnbfyYd791uV3cn080QrBoEK0yduBeU+9ejRw+2b77vddLaufPZyQTroPVLb4a9Wx+KPN376nfmS9cPrGx98tp0Idk0NkWw6sVDIytinMjPZXkYW4bQYuk6PJnvFxYW9PwrWbkuU6F84tVlXKHX1tbkcokVLnLHe0e6TvRdi/AymL+WZWmtuMLS0pJ13UjilZWVxCZzneUT8zxxtUuFa3EgGMdkN1tZa8XmeHl52cpZihQXQxHBajWKQfvIe29ZyqYfqNx61t1AV4JOZv4qNeBWRaVSKYpCDwT9fUqL65QnE6yTjlwTf8NN32q1RuPwtoj36TeU0hqALvo23UqItKk7yryDolKptNvtKQnW5eVlt8yJU7Rk5Q7DSqWCZZQGwQoXKViPHj1wdy5lH/RVvKpjgXi8OfqBazyQKFjF8KB364OD+38wZgb9Lz42X5atT+LbvaPRyAjorZvvpd91WZadTke2CZeXlzvHuDuItVrNbFN1u12ZE8e6PMtEJk4AZVnKz2URipdBZvBqtdput83LX8lkfn4+tFnbaDR0ViJf5F7Ksmy1WsZxKtF9W5xwZWUau8hpjNwxk369Xjdla7fbovy04tGLonH9MXts5q+yz1Gv183a3+l0TP7u2qYTm5VMX1SLNrmoZFsUhdf1WBp3eXnZ1EBZlrIoSp5FUcgt6CcHU+31ej1SXbLWVioV02rdble6isRRMvuvUnLtA1etVk0nCbVjvO1CgtVcutlsWpfWUatM39P33ul05K+imaRFut2ulEo/cuhKmJuba7VaJiurvcwWr9nukm5gfrK+vt7tdkPdTNqxVqtJ8aSSpYGKouh0OtK+VjG8okpGrmm7lJGrC9zpdKSWxvo1WlVt3ZruALpDuvfrPtt4r1KpVKrVqhmScjndpibn0NgpikKUn2m1oijMoJDvz1ywGue/UP/R411aWfcTifKWUuarTL/cfbrV/2G73OoNev3dZ+WwP9grd/bLnf3B7sFg92BneLi7dzTcf64/ewcvUj4/SUy3d/DCusDu3tHu3tHO8HBneDjYPSh39vuDvWflsNff3X62s9Ub/LBdPt3qP3/+4qIrEE4lWPtf/Mza1JRtTmuL9JWaNB5aN65NKliNacHWzfesd/2iWeV79xutqk8QzSAyIZqZqFqtht5WxzeoJJm1o7O8vGzeT6WUwWwRzc3NWZnIGqN3X2RqdgtmJObc3Jx1L7Ksprx5LMvSaCCZ5ScygBMlYQk1na1kqB8MrKuI+HYFn4gSqa5QYrmoiHV5Ue5ma9ZdbQ4hK7GV0jSu7J/pDUKdrNVqNRqN+M6Z/NbqgaIMrL1tWWhl4fTabERu08K9irSgVXL3MSyUg9ZM7t685O9WoDsErB1Wb3fSGkJuXF+33W43Gg23J0tH8l7OtdhxiyEjNxQDyztyrZylm8XFULfbbTQaxhZIfy9dxdWmVobNZrPRaMTDl4Y6pG5TNxKtPOS4pbJ6ixaXZy5Y3f4jGtQdCDKU3HqziiHTC4LVgGCFqeN56b9VHNz/H1GreufSKxkteSrGrCmCVcxPXbl59OiBde6A1ypg586nJw5lEJoQRcm5qiJxyQ+t4ullkNnQG5Dc0luy7FWrVSulLCfekph84psrbhB4a4soBVeORF5SR54K3OUk0mqyOroXbbfb5sW6VQY3W2kIWdEj2Xpb1jVUmNQGY2xvcV9NemVEenD1iGANPUJ4LVktYSprv1sAt8OHKsHqJFZ5pJxWeiNDU4xYpI+dTLDGR677WsMkdl90TPQ86eIWODKtjSWiHaVN3TnBfctvpLw7TXkF+lkJVrchZCC4Q1gGjlS7PMC4N+g+KF5l+uywwkUeHHAcn1Ubhka2Y10xmiJYJU2i+anZx9VWAcYe4GQnEYy1P/NOQ6EVMfTwvbS0tLa2FvJODZUhtB0SWlO9+kDnv7Ky0nQw68fYVVyMvWT7Sq+v5uyr+LIaqTRZIaQGIvVv8vEuePIsIfo7kjhUn24VuTt5ejfING7If19XV7PZDMVtSO8VIScP7/fm9vVLYaMJ5ubmxhbA7U6RFvQW1dsh42PH+kk8gIYrWeKX8Ea60CE1NjY2ms2mtms8mWCddPYYO3LTA96ZU3DNXbhvq8uyNHJZd8jEnCPeRbKN6g4cqUyRyNYI1cS9pkKJT/nzlPEeaiCvIr/K9BGsMG0iUrVsfWJtW4asSPVfJxKssj+aWFrxr7LsAU52ItdYwer9VeiNsIVYK1qO+dYe3slEs7u9FJpVRfhGiAtWbexljF8td4qUZdWsaiF7WWsZi9x7XGFbt5Mox7WMiKBv0K1Vb+N2u11tR2FYWloau7ydiWB1t5Gseo4wVcEaUsyWpjwHwarNW11OKVi9jzFusU8vWK0AIBZWqBBrUorEE5hIsMYxtxDajA+9JZieYJ1ovEdeqRElQINghakjDk+HD+/JJ/R6PeahtVWcZoc1sbSSgzE8EL17stCtY8Widz8sZYfVYOTdwsKCXiQqlYq1hJxGsMo3oWVPewh5txOazWZ8c9Q159UOKLIIxUWYu9unsd7cRe49/mLXqoTIppq3eKEdF4NVmKIovI3rtXmo1+uWck20YT2NYJUtZ1OxshuUEhfiQnZYrcadtmC1fPvMAOl0Ot6cz2qHVexJzkqwaqd7uQtjnustRlmW3g4ZnwTGCtZqtTp27EiHjDfoOQhW7RA2dryHGgjBaoFghQsOa+V9I9+79eGZmwSkHy6wdfM9iR5g7AEkksCknEwsypmTE12rKApZQvRG41g7Wu9CcoIXi2PNFr2ENkWkABEDL296N9lES77rxiG4VptXNbpDAAAKjElEQVTpjxaujJgI7eceMW7WwRniNXYmglUeLcxzgvl3ioHE9ARrPEaB9ZOpClYdj9baFz+lYI3Y6U7DJEAcvFxXqsgkZtCxC+LhCFJMAkYJRMaIq7BTFOdZ6d0IkWgqccOtq0YfkwDISrC+iXjqbMG6wVBTBKs3cpbhVbSs2x/1bn9kmbe+3lW9cU1+655ZkMhYhyf35amoorHvVYuicLeyXAfkUBkiF/I6foWWPdey07rT+F1Yu3T6e/0udWxtyDod8aOSBT6y1kZWCNejKCIdTNhLCbAa8UbyHiXlPeTJVIheuY1xpJUstPU1DcGqd1UlItUogSkJ1kgUWPmTDvo2PcGa8r74ZII1MnLlTykjN1GwhtJ4u5n3vLQUJ8KIYI3EInXHjowR94lF4ua6joNuTbqnAEwkWGVceMe7VQ8ijt0h7z2i5crSR7BCVoJVFGfv9kf6e9GOvVsfTBrWyuyYWn5XL4eD18cT3Hg3ZHsQSpBOxI1U1Jg1ecn38RlKomDqebksS9kO0V+GJuWQyBNXBv19aNnzKsKJVkRzL+7Lbm3HOfboJrkXq07k2UDXSUSw6liSVj5GkOl8JHHoolo3mH0UNwCC1Lbco0lpnSYggXJkJ0aq3ao3MTdM0QenFKz6vhJbaqqCVfx+LMmih4aO5zo9wRry5dcedd7LpQwiKYOVWJpef38mgtXqjTIcdJdwA7RZqitylUgHkzZ1g9DJ/bohoqwDBbR5hr6EvI7QrmNex7iJBGtkvLsmyDper06sjTF0mc2ZWOnnCM4MfQQrZCVY9U6qOT11ePe/9DlVWnQmClb58unP/m3Q+qUJZSWHabmHuOpjWkPHsaYbL8qEuHKM181/ZWVlbW1NH8XpDVijkXnZnE9ofJBF7FoTqBiTLS0tra6uyuReFIUunimDZGK9Vgste5Z38MrKysbGxt27d2XS9wa59O5GGL8iY+BluaqMPURAlvBqtWrOqLQ8svUSnmi/a85RXFtbW11dleXZkgj6jae5qE6s89e3ubq6evfu3Y2NDVnLvbaPi4uLpnH1oZTyFCFdyDhQGw9uWcLjnfMMBas+5ifxkIjpCVa9zJt6tppPm/ZO24ZVxp1pnc3NTRO7TQZLKHK+6UiRQnpHrvSQxJGbKFhl/29lZcXchTmo1pV60sPNQbhmUpIennhwgHdI6unOHTvW/Uq1m/ErR3x5A+jqo7nMKxGJn3pKwRof79ZI0c/bOgCCd/8idIjJzNNHsEJuglVrViuqgGWHmn4066torObcAfusV48Y1YdjheJhmXkkxRvaOidwrEdtYraWUIj/XKZOV3J1u11vGdxo53EZ5HVX95q+eQmFGqjVaqEtk0gcVveOQrHoQ2ULnXvptff1JjanClkpQyepunI81LjWk0x6htMTrPrRKz2i5/QEa6RaQsHkpyRYvV2xVquFDJq9J3xGzIpCs0fiyE0UrFoc67vwRlwK1bx77kCoMKEhGZoi3Jy73a4bmcH4irmX8B6tvL6+fkqnK6kNbxu5w9NbjFAli5geu68xY/QRrDBtzI7mpGGhDh/eK1uf9G7/1HyGd3/j+ukfPrxnRf4/2irMN66L1cvhYPfLzyXDsvVJxA1LrAJCx7FOFB/bnLu4cIzrUWs8wQ3m9NSUPN2c4z/vdruRMqyvr0smcqClRYq/v85nYWGh1Wqlv7QyTmPee5Eg/JF33FpG6JtdXl52f2U8tZvNZmTr15yjKOWZKHGj0QglNm4o+jZDVdrpdOr1us7T2y5WvdXr9RTVaIrhDU3grZnQ9wb3LLGxuN3JqISQdnSLGu+QVrV4WyRUCVYnsb4PldN8b5VHilGr1cyIiOQsAR9MO5rKjBQycfYIVVT89q0LmbuoVqtmLMhhsN6uYk1KE3XI+CgLTRHxmjHVHnpM1ROgTBduG7mTRkoFpo93a/40k6e3WowLpvtkMvP0EawALrJT6z2OVSwXU8L3wPmQ7rAPZ0v6cawAF0hKWAPIGQQrgIfe7Y8ix7GaN0GJ4XvgfECwXhQhbyGArECwXnb67LACCHtf/W7Q+mXv1odxC1cz8V01+6HMQbCeM8ZVWXy80t2tAC4EBOtlp49ghelhopxeio/xrOrd/qn4WvVufWCsZnUyY4lrtBH2AFmBYD1ntHv13NwcwwEyB8F62ekjWGF6eDz9c/0YByzjlVW2PtEuYjqZNwYW5IB4Y1x0Qa4Kxj2oXq9P5FoHcFGISxMPV5eUPoIVAAAAAHIGwQoAAAAAWYNgBQAAAICsQbACAAAAQNYgWAEAAAAgaxCsAAAAAJA1CFYAAAAAyBoEKwAAAABkDYIVAAAAALIGwQoAAAAAWYNgBQAAAICsQbACAAAAQNYgWAEAAAAgaxCsAAAAAJA1CFYAAAAAyBoEKwAAAABkDYIVAAAAALIGwQoAAAAAWYNgBQAAAICsQbACAAAAQNYgWAEAAAAgaxCsAAAAAJA1CFYAAAAAyBoEKwAAAABkDYIVAAAAALIGwQoAAAAAWYNgBQAAAICsQbACAAAAQNYgWAEAAAAgaxCsAAAAAJA1CFYAAAAAyBoEKwAAAABkDYIVAAAAALIGwQoAAAAAWYNgBQAAAICsQbACAAAAQNYgWAEAAAAgaxCsAAAAAJA1CFYAAAAAyBoEKwAAAABkDYIVAAAAALIGwQoAAAAAWYNgBQAAAICsQbACAAAAQNYgWC8fg8HgyZMn//znP/8XAAAArgaPHj16/Phxr9c7PDwcXT365e7Trf4P2+VWb9Dr7z4rh/3BXrmzX+7sD3YPBrsHO8PD3b2j4f5z/dk7eJHy+Uliur2DF9YFdveOdveOdoaHO8PDwe5BubPfH+w9K4e9/u72s52t3uCH7fLpVv/58xejK8POzs533333l7/85c8AAABwhXnw4MGTJ09GV4k+gjV/Dg4Ovv3224seHQAAAJAR9+/f39raGl0N+gjWzNne3mZXFQAAALx8//33oytAH8GaM0+ePGF8AgAAQIS///3vo1mnj2DNlu3tbcYnAAAAjOXrr78ezTR9BGue7O/vYwkAAAAAiRRFMZpd+gjWPPn6668ZogAAAJDOcDgczSh9BGuGlGXJ+AQAAICJ+Oabb0YzSh/BmiHffPMNQxQAAAAmZX9/fzSL9BGsufHixYtOp8MQBQAAgEn517/+NZpF+gjW3Hj27BnjEwAAAE7ArIa46iNYc+Px48cMUQAAADgBf/3rX0ezSB/Bmhvff/89QxQAAABOxsuXL0czRx/BmhvffvstQxQAAABOxtHR0Wjm6CNYcwPBCgAAACcGwTrcf/3ZO3iR8vlJYrq9gxeStfns7h3t7h3tDA93hoeD3YNyZ78/2HtWDnv93e1nO1u9wQ/b5dOt/vPnL0YzB4IVAAAAEKwadlizA8EKAAAACFYNgjU7EKwAAACAYNUgWLMDwQoAAAAIVg2CNTsQrAAAAIBg1SBYswPBCgAAAAhWDYI1OxCsAAAAgGDVIFizA8EKAAAACFYNgjU7EKwAAACAYNUgWLMDwQoAAAAIVg2CNTsQrAAAAIBg1SBYswPBCgAAAAjW8xOsb10KAAAAACAzEKwAAAAAkDUIVgAAAAAY5cz/Ay4v3HUy6WbiAAAAAElFTkSuQmCC;" vertex="1" parent="1">
          <mxGeometry x="1140" y="30" width="506.67" height="670" as="geometry" />
        </mxCell>
      </root>
    </mxGraphModel>
  </diagram>
</mxfile>
